<svg width="80" height="66" viewBox="0 0 80 66" fill="none" xmlns="http://www.w3.org/2000/svg">
<path d="M20.0632 45.7244C19.7933 45.7273 19.532 45.7926 19.2791 45.9205C19.0263 46.0483 18.8189 46.2173 18.657 46.4276C18.495 46.6378 18.4141 46.8679 18.4141 47.1179H17.6641C17.6641 46.8395 17.7294 46.5739 17.8601 46.321C17.9936 46.0682 18.1726 45.8437 18.397 45.6477C18.6214 45.4489 18.8771 45.2926 19.1641 45.179C19.4538 45.0653 19.7536 45.0085 20.0632 45.0085C20.6257 45.0085 21.1101 45.1577 21.5163 45.456C21.9226 45.7543 22.2337 46.1491 22.4496 46.6406C22.6683 47.1321 22.7777 47.6705 22.7777 48.2557V48.4943C22.7777 49.0767 22.6683 49.6165 22.4496 50.1136C22.2308 50.608 21.9183 51.0057 21.5121 51.3068C21.1058 51.6051 20.6229 51.7543 20.0632 51.7543C19.6115 51.7543 19.2038 51.652 18.8402 51.4474C18.4794 51.2429 18.1925 50.9688 17.9794 50.625C17.7692 50.2784 17.6641 49.8949 17.6641 49.4744H18.4141C18.4141 49.75 18.4908 50.0071 18.6442 50.2457C18.8004 50.4815 19.0036 50.6719 19.2536 50.8168C19.5036 50.9616 19.7734 51.0355 20.0632 51.0384C20.4581 51.0355 20.8018 50.9119 21.0945 50.6676C21.3899 50.4205 21.6172 50.1037 21.7763 49.7173C21.9354 49.3281 22.0149 48.9205 22.0149 48.4943V48.2557C22.0149 47.8239 21.9354 47.4162 21.7763 47.0327C21.62 46.6463 21.3956 46.3324 21.103 46.0909C20.8104 45.8494 20.4638 45.7273 20.0632 45.7244ZM22.3303 47.9872V48.7031H19.3388V47.9872H22.3303Z" fill="#C738F9"/>
<path d="M24.446 51.6349V45.0895H25.2045V48.0341H25.9162L28.3494 45.0895H29.3295L26.7045 48.2386L29.3892 51.6349H28.4091L26.1506 48.75H25.2045V51.6349H24.446Z" fill="#C738F9"/>
<path d="M32.9208 51.7713C32.3356 51.7713 31.8256 51.625 31.391 51.3324C30.9592 51.0398 30.6239 50.6392 30.3853 50.1307C30.1467 49.6222 30.0273 49.0426 30.0273 48.392C30.0273 47.7358 30.1481 47.152 30.3896 46.6406C30.6339 46.1293 30.9719 45.7287 31.4038 45.4389C31.8356 45.1463 32.337 45 32.908 45C33.3455 45 33.7418 45.0852 34.0969 45.2557C34.4521 45.4233 34.7447 45.6605 34.9748 45.9673C35.2077 46.2713 35.354 46.6264 35.4137 47.0327H34.6467C34.5671 46.6634 34.3754 46.348 34.0714 46.0866C33.7702 45.8224 33.3867 45.6903 32.9208 45.6903C32.5032 45.6903 32.1339 45.804 31.8129 46.0312C31.4918 46.2557 31.2404 46.5696 31.0586 46.973C30.8796 47.3736 30.7901 47.8381 30.7901 48.3665C30.7901 48.8977 30.8782 49.3679 31.0543 49.777C31.2305 50.1832 31.4776 50.5014 31.7958 50.7315C32.1168 50.9616 32.4918 51.0767 32.9208 51.0767C33.2106 51.0767 33.4748 51.0227 33.7134 50.9148C33.9549 50.804 34.1566 50.6477 34.3185 50.446C34.4833 50.2443 34.5941 50.0043 34.6509 49.7259H35.418C35.3612 50.1207 35.2205 50.473 34.9961 50.7827C34.7745 51.0895 34.4862 51.331 34.131 51.5071C33.7788 51.6832 33.3754 51.7713 32.9208 51.7713Z" fill="#C738F9"/>
<path d="M37.0522 51.6349V45.0895H42.0082V51.6349H41.2454V45.8054H37.815V51.6349H37.0522Z" fill="#C738F9"/>
<path d="M46.6626 51.7713C46.0518 51.7713 45.5234 51.6293 45.0774 51.3452C44.6314 51.0582 44.2862 50.6619 44.0419 50.1562C43.8004 49.6477 43.6797 49.0625 43.6797 48.4006C43.6797 47.7415 43.8004 47.1562 44.0419 46.6449C44.2862 46.1307 44.6229 45.7287 45.0518 45.4389C45.4837 45.1463 45.9822 45 46.5476 45C46.9027 45 47.245 45.0653 47.5746 45.196C47.9041 45.3239 48.1996 45.5213 48.4609 45.7884C48.7251 46.0526 48.934 46.3864 49.0874 46.7898C49.2408 47.1903 49.3175 47.6648 49.3175 48.2131V48.5881H44.2038V47.919H48.5419C48.5419 47.4986 48.4567 47.1207 48.2862 46.7855C48.1186 46.4474 47.8842 46.1804 47.5831 45.9844C47.2848 45.7884 46.9396 45.6903 46.5476 45.6903C46.1328 45.6903 45.7678 45.8011 45.4524 46.0227C45.1371 46.2443 44.8899 46.5369 44.7109 46.9006C44.5348 47.2642 44.4453 47.6619 44.4425 48.0938V48.4943C44.4425 49.0142 44.532 49.4687 44.7109 49.858C44.8928 50.2443 45.1499 50.544 45.4822 50.7571C45.8146 50.9702 46.2081 51.0767 46.6626 51.0767C46.9723 51.0767 47.2436 51.0284 47.4766 50.9318C47.7124 50.8352 47.9098 50.706 48.0689 50.544C48.2308 50.3793 48.353 50.1989 48.4354 50.0028L49.1555 50.2372C49.0561 50.5128 48.8928 50.767 48.6655 51C48.4411 51.233 48.1598 51.4205 47.8217 51.5625C47.4865 51.7017 47.1001 51.7713 46.6626 51.7713Z" fill="#C738F9"/>
<path d="M50.989 54.0895V45.0895H51.7262V46.3381H51.8157C51.9066 46.142 52.0316 45.9418 52.1907 45.7372C52.3498 45.5298 52.56 45.3551 52.8214 45.2131C53.0856 45.071 53.418 45 53.8185 45C54.3583 45 54.8299 45.142 55.2333 45.4261C55.6396 45.7074 55.9549 46.1023 56.1793 46.6108C56.4066 47.1165 56.5202 47.706 56.5202 48.3793C56.5202 49.0554 56.4066 49.6477 56.1793 50.1562C55.9549 50.6648 55.6396 51.0611 55.2333 51.3452C54.8299 51.6293 54.3612 51.7713 53.8271 51.7713C53.4322 51.7713 53.1012 51.7003 52.8342 51.5582C52.57 51.4162 52.3555 51.2415 52.1907 51.0341C52.0288 50.8239 51.9038 50.6193 51.8157 50.4205H51.7475V54.0895H50.989ZM51.739 48.3665C51.739 48.8949 51.8171 49.3636 51.9734 49.7727C52.1325 50.179 52.3597 50.4986 52.6552 50.7315C52.9535 50.9616 53.3143 51.0767 53.7376 51.0767C54.1722 51.0767 54.5387 50.9574 54.837 50.7188C55.1381 50.4773 55.3668 50.152 55.5231 49.7429C55.6822 49.3338 55.7617 48.875 55.7617 48.3665C55.7617 47.8636 55.6836 47.4105 55.5273 47.0071C55.3739 46.6037 55.1467 46.2841 54.8455 46.0483C54.5444 45.8097 54.1751 45.6903 53.7376 45.6903C53.3114 45.6903 52.9492 45.8054 52.6509 46.0355C52.3526 46.2628 52.1254 46.5781 51.9691 46.9815C51.8157 47.3821 51.739 47.8437 51.739 48.3665Z" fill="#C738F9"/>
<path d="M57.3033 45.8054V45.0895H62.4169V45.8054H60.2521V51.6349H59.4936V45.8054H57.3033Z" fill="#C738F9"/>
<path d="M18 39V28H25.7457V30.1592H20.7406V31.8779H22.2355C23.1583 31.8779 23.9611 32.0229 24.6439 32.313C25.3305 32.603 25.8601 33.0112 26.2329 33.5376C26.6094 34.064 26.7977 34.6834 26.7977 35.396C26.7977 36.1086 26.6094 36.7352 26.2329 37.2759C25.8601 37.8166 25.3305 38.2391 24.6439 38.5435C23.9611 38.8478 23.1583 39 22.2355 39H18ZM20.7406 36.8945H22.2355C22.6341 36.8945 22.97 36.8283 23.2432 36.6958C23.52 36.5597 23.7285 36.3771 23.8688 36.1479C24.0127 35.9152 24.0847 35.6574 24.0847 35.3745C24.0847 34.9663 23.926 34.6261 23.6086 34.354C23.2911 34.0783 22.8335 33.9404 22.2355 33.9404H20.7406V36.8945Z" fill="#C738F9"/>
<path d="M38.2925 28V39H35.5907V30.127H31.3829V39H28.681V28H38.2925Z" fill="#C738F9"/>
<path d="M40.079 39V36.916L40.389 36.8838C40.7877 36.8372 41.1125 36.6815 41.3635 36.4165C41.6145 36.1479 41.8045 35.7218 41.9337 35.1382C42.0666 34.5509 42.1515 33.7578 42.1884 32.7588L42.3711 28H50.3272V39H47.6752V30.0947H44.9014L44.7242 33.7363C44.6614 34.9932 44.4972 36.0083 44.2314 36.7817C43.9657 37.5516 43.5541 38.1138 42.9968 38.4683C42.4431 38.8228 41.6993 39 40.7655 39H40.079Z" fill="#C738F9"/>
<path d="M54.6453 39H51.6998L55.5256 28H59.1742L63 39H60.0545L57.3914 30.7715H57.3028L54.6453 39ZM54.2522 34.6709H60.4089V36.6904H54.2522V34.6709Z" fill="#C738F9"/>
<path d="M0 0H80H0ZM81 58C81 62.9706 76.9706 67 72 67H8C3.02944 67 -1 62.9706 -1 58H1C1 61.866 4.13401 65 8 65H72C75.866 65 79 61.866 79 58H81ZM8 67C3.02944 67 -1 62.9706 -1 58V0H1V58C1 61.866 4.13401 65 8 65V67ZM81 0V58C81 62.9706 76.9706 67 72 67V65C75.866 65 79 61.866 79 58V0H81Z" fill="#C738F9" mask="url(#path-1-inside-1_103_11795)"/>
</svg>
