<svg width="1249" height="630" viewBox="0 0 1249 630" fill="none" xmlns="http://www.w3.org/2000/svg">
<g clip-path="url(#clip0_136_10239)">
<path d="M1248.93 0H-0.0273438V630.245H1248.93V0Z" fill="#63E0D4"/>
<path d="M-0.0273438 174.085L1248.93 87.1064V630.244H-0.0273438V174.085Z" fill="#A9FFDC"/>
<path d="M56.8984 176.621L1003.54 185.338L997 502.337H132.067L56.8984 176.621Z" fill="#FFD7F7"/>
<path d="M-0.0273438 40.351L1248.93 62.1278V0H-0.0273438V40.351Z" fill="#42C9D3"/>
<path d="M26.1742 157.139L47.9447 153.238C90.1019 145.687 133.021 143.272 175.761 146.045L229.012 149.504C244.736 144.495 261.472 143.502 277.676 146.622L308.683 152.585L66.6982 169L26.168 157.145L26.1742 157.139Z" fill="white"/>
<path d="M610.062 133.081L969.994 107.192L925.697 101.421C910.69 99.4676 895.485 99.6918 880.542 102.094L865.414 104.521L776.341 93.7801C768.219 92.8001 760.002 92.8578 751.893 93.953L741.921 95.298C726.44 97.386 711.702 103.202 698.969 112.245L693.301 116.268L668.84 115.621C657.683 115.326 646.596 117.446 636.336 121.84L610.062 133.081Z" fill="white"/>
<path d="M941.484 108.518L975.597 92.8135C980.401 90.6038 985.505 89.1178 990.744 88.4005C997.047 87.5422 1003.45 87.8176 1009.65 89.2075L1046.03 97.3674L1046.65 97.0984C1061.7 90.655 1078.57 89.8928 1094.13 94.9591L1101.54 97.3674L941.484 108.512V108.518Z" fill="white"/>
<path d="M521.335 233.779L635.906 201.178C642.035 199.436 648.383 198.552 654.756 198.552C657.785 198.552 660.815 198.751 663.825 199.154L714.763 205.918L752.738 194.76C760.117 192.596 767.809 191.68 775.488 192.051L988.285 202.382L689.803 252.347L617.902 245.302L521.328 233.773L521.335 233.779Z" fill="white"/>
<path d="M-0.0273438 152.296L347.119 216.486L454.447 198.411C463.945 196.81 473.655 196.944 483.109 198.808L683.378 238.263L1248.93 104.361V278.614H-0.0273438V152.296Z" fill="#15BC64"/>
<path d="M-0.0273438 191.488L133.836 252.354L120.385 240.825L89.6416 215.846L92.844 197.272L145.14 215.846H230.55L290.756 256.197L311.892 260.04L272.822 228.016L292.037 222.251L409.247 267.086L515.518 278.614H-0.0273438V191.488Z" fill="#32A042"/>
<path d="M111.418 212.003L193.068 252.354H161.479L111.418 212.003Z" fill="#15BC64"/>
<path d="M521.332 233.78L752.261 278.614H624.451L587.943 254.916L515.568 240.825L483.543 212.003L521.332 233.78Z" fill="#32A042"/>
<path d="M367.617 212.002L427.183 203.035L495.716 251.072L367.617 212.002Z" fill="#32A042"/>
<path d="M608.472 278.614L571.292 271.568L541.829 267.085L504.168 277.384L608.472 278.614Z" fill="#32A042"/>
<path d="M790.027 278.614L865.279 235.061L935.093 245.309L1058.71 198.553L958.791 252.354L945.981 267.085L875.527 251.073L842.317 278.614H790.027Z" fill="#32A042"/>
<path d="M954.16 278.613L968.398 258.118L1045.9 223.531L1113.79 179.978L1058.71 238.262V278.613H954.16Z" fill="#32A042"/>
<path d="M1190.65 146.673L1125.32 179.978L1076 235.061V278.614H1164.76L1145.81 235.061L1165.03 179.978L1221.39 127.458L1190.65 146.673Z" fill="#32A042"/>
<path d="M1221.39 147.954L1182.32 179.338L1167.59 191.508L1148.37 226.735L1125.32 235.061L1134.26 278.615H1239.32L1200.89 223.532L1221.39 147.954Z" fill="#32A042"/>
<path d="M1248.93 113.079L1211.14 225.453L1248.93 278.614V113.079Z" fill="#32A042"/>
<path d="M1149.02 195.99L1132.37 265.804L1123.4 235.06L1149.02 195.99Z" fill="#15BC64"/>
<path d="M1157.34 267.725L1149.66 233.779L1145.81 268.366L1157.34 267.725Z" fill="#15BC64"/>
<path d="M714.762 258.118L752.551 268.366L797.385 245.308L842.22 223.531L790.34 235.06L752.551 258.118H714.762Z" fill="#32A042"/>
<path d="M-17 141.868L341.362 209.735C353.845 212.098 366.187 215.16 378.324 218.9L634.374 288.541" stroke="black" stroke-width="3.20246" stroke-miterlimit="10"/>
<path d="M341.363 209.735L442.196 191.487L683.38 238.263L1253 98.1934" stroke="black" stroke-width="1.92148" stroke-miterlimit="10"/>
<path d="M560.207 268.366L855.871 195.85" stroke="black" stroke-width="4.48345" stroke-miterlimit="10"/>
<path d="M315.074 238.583L414.203 278.614H392.42L315.074 238.583Z" fill="#15BC64"/>
<path d="M293.242 102.465L359.745 96.0859L346.166 92.6913C333.292 89.476 320.053 90.6674 307.525 96.182L293.242 102.465Z" fill="white"/>
<path d="M359.745 96.0867L426.189 90.9307L394.933 88.3175C385.416 87.5233 375.847 89.0989 367.085 92.897L359.738 96.0867H359.745Z" fill="white"/>
<path d="M1018.01 278.614C1013.67 263.043 999.395 251.61 982.441 251.61C968.978 251.61 957.2 258.822 950.75 269.583C947.643 267.213 943.762 265.797 939.554 265.797C931.33 265.797 924.362 271.177 921.973 278.607H1018.01V278.614Z" fill="#025521"/>
<path d="M1023.33 278.615C1018.51 261.322 1002.65 248.627 983.819 248.627C968.864 248.627 955.785 256.633 948.618 268.591C945.166 265.959 940.862 264.389 936.186 264.389C927.053 264.389 919.316 270.365 916.664 278.615H1023.33H1023.33Z" stroke="black" stroke-width="1.92148" stroke-miterlimit="10"/>
<path d="M1150.55 278.614C1150.91 275.982 1151.1 273.298 1151.1 270.57C1151.1 238.225 1124.88 212.003 1092.53 212.003C1060.19 212.003 1033.96 238.225 1033.96 270.57C1033.96 273.298 1034.16 275.988 1034.52 278.614H1150.54H1150.55Z" fill="#042B11"/>
<path d="M241.731 278.614C235.102 253.545 212.269 235.061 185.112 235.061C157.955 235.061 135.121 253.545 128.492 278.614H241.731Z" fill="#025521"/>
<path d="M284.532 279.414C280.388 263.748 266.118 252.193 249.145 252.193C232.172 252.193 217.902 263.748 213.758 279.414" stroke="black" stroke-width="1.92148" stroke-miterlimit="10"/>
<path d="M278.285 278.614C274.871 265.708 263.118 256.196 249.142 256.196C235.167 256.196 223.414 265.708 220 278.614H278.285Z" fill="#025521"/>
<path d="M1248.93 278.614H-0.0273438V630.245H1248.93V278.614Z" fill="#90CC1B"/>
<path d="M727.937 279.415L-0.0273438 278.614V299.084H431.664L727.937 279.415Z" fill="#57B6FA"/>
<path d="M-0.0273438 299.084L491.678 295.101L-0.0273438 305.169V299.084Z" fill="#00C491"/>
<path d="M-0.0273438 290.463L442.527 288.542L-0.0273438 286.3V290.463Z" fill="#A9FFDC"/>
<path d="M76.5117 277.936L504.168 286.3L341.362 282.118L572.707 281.477L705.603 279.415L76.5117 277.936Z" fill="#A9FFDC"/>
<path d="M-0.0273438 305.168L401.132 298.629L727.937 278.773" stroke="black" stroke-width="1.92148" stroke-miterlimit="10"/>
<path d="M-0.0273438 278.614H1182.32" stroke="black" stroke-width="1.92148" stroke-miterlimit="10"/>
<path d="M-0.0273438 497.887L1253 464.479V387.498H-0.0273438V497.887Z" fill="#BAFF61"/>
<path d="M-0.0273438 339.48L1086.33 315.122L1248.93 327.304V351.284L1112.48 325.139L-0.0273438 358.676V339.48Z" fill="#BAFF61"/>
<path d="M-0.0273438 315.122L811.816 305.169L-0.0273438 325.14V315.122Z" fill="#BAFF61"/>
<path d="M1248.93 502.337L-0.0273438 560.436V630.243H1248.93V502.337Z" fill="#5AA816"/>
<path d="M252.89 528.484C270.365 528.484 284.531 514.318 284.531 496.843C284.531 479.369 270.365 465.203 252.89 465.203C235.416 465.203 221.25 479.369 221.25 496.843C221.25 514.318 235.416 528.484 252.89 528.484Z" fill="#90CC1B"/>
<path d="M994.96 414.743C1007.69 414.743 1018.02 404.42 1018.02 391.686C1018.02 378.951 1007.69 368.628 994.96 368.628C982.226 368.628 971.902 378.951 971.902 391.686C971.902 404.42 982.226 414.743 994.96 414.743Z" fill="#BAFF61"/>
<path d="M965.74 408.499C975.071 408.499 982.636 400.935 982.636 391.603C982.636 382.272 975.071 374.707 965.74 374.707C956.408 374.707 948.844 382.272 948.844 391.603C948.844 400.935 956.408 408.499 965.74 408.499Z" fill="#BAFF61"/>
<path d="M563.458 357.561C571.339 357.561 577.728 351.172 577.728 343.291C577.728 335.409 571.339 329.021 563.458 329.021C555.577 329.021 549.188 335.409 549.188 343.291C549.188 351.172 555.577 357.561 563.458 357.561Z" fill="#90CC1B"/>
<path d="M971.903 351.169C979.784 351.169 986.173 344.78 986.173 336.899C986.173 329.018 979.784 322.629 971.903 322.629C964.022 322.629 957.633 329.018 957.633 336.899C957.633 344.78 964.022 351.169 971.903 351.169Z" fill="#90CC1B"/>
<path d="M1221.39 369.474C1229.27 369.474 1235.66 363.085 1235.66 355.204C1235.66 347.323 1229.27 340.934 1221.39 340.934C1213.51 340.934 1207.12 347.323 1207.12 355.204C1207.12 363.085 1213.51 369.474 1221.39 369.474Z" fill="#90CC1B"/>
<path d="M545.369 353.699C551.146 353.699 555.829 349.016 555.829 343.24C555.829 337.463 551.146 332.78 545.369 332.78C539.593 332.78 534.91 337.463 534.91 343.24C534.91 349.016 539.593 353.699 545.369 353.699Z" fill="#90CC1B"/>
<path d="M924.37 373.772C929.036 373.772 932.818 372.218 932.818 370.301C932.818 368.383 929.036 366.829 924.37 366.829C919.704 366.829 915.922 368.383 915.922 370.301C915.922 372.218 919.704 373.772 924.37 373.772Z" fill="#BAFF61"/>
<path d="M1119.17 358.676C1121.5 358.676 1123.39 357.898 1123.39 356.94C1123.39 355.981 1121.5 355.204 1119.17 355.204C1116.84 355.204 1114.95 355.981 1114.95 356.94C1114.95 357.898 1116.84 358.676 1119.17 358.676Z" fill="#BAFF61"/>
<path d="M1049.03 397.758C1053.01 397.758 1056.24 394.529 1056.24 390.546C1056.24 386.563 1053.01 383.334 1049.03 383.334C1045.05 383.334 1041.82 386.563 1041.82 390.546C1041.82 394.529 1045.05 397.758 1049.03 397.758Z" fill="#BAFF61"/>
<path d="M292.871 507.924C301.608 507.924 308.691 500.841 308.691 492.103C308.691 483.366 301.608 476.283 292.871 476.283C284.134 476.283 277.051 483.366 277.051 492.103C277.051 500.841 284.134 507.924 292.871 507.924Z" fill="#90CC1B"/>
<path d="M127.238 513.708C135.975 513.708 143.058 506.625 143.058 497.888C143.058 489.15 135.975 482.067 127.238 482.067C118.501 482.067 111.418 489.15 111.418 497.888C111.418 506.625 118.501 513.708 127.238 513.708Z" fill="#90CC1B"/>
<path d="M452.807 528.483C467.222 528.483 478.907 516.798 478.907 502.383C478.907 487.969 467.222 476.283 452.807 476.283C438.392 476.283 426.707 487.969 426.707 502.383C426.707 516.798 438.392 528.483 452.807 528.483Z" fill="#90CC1B"/>
<path d="M495.714 472.159C499.555 472.159 502.669 470.602 502.669 468.681C502.669 466.76 499.555 465.203 495.714 465.203C491.872 465.203 488.758 466.76 488.758 468.681C488.758 470.602 491.872 472.159 495.714 472.159Z" fill="#90CC1B"/>
<path d="M206.799 485.545C210.641 485.545 213.755 483.988 213.755 482.067C213.755 480.146 210.641 478.589 206.799 478.589C202.958 478.589 199.844 480.146 199.844 482.067C199.844 483.988 202.958 485.545 206.799 485.545Z" fill="#90CC1B"/>
<path d="M318.552 465.202C320.473 465.202 322.03 464.422 322.03 463.46C322.03 462.498 320.473 461.718 318.552 461.718C316.631 461.718 315.074 462.498 315.074 463.46C315.074 464.422 316.631 465.202 318.552 465.202Z" fill="#90CC1B"/>
<path d="M933.594 539.629C950.425 526.658 949.656 497.441 931.876 474.371C914.097 451.3 886.04 443.113 869.209 456.084C852.378 469.055 853.147 498.272 870.927 521.342C888.706 544.412 916.763 552.6 933.594 539.629Z" fill="#5AA816"/>
<path d="M458.367 613.169C475.198 600.198 474.429 570.981 456.65 547.911C438.87 524.84 410.813 516.653 393.982 529.624C377.152 542.595 377.921 571.812 395.7 594.882C413.48 617.952 441.537 626.14 458.367 613.169Z" fill="#5AA816"/>
<path d="M953.525 531.438C968.451 528.509 977.296 509.547 973.282 489.085C969.267 468.622 953.913 454.408 938.987 457.336C924.061 460.265 915.215 479.227 919.23 499.689C923.245 520.152 938.599 534.366 953.525 531.438Z" fill="#5AA816"/>
<path d="M1056.32 569.879C1071.24 566.951 1080.09 547.989 1076.07 527.526C1072.06 507.064 1056.71 492.849 1041.78 495.778C1026.85 498.706 1018.01 517.668 1022.02 538.131C1026.04 558.593 1041.39 572.808 1056.32 569.879Z" fill="#5AA816"/>
<path d="M844.847 515.894C850.206 514.842 853.382 508.033 851.941 500.684C850.499 493.336 844.986 488.231 839.626 489.283C834.267 490.334 831.091 497.144 832.532 504.492C833.974 511.841 839.487 516.945 844.847 515.894Z" fill="#5AA816"/>
<path d="M968.218 547.359C982.983 547.359 994.953 540.482 994.953 532C994.953 523.517 982.983 516.641 968.218 516.641C953.453 516.641 941.484 523.517 941.484 532C941.484 540.482 953.453 547.359 968.218 547.359Z" fill="#ED3E4B"/>
<path d="M963.42 547.364C980.113 547.364 993.645 539.713 993.645 530.276C993.645 520.838 980.113 513.188 963.42 513.188C946.727 513.188 933.195 520.838 933.195 530.276C933.195 539.713 946.727 547.364 963.42 547.364Z" stroke="black" stroke-width="1.92148" stroke-miterlimit="10"/>
<path d="M1020.56 567.437C1030.21 567.437 1038.03 562.944 1038.03 557.401C1038.03 551.858 1030.21 547.364 1020.56 547.364C1010.91 547.364 1003.09 551.858 1003.09 557.401C1003.09 562.944 1010.91 567.437 1020.56 567.437Z" fill="#E81C35"/>
<path d="M1023.7 569.692C1034.6 569.692 1043.44 564.694 1043.44 558.528C1043.44 552.362 1034.6 547.364 1023.7 547.364C1012.79 547.364 1003.95 552.362 1003.95 558.528C1003.95 564.694 1012.79 569.692 1023.7 569.692Z" stroke="black" stroke-width="1.92148" stroke-miterlimit="10"/>
<path d="M936.366 560.227C941.817 560.227 946.236 557.726 946.236 554.642C946.236 551.557 941.817 549.057 936.366 549.057C930.915 549.057 926.496 551.557 926.496 554.642C926.496 557.726 930.915 560.227 936.366 560.227Z" fill="#ED3E4B"/>
<path d="M825.46 565.804C833.639 565.804 840.269 562.056 840.269 557.433C840.269 552.809 833.639 549.062 825.46 549.062C817.282 549.062 810.652 552.809 810.652 557.433C810.652 562.056 817.282 565.804 825.46 565.804Z" fill="#ED3E4B"/>
<path d="M185.113 584.391C193.291 584.391 199.921 580.643 199.921 576.02C199.921 571.396 193.291 567.648 185.113 567.648C176.935 567.648 170.305 571.396 170.305 576.02C170.305 580.643 176.935 584.391 185.113 584.391Z" fill="#ED3E4B"/>
<path d="M1160.69 535.861C1164.29 535.861 1167.21 534.209 1167.21 532.172C1167.21 530.134 1164.29 528.482 1160.69 528.482C1157.09 528.482 1154.17 530.134 1154.17 532.172C1154.17 534.209 1157.09 535.861 1160.69 535.861Z" fill="#D60F27"/>
<path d="M771.97 575.111C775.571 575.111 778.49 573.459 778.49 571.422C778.49 569.384 775.571 567.732 771.97 567.732C768.369 567.732 765.449 569.384 765.449 571.422C765.449 573.459 768.369 575.111 771.97 575.111Z" fill="#D60F27"/>
<path d="M452.805 569.494C456.406 569.494 459.326 567.842 459.326 565.804C459.326 563.767 456.406 562.115 452.805 562.115C449.204 562.115 446.285 563.767 446.285 565.804C446.285 567.842 449.204 569.494 452.805 569.494Z" fill="#1D1F20"/>
<path d="M153.754 575.111C157.355 575.111 160.275 573.459 160.275 571.422C160.275 569.384 157.355 567.732 153.754 567.732C150.153 567.732 147.234 569.384 147.234 571.422C147.234 573.459 150.153 575.111 153.754 575.111Z" fill="#D60F27"/>
<path d="M968.217 533.99C973.512 533.99 977.805 531.524 977.805 528.482C977.805 525.44 973.512 522.974 968.217 522.974C962.922 522.974 958.629 525.44 958.629 528.482C958.629 531.524 962.922 533.99 968.217 533.99Z" fill="#FFDE73"/>
<path d="M1045.65 631.607C1037.46 614.685 1017.27 602.708 993.64 602.708C970.006 602.708 949.799 614.679 941.613 631.607H1045.65Z" fill="#095B0C"/>
<path d="M1248.93 564.977C1236.13 560.142 1221.5 557.4 1205.94 557.4C1168.39 557.4 1136.15 573.4 1122.26 596.227C1116.81 594.78 1110.99 593.992 1104.95 593.992C1077.44 593.992 1054.56 610.222 1049.89 631.601H1248.93V564.977Z" fill="#095B0C"/>
<path d="M414.205 633.805C404.86 611.029 381.815 594.908 354.85 594.908C327.886 594.908 304.821 611.023 295.477 633.805H414.205Z" fill="#095B0C"/>
<path d="M319.862 634.445C313.713 616.211 298.552 603.305 280.804 603.305C263.056 603.305 247.883 616.204 241.734 634.445H319.855H319.862Z" fill="#095B0C"/>
<path d="M888.311 229.296L852.488 234.157" stroke="#060709" stroke-width="1.92148" stroke-miterlimit="10"/>
</g>
<defs>
<clipPath id="clip0_136_10239">
<rect width="1249" height="630" fill="white"/>
</clipPath>
</defs>
</svg>
