<svg width="844" height="626" viewBox="0 0 844 626" fill="none" xmlns="http://www.w3.org/2000/svg">
<g clip-path="url(#clip0_103_7813)">
<rect width="844" height="578" transform="translate(0 48)" fill="#C0DEF2"/>
<path d="M91.4179 346.438L1 383L-10.5 47H555.432C558.231 47 560.5 49.2692 560.5 52.0685C560.5 54.141 559.238 56.0047 557.314 56.7744L539.244 64.0024C538.425 64.3301 537.688 64.8344 537.086 65.4794L524.353 79.1217C524.118 79.3734 523.862 79.6045 523.587 79.8122L507.106 92.2844C506.064 93.0732 504.793 93.5 503.486 93.5H494.593C493.549 93.5 492.523 93.7725 491.617 94.2905L465.607 109.153C465.204 109.384 464.775 109.566 464.33 109.698L445.951 115.128C444.099 115.675 442.623 117.082 441.986 118.906L437.305 132.326C436.283 135.257 433.195 136.924 430.184 136.171L418.474 133.243C417.834 133.083 417.241 132.773 416.745 132.339C414.972 130.788 412.266 131.018 410.781 132.846L407.803 136.511C407.274 137.163 406.887 137.919 406.668 138.73L402.919 152.599C402.352 154.699 400.692 156.327 398.582 156.854L389.27 159.182C388.433 159.392 387.651 159.779 386.977 160.318L377.143 168.185C376.08 169.036 374.758 169.5 373.395 169.5H369.5C366.186 169.5 363.5 172.231 363.5 175.545C363.5 178.405 361.481 180.904 358.677 181.465L334.494 186.301C332.34 186.732 330.594 188.305 329.941 190.402L324.639 207.445C324.226 208.774 323.364 209.917 322.2 210.68L294.998 228.517C294.021 229.159 292.877 229.5 291.708 229.5H286.509C284.295 229.5 282.5 231.295 282.5 233.509C282.5 234.471 282.154 235.401 281.525 236.129L274.001 244.841C273.344 245.602 272.507 246.185 271.566 246.538L262.019 250.118C261.345 250.371 260.631 250.5 259.912 250.5H249.15C246.03 250.5 243.5 253.03 243.5 256.15C243.5 257.943 242.65 259.629 241.208 260.694L222.09 274.825C221.057 275.588 219.807 276 218.523 276H212.363C210.011 276 207.875 277.375 206.901 279.517L204.149 285.572C203.724 286.508 203.064 287.319 202.235 287.928L190.4 296.606C189.179 297.502 187.664 297.903 186.159 297.728L170.017 295.851C168.12 295.63 166.232 296.326 164.931 297.723L134.87 330.028C133.981 330.983 132.805 331.623 131.52 331.849L119.172 334.029C117.473 334.328 115.986 335.344 115.089 336.818L111.253 343.12C110.164 344.908 108.222 346 106.128 346H93.6672C92.8963 346 92.1326 346.149 91.4179 346.438Z" fill="#FFFEF8"/>
<path d="M363.5 613L341.5 625V634H844.5V228L830 241.5L825.5 259.5L818 279.5L803.5 298L795.5 303L786.5 311.5L780.5 332.5L758.5 347L747 355.5L744.5 364.5H736V374.5L709 400.5L645 436.5L616.5 449H603.5H592.5V455.5L578.5 463V474.5L556.5 479.5H544.5L535 474.5L531.5 466L526 463L522 471L513 482L508 503L513 508.5V516.5L482.5 550.5L439 568.5L436 573.5L431.5 577L415 581L396.5 568.5L383 592.5L363.5 602V613Z" fill="#E6F6D4"/>
<path d="M822.054 390.61L846.05 358.316C847.231 356.727 849.756 357.636 849.652 359.614L845.724 434.36C845.658 435.616 844.462 436.501 843.241 436.195L832.102 433.406C831.714 433.309 831.307 433.33 830.932 433.467L813.056 439.977C812.475 440.188 812.024 440.658 811.836 441.247L805.302 461.695C805.165 462.126 804.884 462.498 804.508 462.749L779.176 479.663C778.847 479.883 778.461 480 778.065 480H752.009C751.595 480 751.192 479.872 750.854 479.633L736.971 469.818C736.603 469.558 736.334 469.181 736.207 468.749L732.753 456.987C732.377 455.706 733.337 454.424 734.672 454.424H750.544C751.075 454.424 751.584 454.212 751.959 453.837L768.985 436.785L792.55 408.813C792.69 408.647 792.856 408.505 793.042 408.392L821.487 391.127C821.707 390.993 821.9 390.817 822.054 390.61Z" fill="black" fill-opacity="0.05"/>
<path d="M615.609 601.553L595.327 625.68C594.315 626.884 595.024 628.731 596.582 628.948L625.133 632.929C625.467 632.976 625.808 632.937 626.123 632.816L843.673 549.633C844.467 549.329 844.983 548.556 844.957 547.705L842.613 469.49C842.552 467.443 839.818 466.8 838.851 468.606L831.943 481.506L820.627 496.928C820.012 497.766 820.142 498.936 820.925 499.619L827.174 505.064C828.377 506.113 827.929 508.078 826.39 508.501L811.582 512.569C811.235 512.665 810.869 512.665 810.522 512.569L793.111 507.786C792.489 507.615 791.822 507.755 791.32 508.162L767.578 527.452C767.401 527.596 767.201 527.708 766.987 527.784L730.751 540.673L705.13 546.607C703.876 546.898 702.679 545.946 702.679 544.659V540.52C702.679 538.921 700.894 537.968 699.565 538.859L674.192 555.867C672.551 556.968 673.33 559.529 675.306 559.529H678.921C680.6 559.529 681.532 561.472 680.481 562.781L672.892 572.229C672.73 572.429 672.532 572.597 672.308 572.722L647.144 586.781C646.39 587.202 645.451 587.092 644.815 586.507L639.368 581.499C638.383 580.594 636.804 580.892 636.217 582.094L626.427 602.136C625.98 603.051 624.918 603.484 623.959 603.143L617.81 600.956C617.024 600.676 616.146 600.914 615.609 601.553Z" fill="black" fill-opacity="0.05"/>
<path d="M656.535 603.972L631 627H844V538H840.263L825.316 542.979H789.193L773 549.825H756.807L738.746 560.406H723.798L713.211 565.385L704.491 574.72L692.658 589.657H679.579L656.535 603.972Z" fill="#C0DEF2"/>
<path d="M388.159 616.033L376.247 627H342L355.897 604.07H364.335L398.086 593.602L418.436 579.644L436.8 545.249L529.615 505.371L537.06 487.426L551.951 477.954L559.892 479.45L578.256 473.468L580.738 464.994L589.176 463L602.081 466.489L610.022 477.954V498.392L613 501.881L602.081 514.343L589.176 518.331L585.205 527.304L589.176 535.778L595.132 555.717H592.154L580.738 553.723L578.256 545.249L561.877 542.757L542.024 555.717V572.666L537.06 577.152V568.678L526.141 567.182H514.725L504.302 577.152L493.879 570.672L481.967 572.666L467.077 579.644L455.661 582.137L439.282 579.644H429.355H418.436L398.086 593.602V596.593V604.07L388.159 616.033Z" fill="#FFFEF8"/>
<path fill-rule="evenodd" clip-rule="evenodd" d="M475 547.538L468.609 552.544L459.637 551.164L444.299 567.023L439.943 577.078L425.596 586.588L414.567 607.633L401.977 614.677H387.05L370.533 621.455H354.803L346.961 635H345L352.842 619.499H370.145L386.662 612.722H401.465L413.1 606.211L424.092 585.236L438.374 575.77L442.827 565.492L459.422 549.152L468.068 550.482L473.789 546L475 547.538Z" fill="#FAE3B2"/>
<path d="M459.66 551.016L459.583 551.004L459.529 551.06L444.192 566.919L444.173 566.939L444.162 566.964L439.823 576.977L425.514 586.463L425.481 586.484L425.464 586.518L414.455 607.524L401.938 614.527H387.05H387.02L386.993 614.539L370.503 621.305H354.803H354.716L354.673 621.38L346.874 634.85H345.244L352.934 619.649H370.145H370.175L370.202 619.638L386.692 612.872H401.465H401.504L401.538 612.853L413.173 606.342L413.212 606.321L413.232 606.281L424.207 585.34L438.457 575.895L438.494 575.87L438.512 575.829L442.953 565.578L459.473 549.311L468.045 550.63L468.109 550.64L468.16 550.6L473.764 546.21L474.789 547.513L468.568 552.386L459.66 551.016Z" stroke="black" stroke-opacity="0.3" stroke-width="0.3"/>
<path d="M17.0303 368H0V40L562 48.5195L529.642 72.374L512.612 68.1143L447.897 103.044L446.194 92.8208L430.867 75.7818L410.43 68.1143H393.4L386.588 75.7818V96.2286L372.964 111.564L353.379 105.6L338.903 111.564L309.952 116.675L303.991 128.603L314.209 154.161H309.952H281.852L240.979 161.829V177.164L209.473 184.831L204.364 208.686V215.501H195.848H180.521L172.006 229.984L180.521 249.579H166.045L135.391 260.655L116.658 257.247L110.697 269.174V286.213L107.291 299.844H97.0727L78.3394 289.621L74.0818 299.844V324.551H58.7545L38.3182 332.218L17.0303 327.958V368Z" fill="#E6F6D4"/>
<path d="M11.4319 238.659L-1.2916 238.178L-3.35958 389.081L44.9987 361.805L70.2584 343.661L85.2806 331.496L86.4487 300.616L94.1471 313.641L101.246 318.457L118.685 314.569L133.227 315.119L134.223 288.78L151.147 298.516L182.597 285.153L200.414 271.275L199.515 238.178L209 264.5L232.036 253.371L242.376 244.667L263 243.407L250 207.015L272.249 224.878L302.996 206.032L307.884 197.121L317.881 197.5L329.901 192.497L330.348 180.69L311 146.135L307 135.153L338.665 177.367L354.115 177.951L362.638 169.178L366.823 154.784L350.842 144.175L367.029 149.335L384.091 155.438L402.645 146.135L403.298 128.878L410.671 126.429L424.903 135.153L435.45 120.999L477 94.5L490 70.5L464.538 49.3404L456.805 37.2241L327.238 22.3156L309.249 40.735L298.255 66.6953L256.087 98.7525L216.989 121.831L199.515 126.627L181.217 153.22L180.53 171.385L172.984 178.375L165.423 161.718L156.678 152.292L139.205 157.088L143.386 190.899L123.049 199.224L106.331 184.04L93.6915 205.39L90.3311 197.987L75.515 204.703L71.9296 227.305L64.5061 207.015L44.7181 200.809L31.9946 200.328L31.3418 217.584L17.1254 232.508L16.7131 243.407L11.4319 238.659Z" fill="black" fill-opacity="0.05"/>
<path d="M135.714 62.6382L143.685 40H224V49.7895L222.161 66.9211L215.417 87.1118H206.22L187.214 107.303L154.107 133L125.292 120.151L121 84.0526V62.6382H135.714Z" fill="black" fill-opacity="0.05"/>
<path d="M840.44 314L858 320.313L855.19 352.582L846.762 361H836.226L818.667 358.896L799 338.552V320.313V314H815.857H840.44Z" fill="#FFFEF8"/>
<rect width="844" height="24" fill="#75797B"/>
<path d="M378.178 8.27273V17H376.354V9.77273H372.825V17H371.001V8.27273H378.178ZM379.517 17L379.508 15.5597H379.725C379.879 15.5597 380.011 15.5227 380.122 15.4489C380.235 15.3722 380.329 15.2486 380.403 15.0781C380.477 14.9077 380.535 14.6818 380.578 14.4006C380.62 14.1165 380.649 13.767 380.663 13.3523L380.77 10.4545H385.747V17H384.017V11.8821H382.402L382.299 13.8807C382.274 14.429 382.207 14.9006 382.099 15.2955C381.994 15.6903 381.848 16.0142 381.66 16.267C381.473 16.517 381.247 16.7017 380.983 16.821C380.718 16.9403 380.412 17 380.062 17H379.517ZM389.021 17.1236C388.603 17.1236 388.231 17.0511 387.904 16.9062C387.577 16.7585 387.319 16.5412 387.129 16.2543C386.941 15.9645 386.847 15.6037 386.847 15.1719C386.847 14.8082 386.914 14.5028 387.048 14.2557C387.181 14.0085 387.363 13.8097 387.593 13.6591C387.823 13.5085 388.085 13.3949 388.377 13.3182C388.673 13.2415 388.982 13.1875 389.306 13.1562C389.687 13.1165 389.994 13.0795 390.227 13.0455C390.46 13.0085 390.629 12.9545 390.734 12.8835C390.839 12.8125 390.891 12.7074 390.891 12.5682V12.5426C390.891 12.2727 390.806 12.0639 390.636 11.9162C390.468 11.7685 390.229 11.6946 389.92 11.6946C389.593 11.6946 389.333 11.767 389.14 11.9119C388.947 12.054 388.819 12.233 388.756 12.4489L387.077 12.3125C387.163 11.9148 387.33 11.571 387.58 11.2812C387.83 10.9886 388.153 10.7642 388.548 10.608C388.945 10.4489 389.406 10.3693 389.928 10.3693C390.292 10.3693 390.64 10.4119 390.972 10.4972C391.308 10.5824 391.604 10.7145 391.863 10.8935C392.124 11.0724 392.33 11.3026 392.481 11.5838C392.631 11.8622 392.707 12.196 392.707 12.5852V17H390.985V16.0923H390.934C390.829 16.2969 390.688 16.4773 390.512 16.6335C390.336 16.7869 390.124 16.9077 389.877 16.9957C389.63 17.081 389.344 17.1236 389.021 17.1236ZM389.54 15.8707C389.808 15.8707 390.043 15.8182 390.248 15.7131C390.452 15.6051 390.613 15.4602 390.729 15.2784C390.846 15.0966 390.904 14.8906 390.904 14.6605V13.9659C390.847 14.0028 390.769 14.0369 390.67 14.0682C390.573 14.0966 390.464 14.1236 390.342 14.1491C390.219 14.1719 390.097 14.1932 389.975 14.2131C389.853 14.2301 389.742 14.2457 389.643 14.2599C389.43 14.2912 389.244 14.3409 389.085 14.4091C388.925 14.4773 388.802 14.5696 388.714 14.6861C388.626 14.7997 388.582 14.9418 388.582 15.1122C388.582 15.3594 388.671 15.5483 388.85 15.679C389.032 15.8068 389.262 15.8707 389.54 15.8707ZM398.67 13.0028V14.4304H395.253V13.0028H398.67ZM395.849 10.4545V17H394.115V10.4545H395.849ZM399.808 10.4545V17H398.087V10.4545H399.808ZM402.951 14.6051L405.308 10.4545H407.097V17H405.367V12.8366L403.019 17H401.217V10.4545H402.951V14.6051ZM408.553 19.4545V10.4545H410.342V11.554H410.423C410.503 11.3778 410.618 11.1989 410.768 11.017C410.922 10.8324 411.121 10.679 411.365 10.5568C411.612 10.4318 411.919 10.3693 412.286 10.3693C412.763 10.3693 413.203 10.4943 413.607 10.7443C414.01 10.9915 414.332 11.3651 414.574 11.8651C414.815 12.3622 414.936 12.9858 414.936 13.7358C414.936 14.4659 414.818 15.0824 414.582 15.5852C414.349 16.0852 414.031 16.4645 413.628 16.723C413.227 16.9787 412.778 17.1065 412.281 17.1065C411.929 17.1065 411.629 17.0483 411.382 16.9318C411.138 16.8153 410.938 16.669 410.781 16.4929C410.625 16.3139 410.506 16.1335 410.423 15.9517H410.368V19.4545H408.553ZM410.33 13.7273C410.33 14.1165 410.384 14.456 410.491 14.7457C410.599 15.0355 410.756 15.2614 410.96 15.4233C411.165 15.5824 411.413 15.6619 411.706 15.6619C412.001 15.6619 412.251 15.581 412.456 15.419C412.661 15.2543 412.815 15.027 412.92 14.7372C413.028 14.4446 413.082 14.108 413.082 13.7273C413.082 13.3494 413.03 13.017 412.925 12.7301C412.82 12.4432 412.665 12.2187 412.46 12.0568C412.256 11.8949 412.004 11.8139 411.706 11.8139C411.411 11.8139 411.161 11.892 410.956 12.0483C410.754 12.2045 410.599 12.4261 410.491 12.7131C410.384 13 410.33 13.3381 410.33 13.7273ZM419.104 17.1278C418.442 17.1278 417.869 16.9872 417.386 16.706C416.906 16.4219 416.536 16.027 416.274 15.5213C416.013 15.0128 415.882 14.4233 415.882 13.7528C415.882 13.0767 416.013 12.4858 416.274 11.9801C416.536 11.4716 416.906 11.0767 417.386 10.7955C417.869 10.5114 418.442 10.3693 419.104 10.3693C419.766 10.3693 420.337 10.5114 420.817 10.7955C421.3 11.0767 421.672 11.4716 421.933 11.9801C422.195 12.4858 422.325 13.0767 422.325 13.7528C422.325 14.4233 422.195 15.0128 421.933 15.5213C421.672 16.027 421.3 16.4219 420.817 16.706C420.337 16.9872 419.766 17.1278 419.104 17.1278ZM419.112 15.7216C419.413 15.7216 419.665 15.6364 419.866 15.4659C420.068 15.2926 420.22 15.0568 420.322 14.7585C420.428 14.4602 420.48 14.1207 420.48 13.7401C420.48 13.3594 420.428 13.0199 420.322 12.7216C420.22 12.4233 420.068 12.1875 419.866 12.0142C419.665 11.8409 419.413 11.7543 419.112 11.7543C418.808 11.7543 418.553 11.8409 418.345 12.0142C418.141 12.1875 417.986 12.4233 417.881 12.7216C417.778 13.0199 417.727 13.3594 417.727 13.7401C417.727 14.1207 417.778 14.4602 417.881 14.7585C417.986 15.0568 418.141 15.2926 418.345 15.4659C418.553 15.6364 418.808 15.7216 419.112 15.7216ZM423.506 17V10.4545H426.297C427.104 10.4545 427.741 10.608 428.21 10.9148C428.679 11.2216 428.913 11.6577 428.913 12.223C428.913 12.5781 428.781 12.8736 428.517 13.1094C428.253 13.3452 427.886 13.5043 427.418 13.5866C427.81 13.6151 428.143 13.7045 428.419 13.8551C428.697 14.0028 428.909 14.1946 429.054 14.4304C429.202 14.6662 429.276 14.9276 429.276 15.2145C429.276 15.5866 429.176 15.9062 428.977 16.1733C428.781 16.4403 428.493 16.6449 428.112 16.7869C427.734 16.929 427.273 17 426.727 17H423.506ZM425.197 15.6406H426.727C426.98 15.6406 427.178 15.581 427.32 15.4616C427.464 15.3395 427.537 15.1733 427.537 14.9631C427.537 14.7301 427.464 14.5469 427.32 14.4134C427.178 14.2798 426.98 14.2131 426.727 14.2131H425.197V15.6406ZM425.197 13.1477H426.335C426.517 13.1477 426.672 13.1222 426.8 13.071C426.93 13.017 427.03 12.9403 427.098 12.8409C427.169 12.7415 427.205 12.6236 427.205 12.4872C427.205 12.2855 427.124 12.1278 426.962 12.0142C426.8 11.9006 426.578 11.8438 426.297 11.8438H425.197V13.1477ZM440.702 15.5724L440.575 18.875H438.908V17H438.18V15.5724H440.702ZM430.42 10.4545H432.154V15.5597H433.999V10.4545H435.734V15.5597H437.579V10.4545H439.313V17H430.42V10.4545ZM443.521 14.6051L445.878 10.4545H447.668V17H445.938V12.8366L443.589 17H441.787V10.4545H443.521V14.6051ZM449.123 17V10.4545H450.938V12.9943H451.45L453.231 10.4545H455.362L453.048 13.7017L455.387 17H453.231L451.616 14.6776H450.938V17H449.123ZM458.914 17V15.6705L462.021 12.794C462.285 12.5384 462.507 12.3082 462.686 12.1037C462.868 11.8991 463.005 11.6989 463.099 11.5028C463.193 11.304 463.24 11.0895 463.24 10.8594C463.24 10.6037 463.181 10.3835 463.065 10.1989C462.949 10.0114 462.789 9.8679 462.588 9.76847C462.386 9.66619 462.157 9.61506 461.902 9.61506C461.635 9.61506 461.402 9.66903 461.203 9.77699C461.004 9.88494 460.85 10.0398 460.743 10.2415C460.635 10.4432 460.581 10.6832 460.581 10.9616H458.829C458.829 10.3906 458.958 9.89489 459.217 9.47443C459.475 9.05398 459.838 8.72869 460.304 8.49858C460.77 8.26847 461.306 8.15341 461.914 8.15341C462.539 8.15341 463.083 8.2642 463.547 8.4858C464.012 8.70455 464.375 9.00852 464.633 9.39773C464.892 9.78693 465.021 10.233 465.021 10.7358C465.021 11.0653 464.956 11.3906 464.825 11.7116C464.697 12.0327 464.468 12.3892 464.139 12.7812C463.809 13.1705 463.345 13.6378 462.745 14.1832L461.471 15.4318V15.4915H465.136V17H458.914ZM467.551 17.1108C467.27 17.1108 467.028 17.0114 466.827 16.8125C466.628 16.6108 466.528 16.3693 466.528 16.0881C466.528 15.8097 466.628 15.571 466.827 15.3722C467.028 15.1733 467.27 15.0739 467.551 15.0739C467.824 15.0739 468.063 15.1733 468.267 15.3722C468.472 15.571 468.574 15.8097 468.574 16.0881C468.574 16.2756 468.526 16.4474 468.429 16.6037C468.335 16.7571 468.212 16.8807 468.058 16.9744C467.905 17.0653 467.736 17.1108 467.551 17.1108ZM472.754 8.27273V17H470.909V10.0241H470.858L468.859 11.277V9.64062L471.02 8.27273H472.754Z" fill="white"/>
<rect x="776.5" y="16.5" width="11" height="1" rx="0.5" stroke="white"/>
<rect x="798.7" y="6.7" width="10.6" height="10.6" rx="1.3" stroke="white" stroke-width="1.4"/>
<path fill-rule="evenodd" clip-rule="evenodd" d="M824.965 11.9544L819.93 16.9901L820.92 17.9801L825.955 12.9443L830.991 17.9801L831.981 16.9901L826.945 11.9544L831.981 6.91866L830.991 5.92871L825.955 10.9644L820.92 5.92871L819.93 6.91866L824.965 11.9544Z" fill="white"/>
<path d="M810 437C810 434.791 811.791 433 814 433H842V578H814C811.791 578 810 576.209 810 574V437Z" fill="#75797B"/>
<path fill-rule="evenodd" clip-rule="evenodd" d="M832.333 443C831.413 443 830.667 443.746 830.667 444.667V452.004C830.596 451.909 830.515 451.819 830.422 451.735L821.37 443.528C820.126 442.4 818 443.199 818 444.793V461.207C818 462.801 820.126 463.6 821.37 462.472L830.422 454.265C830.515 454.181 830.596 454.091 830.667 453.996V461.333C830.667 462.254 831.413 463 832.333 463C833.254 463 834 462.254 834 461.333V444.667C834 443.746 833.254 443 832.333 443Z" fill="#F1F5F6"/>
<path fill-rule="evenodd" clip-rule="evenodd" d="M819.667 495C820.587 495 821.333 494.254 821.333 493.333V485.996C821.404 486.091 821.485 486.181 821.578 486.265L830.63 494.472C831.874 495.6 834 494.801 834 493.207V476.793C834 475.199 831.874 474.4 830.63 475.528L821.578 483.735C821.485 483.819 821.404 483.909 821.333 484.004V476.667C821.333 475.746 820.587 475 819.667 475C818.746 475 818 475.746 818 476.667V493.333C818 494.254 818.746 495 819.667 495Z" fill="#F1F5F6"/>
<rect x="814" y="506" width="1" height="24" transform="rotate(-90 814 506)" fill="#A2ACB1"/>
<rect x="817" y="517" width="18" height="18" rx="3" fill="#F1F5F6"/>
<path fill-rule="evenodd" clip-rule="evenodd" d="M822 568C823.105 568 824 567.105 824 566V550C824 548.895 823.105 548 822 548C820.895 548 820 548.895 820 550V566C820 567.105 820.895 568 822 568ZM830 568C831.105 568 832 567.105 832 566V550C832 548.895 831.105 548 830 548C828.895 548 828 548.895 828 550V566C828 567.105 828.895 568 830 568Z" fill="#F1F5F6"/>
<g filter="url(#filter0_d_103_7813)">
<path d="M261 48H584V76C584 78.2091 582.209 80 580 80H265C262.791 80 261 78.2091 261 76V48Z" fill="#75797B"/>
<path d="M285.862 56.4867L287.549 54.7992C288.281 54.0669 289.469 54.0669 290.201 54.7992C290.933 55.5314 290.933 56.7186 290.201 57.4508L275.832 71.8195C275.304 72.3481 274.651 72.7368 273.935 72.9502L271.25 73.75L272.05 71.0651C272.263 70.3486 272.652 69.6965 273.181 69.1678L285.862 56.4867ZM285.862 56.4867L288.5 59.125" stroke="#4EDFFF" stroke-width="1.5" stroke-linecap="round" stroke-linejoin="round"/>
<rect x="301" y="52" width="1" height="24" fill="#A2ACB1"/>
<path d="M331 73L325.803 67.8033M325.803 67.8033C327.161 66.4461 328 64.5711 328 62.5C328 58.3579 324.642 55 320.5 55C316.358 55 313 58.3579 313 62.5C313 66.6421 316.358 70 320.5 70C322.571 70 324.446 69.1605 325.803 67.8033ZM320.5 59.5V65.5M323.5 62.5H317.5" stroke="#F1F5F6" stroke-width="1.5" stroke-linecap="round" stroke-linejoin="round"/>
<path d="M363 73L357.803 67.8033M357.803 67.8033C359.161 66.4461 360 64.5711 360 62.5C360 58.3579 356.642 55 352.5 55C348.358 55 345 58.3579 345 62.5C345 66.6421 348.358 70 352.5 70C354.571 70 356.446 69.1605 357.803 67.8033ZM355.5 62.5H349.5" stroke="#F1F5F6" stroke-width="1.5" stroke-linecap="round" stroke-linejoin="round"/>
<path fill-rule="evenodd" clip-rule="evenodd" d="M389 55.75C389 55.3358 389.336 55 389.75 55L394.25 55C394.664 55 395 55.3358 395 55.75V60.25C395 60.6642 394.664 61 394.25 61C393.836 61 393.5 60.6642 393.5 60.25V57.5607L389.53 61.5303C389.237 61.8232 388.763 61.8232 388.47 61.5303C388.177 61.2374 388.177 60.7626 388.47 60.4697L392.439 56.5H389.75C389.336 56.5 389 56.1642 389 55.75ZM377 55.75C377 55.3358 377.336 55 377.75 55H382.25C382.664 55 383 55.3358 383 55.75C383 56.1642 382.664 56.5 382.25 56.5H379.561L383.53 60.4697C383.823 60.7626 383.823 61.2374 383.53 61.5303C383.237 61.8232 382.763 61.8232 382.47 61.5303L378.5 57.5607V60.25C378.5 60.6642 378.164 61 377.75 61C377.336 61 377 60.6642 377 60.25V55.75ZM388.47 67.5303C388.177 67.2374 388.177 66.7626 388.47 66.4697C388.763 66.1768 389.237 66.1768 389.53 66.4697L393.5 70.4393V67.75C393.5 67.3358 393.836 67 394.25 67C394.664 67 395 67.3358 395 67.75V72.25C395 72.6642 394.664 73 394.25 73H389.75C389.336 73 389 72.6642 389 72.25C389 71.8358 389.336 71.5 389.75 71.5H392.439L388.47 67.5303ZM383.53 66.4697C383.823 66.7626 383.823 67.2374 383.53 67.5303L379.561 71.5H382.25C382.664 71.5 383 71.8358 383 72.25C383 72.6642 382.664 73 382.25 73H377.75C377.336 73 377 72.6642 377 72.25V67.75C377 67.3358 377.336 67 377.75 67C378.164 67 378.5 67.3358 378.5 67.75V70.4393L382.47 66.4697C382.763 66.1768 383.237 66.1768 383.53 66.4697Z" fill="#F1F5F6"/>
<rect x="406" y="52" width="1" height="24" fill="#A2ACB1"/>
<path fill-rule="evenodd" clip-rule="evenodd" d="M416.5 58C416.5 56.7574 417.507 55.75 418.75 55.75H435.25C436.493 55.75 437.5 56.7574 437.5 58V70C437.5 71.2426 436.493 72.25 435.25 72.25H418.75C417.507 72.25 416.5 71.2426 416.5 70V58ZM418 68.0607V70C418 70.4142 418.336 70.75 418.75 70.75H435.25C435.664 70.75 436 70.4142 436 70V68.0607L433.311 65.3713C432.725 64.7855 431.775 64.7855 431.189 65.3713L430.311 66.25L431.28 67.2197C431.573 67.5126 431.573 67.9874 431.28 68.2803C430.987 68.5732 430.513 68.5732 430.22 68.2803L425.061 63.1213C424.475 62.5355 423.525 62.5355 422.939 63.1213L418 68.0607ZM428.125 60.25C428.125 59.6287 428.629 59.125 429.25 59.125C429.871 59.125 430.375 59.6287 430.375 60.25C430.375 60.8713 429.871 61.375 429.25 61.375C428.629 61.375 428.125 60.8713 428.125 60.25Z" fill="#F1F5F6"/>
<path fill-rule="evenodd" clip-rule="evenodd" d="M462.219 58.2676C462.368 57.8809 462.802 57.6877 463.188 57.8361L469.13 60.1168C469.315 60.1881 469.465 60.3302 469.546 60.5119C469.627 60.6936 469.632 60.9 469.561 61.0858L467.28 67.027C467.132 67.4137 466.698 67.6069 466.311 67.4584C465.925 67.31 465.732 66.8762 465.88 66.4895L467.512 62.2386L466.425 62.7223C463.972 63.8146 462.104 65.6754 460.975 67.8959C460.866 68.11 460.661 68.2591 460.424 68.2968C460.187 68.3345 459.946 68.2563 459.776 68.0864L456 64.3103L449.78 70.53C449.487 70.8229 449.013 70.8229 448.72 70.53C448.427 70.2371 448.427 69.7622 448.72 69.4693L455.47 62.7193C455.61 62.5787 455.801 62.4996 456 62.4996C456.199 62.4996 456.39 62.5787 456.53 62.7193L460.136 66.3253C461.437 64.2042 463.371 62.4402 465.815 61.352L466.902 60.8683L462.651 59.2365C462.264 59.0881 462.071 58.6543 462.219 58.2676Z" fill="#F1F5F6"/>
<path fill-rule="evenodd" clip-rule="evenodd" d="M487.161 54.5808C487.689 54.3168 488.311 54.3168 488.839 54.5808L493.832 57.0776C493.938 57.1304 494.062 57.1304 494.168 57.0776L498.036 55.1433C499.283 54.5199 500.75 55.4265 500.75 56.8203V69.3047C500.75 70.0149 500.349 70.6642 499.714 70.9818L494.839 73.4193C494.311 73.6832 493.689 73.6832 493.161 73.4193L488.168 70.9224C488.062 70.8696 487.938 70.8696 487.832 70.9224L483.964 72.8568C482.717 73.4801 481.25 72.5736 481.25 71.1797V58.6953C481.25 57.9851 481.651 57.3359 482.286 57.0183L487.161 54.5808ZM488 58C488.414 58 488.75 58.3358 488.75 58.75V67C488.75 67.4142 488.414 67.75 488 67.75C487.586 67.75 487.25 67.4142 487.25 67V58.75C487.25 58.3358 487.586 58 488 58ZM494.75 61C494.75 60.5858 494.414 60.25 494 60.25C493.586 60.25 493.25 60.5858 493.25 61V69.25C493.25 69.6642 493.586 70 494 70C494.414 70 494.75 69.6642 494.75 69.25V61Z" fill="#F1F5F6"/>
<rect x="511" y="52" width="1" height="24" fill="#A2ACB1"/>
<path fill-rule="evenodd" clip-rule="evenodd" d="M525.625 53.5H529C531.071 53.5 532.75 55.1789 532.75 57.25V59.125C532.75 60.1605 533.589 61 534.625 61H536.5C538.571 61 540.25 62.6789 540.25 64.75V72.625C540.25 73.6605 539.411 74.5 538.375 74.5H525.625C524.589 74.5 523.75 73.6605 523.75 72.625V55.375C523.75 54.3395 524.589 53.5 525.625 53.5ZM532.53 63.4697C532.39 63.329 532.199 63.25 532 63.25C531.801 63.25 531.61 63.329 531.47 63.4697L528.47 66.4697C528.177 66.7626 528.177 67.2374 528.47 67.5303C528.763 67.8232 529.237 67.8232 529.53 67.5303L531.25 65.8107L531.25 70C531.25 70.4142 531.586 70.75 532 70.75C532.414 70.75 532.75 70.4142 532.75 70L532.75 65.8107L534.47 67.5303C534.763 67.8232 535.237 67.8232 535.53 67.5303C535.823 67.2374 535.823 66.7626 535.53 66.4697L532.53 63.4697Z" fill="#F1F5F6"/>
<path d="M534.25 57.25C534.25 55.9369 533.768 54.7365 532.971 53.8159C536.37 54.7038 539.046 57.3799 539.934 60.7788C539.014 59.982 537.813 59.5 536.5 59.5H534.625C534.418 59.5 534.25 59.3321 534.25 59.125V57.25Z" fill="#F1F5F6"/>
<path fill-rule="evenodd" clip-rule="evenodd" d="M559.875 53.5C558.839 53.5 558 54.3395 558 55.375V58.3656C557.574 58.418 557.149 58.4758 556.726 58.5391C555.272 58.7567 554.25 60.0216 554.25 61.4557V67.75C554.25 69.4069 555.593 70.75 557.25 70.75H557.52L557.365 72.4552C557.265 73.5533 558.129 74.5 559.232 74.5H568.768C569.871 74.5 570.735 73.5533 570.635 72.4552L570.48 70.75H570.75C572.407 70.75 573.75 69.4069 573.75 67.75V61.4557C573.75 60.0216 572.728 58.7567 571.274 58.5391C570.851 58.4758 570.426 58.418 570 58.3656V55.375C570 54.3395 569.161 53.5 568.125 53.5H559.875ZM568.5 58.205V55.375C568.5 55.1679 568.332 55 568.125 55H559.875C559.668 55 559.5 55.1679 559.5 55.375V58.205C560.982 58.0693 562.483 58 564 58C565.517 58 567.018 58.0693 568.5 58.205ZM568.283 66.4696C568.461 66.4879 568.6 66.6298 568.616 66.8073L569.142 72.591C569.162 72.8107 568.989 73 568.768 73H559.232C559.011 73 558.838 72.8107 558.858 72.591L559.384 66.8073C559.4 66.6298 559.539 66.4879 559.717 66.4696C561.124 66.3244 562.553 66.25 564 66.25C565.447 66.25 566.876 66.3244 568.283 66.4696ZM569.25 62.5C569.25 62.0858 569.586 61.75 570 61.75H570.008C570.422 61.75 570.758 62.0858 570.758 62.5V62.5075C570.758 62.9217 570.422 63.2575 570.008 63.2575H570C569.586 63.2575 569.25 62.9217 569.25 62.5075V62.5ZM567 61.75C566.586 61.75 566.25 62.0858 566.25 62.5V62.5075C566.25 62.9217 566.586 63.2575 567 63.2575H567.008C567.422 63.2575 567.758 62.9217 567.758 62.5075V62.5C567.758 62.0858 567.422 61.75 567.008 61.75H567Z" fill="#F1F5F6"/>
</g>
<g filter="url(#filter1_d_103_7813)">
<rect width="844" height="24" transform="translate(0 24)" fill="white"/>
<path d="M21.0568 31.7727H22.3182L25.2841 39.017H25.3864L28.3523 31.7727H29.6136V40.5H28.625V33.8693H28.5398L25.8125 40.5H24.858L22.1307 33.8693H22.0455V40.5H21.0568V31.7727ZM33.5224 40.6534C33.1076 40.6534 32.7312 40.5753 32.3931 40.419C32.055 40.2599 31.7866 40.0312 31.5877 39.733C31.3888 39.4318 31.2894 39.0682 31.2894 38.642C31.2894 38.267 31.3633 37.9631 31.511 37.7301C31.6587 37.4943 31.8562 37.3097 32.1033 37.1761C32.3505 37.0426 32.6232 36.9432 32.9215 36.8778C33.2227 36.8097 33.5252 36.7557 33.8292 36.7159C34.2269 36.6648 34.5494 36.6264 34.7965 36.6009C35.0465 36.5724 35.2283 36.5256 35.342 36.4602C35.4585 36.3949 35.5167 36.2812 35.5167 36.1193V36.0852C35.5167 35.6648 35.4016 35.3381 35.1715 35.1051C34.9442 34.8722 34.5991 34.7557 34.136 34.7557C33.6559 34.7557 33.2795 34.8608 33.0067 35.071C32.734 35.2812 32.5423 35.5057 32.4315 35.7443L31.4769 35.4034C31.6474 35.0057 31.8746 34.696 32.1587 34.4744C32.4457 34.25 32.7582 34.0937 33.0962 34.0057C33.4371 33.9148 33.7724 33.8693 34.1019 33.8693C34.3121 33.8693 34.5536 33.8949 34.8263 33.946C35.1019 33.9943 35.3675 34.0952 35.6232 34.2486C35.8817 34.402 36.0962 34.6335 36.2667 34.9432C36.4371 35.2528 36.5224 35.6676 36.5224 36.1875V40.5H35.5167V39.6136H35.4656C35.3974 39.7557 35.2837 39.9077 35.1246 40.0696C34.9656 40.2315 34.7539 40.3693 34.4897 40.483C34.2255 40.5966 33.9031 40.6534 33.5224 40.6534ZM33.6758 39.75C34.0735 39.75 34.4087 39.6719 34.6815 39.5156C34.957 39.3594 35.1644 39.1577 35.3036 38.9105C35.4457 38.6634 35.5167 38.4034 35.5167 38.1307V37.2102C35.4741 37.2614 35.3803 37.3082 35.2354 37.3509C35.0934 37.3906 34.9286 37.4261 34.7411 37.4574C34.5565 37.4858 34.3761 37.5114 34.1999 37.5341C34.0266 37.554 33.886 37.571 33.7781 37.5852C33.5167 37.6193 33.2724 37.6747 33.0451 37.7514C32.8207 37.8253 32.6388 37.9375 32.4996 38.0881C32.3633 38.2358 32.2951 38.4375 32.2951 38.6932C32.2951 39.0426 32.4244 39.3068 32.6829 39.4858C32.9442 39.6619 33.2752 39.75 33.6758 39.75ZM38.358 42.9545V33.9545H39.3295V34.9943H39.4489C39.5227 34.8807 39.625 34.7358 39.7557 34.5597C39.8892 34.3807 40.0795 34.2216 40.3267 34.0824C40.5767 33.9403 40.9148 33.8693 41.3409 33.8693C41.892 33.8693 42.3778 34.0071 42.7983 34.2827C43.2188 34.5582 43.5469 34.9489 43.7827 35.4545C44.0185 35.9602 44.1364 36.5568 44.1364 37.2443C44.1364 37.9375 44.0185 38.5384 43.7827 39.0469C43.5469 39.5526 43.2202 39.9446 42.8026 40.223C42.3849 40.4986 41.9034 40.6364 41.358 40.6364C40.9375 40.6364 40.6009 40.5668 40.348 40.4276C40.0952 40.2855 39.9006 40.125 39.7642 39.946C39.6278 39.7642 39.5227 39.6136 39.4489 39.4943H39.3636V42.9545H38.358ZM39.3466 37.2273C39.3466 37.7216 39.419 38.1577 39.5639 38.5355C39.7088 38.9105 39.9205 39.2045 40.1989 39.4176C40.4773 39.6278 40.8182 39.733 41.2216 39.733C41.642 39.733 41.9929 39.6222 42.2741 39.4006C42.5582 39.1761 42.7713 38.875 42.9134 38.4972C43.0582 38.1165 43.1307 37.6932 43.1307 37.2273C43.1307 36.767 43.0597 36.3523 42.9176 35.983C42.7784 35.6108 42.5668 35.3168 42.2827 35.1009C42.0014 34.8821 41.6477 34.7727 41.2216 34.7727C40.8125 34.7727 40.4688 34.8764 40.1903 35.0838C39.9119 35.2884 39.7017 35.5753 39.5597 35.9446C39.4176 36.3111 39.3466 36.7386 39.3466 37.2273ZM45.6705 33.9545H46.6761V39.5625H49.1477V33.9545H50.1534V39.5625H52.625V33.9545H53.6307V40.5H45.6705V33.9545ZM55.4673 42.9545V33.9545H56.4389V34.9943H56.5582C56.6321 34.8807 56.7344 34.7358 56.8651 34.5597C56.9986 34.3807 57.1889 34.2216 57.4361 34.0824C57.6861 33.9403 58.0241 33.8693 58.4503 33.8693C59.0014 33.8693 59.4872 34.0071 59.9077 34.2827C60.3281 34.5582 60.6563 34.9489 60.892 35.4545C61.1278 35.9602 61.2457 36.5568 61.2457 37.2443C61.2457 37.9375 61.1278 38.5384 60.892 39.0469C60.6563 39.5526 60.3295 39.9446 59.9119 40.223C59.4943 40.4986 59.0128 40.6364 58.4673 40.6364C58.0469 40.6364 57.7102 40.5668 57.4574 40.4276C57.2045 40.2855 57.0099 40.125 56.8736 39.946C56.7372 39.7642 56.6321 39.6136 56.5582 39.4943H56.473V42.9545H55.4673ZM56.456 37.2273C56.456 37.7216 56.5284 38.1577 56.6733 38.5355C56.8182 38.9105 57.0298 39.2045 57.3082 39.4176C57.5866 39.6278 57.9276 39.733 58.331 39.733C58.7514 39.733 59.1023 39.6222 59.3835 39.4006C59.6676 39.1761 59.8807 38.875 60.0227 38.4972C60.1676 38.1165 60.2401 37.6932 60.2401 37.2273C60.2401 36.767 60.169 36.3523 60.027 35.983C59.8878 35.6108 59.6761 35.3168 59.392 35.1009C59.1108 34.8821 58.7571 34.7727 58.331 34.7727C57.9219 34.7727 57.5781 34.8764 57.2997 35.0838C57.0213 35.2884 56.8111 35.5753 56.669 35.9446C56.527 36.3111 56.456 36.7386 56.456 37.2273ZM63.1932 42.9545C63.0227 42.9545 62.8707 42.9403 62.7372 42.9119C62.6037 42.8864 62.5114 42.8608 62.4602 42.8352L62.7159 41.9489C62.9602 42.0114 63.1761 42.0341 63.3636 42.017C63.5511 42 63.7173 41.9162 63.8622 41.7656C64.0099 41.6179 64.1449 41.3778 64.267 41.0455L64.4545 40.5341L62.0341 33.9545H63.125L64.9318 39.1705H65L66.8068 33.9545H67.8977L65.1193 41.4545C64.9943 41.7926 64.8395 42.0724 64.6548 42.294C64.4702 42.5185 64.2557 42.6847 64.0114 42.7926C63.7699 42.9006 63.4972 42.9545 63.1932 42.9545ZM68.8501 34.892V33.9545H74.1683V34.892H72.0206V40.5H71.0149V34.892H68.8501Z" fill="#383A3C"/>
<path d="M98.5852 31.7727V40.5H97.5284V32.7102H93.1307V40.5H92.0739V31.7727H98.5852ZM100.581 42.9545V33.9545H101.552V34.9943H101.672C101.745 34.8807 101.848 34.7358 101.978 34.5597C102.112 34.3807 102.302 34.2216 102.549 34.0824C102.799 33.9403 103.137 33.8693 103.564 33.8693C104.115 33.8693 104.6 34.0071 105.021 34.2827C105.441 34.5582 105.77 34.9489 106.005 35.4545C106.241 35.9602 106.359 36.5568 106.359 37.2443C106.359 37.9375 106.241 38.5384 106.005 39.0469C105.77 39.5526 105.443 39.9446 105.025 40.223C104.608 40.4986 104.126 40.6364 103.581 40.6364C103.16 40.6364 102.824 40.5668 102.571 40.4276C102.318 40.2855 102.123 40.125 101.987 39.946C101.85 39.7642 101.745 39.6136 101.672 39.4943H101.586V42.9545H100.581ZM101.569 37.2273C101.569 37.7216 101.642 38.1577 101.787 38.5355C101.931 38.9105 102.143 39.2045 102.422 39.4176C102.7 39.6278 103.041 39.733 103.444 39.733C103.865 39.733 104.216 39.6222 104.497 39.4006C104.781 39.1761 104.994 38.875 105.136 38.4972C105.281 38.1165 105.353 37.6932 105.353 37.2273C105.353 36.767 105.282 36.3523 105.14 35.983C105.001 35.6108 104.789 35.3168 104.505 35.1009C104.224 34.8821 103.87 34.7727 103.444 34.7727C103.035 34.7727 102.691 34.8764 102.413 35.0838C102.135 35.2884 101.924 35.5753 101.782 35.9446C101.64 36.3111 101.569 36.7386 101.569 37.2273ZM110.552 40.6364C109.961 40.6364 109.443 40.4957 108.997 40.2145C108.554 39.9332 108.207 39.5398 107.957 39.0341C107.71 38.5284 107.586 37.9375 107.586 37.2614C107.586 36.5795 107.71 35.9844 107.957 35.4759C108.207 34.9673 108.554 34.5724 108.997 34.2912C109.443 34.0099 109.961 33.8693 110.552 33.8693C111.143 33.8693 111.66 34.0099 112.103 34.2912C112.549 34.5724 112.896 34.9673 113.143 35.4759C113.393 35.9844 113.518 36.5795 113.518 37.2614C113.518 37.9375 113.393 38.5284 113.143 39.0341C112.896 39.5398 112.549 39.9332 112.103 40.2145C111.66 40.4957 111.143 40.6364 110.552 40.6364ZM110.552 39.733C111.001 39.733 111.37 39.6179 111.66 39.3878C111.95 39.1577 112.164 38.8551 112.304 38.4801C112.443 38.1051 112.512 37.6989 112.512 37.2614C112.512 36.8239 112.443 36.4162 112.304 36.0384C112.164 35.6605 111.95 35.3551 111.66 35.1222C111.37 34.8892 111.001 34.7727 110.552 34.7727C110.103 34.7727 109.734 34.8892 109.444 35.1222C109.154 35.3551 108.94 35.6605 108.801 36.0384C108.662 36.4162 108.592 36.8239 108.592 37.2614C108.592 37.6989 108.662 38.1051 108.801 38.4801C108.94 38.8551 109.154 39.1577 109.444 39.3878C109.734 39.6179 110.103 39.733 110.552 39.733ZM117.712 40.6364C117.099 40.6364 116.57 40.4915 116.127 40.2017C115.684 39.9119 115.343 39.5128 115.104 39.0043C114.866 38.4957 114.746 37.9148 114.746 37.2614C114.746 36.5966 114.869 36.0099 115.113 35.5014C115.36 34.9901 115.704 34.5909 116.144 34.304C116.587 34.0142 117.104 33.8693 117.695 33.8693C118.156 33.8693 118.57 33.9545 118.94 34.125C119.309 34.2955 119.612 34.5341 119.847 34.8409C120.083 35.1477 120.229 35.5057 120.286 35.9148H119.281C119.204 35.6165 119.033 35.3523 118.769 35.1222C118.508 34.8892 118.156 34.7727 117.712 34.7727C117.32 34.7727 116.977 34.875 116.681 35.0795C116.388 35.2812 116.16 35.5668 115.995 35.9361C115.833 36.3026 115.752 36.733 115.752 37.2273C115.752 37.733 115.832 38.1733 115.991 38.5483C116.153 38.9233 116.38 39.2145 116.673 39.4219C116.968 39.6293 117.315 39.733 117.712 39.733C117.974 39.733 118.211 39.6875 118.424 39.5966C118.637 39.5057 118.817 39.375 118.965 39.2045C119.113 39.0341 119.218 38.8295 119.281 38.5909H120.286C120.229 38.9773 120.089 39.3253 119.864 39.6349C119.643 39.9418 119.349 40.1861 118.982 40.3679C118.619 40.5469 118.195 40.6364 117.712 40.6364ZM125.336 39.1364L127.62 33.9545H128.575L125.745 40.5H124.927L122.148 33.9545H123.086L125.336 39.1364ZM122.762 33.9545V40.5H121.756V33.9545H122.762ZM127.91 40.5V33.9545H128.915V40.5H127.91ZM133.415 40.6364C132.825 40.6364 132.306 40.4957 131.86 40.2145C131.417 39.9332 131.07 39.5398 130.82 39.0341C130.573 38.5284 130.45 37.9375 130.45 37.2614C130.45 36.5795 130.573 35.9844 130.82 35.4759C131.07 34.9673 131.417 34.5724 131.86 34.2912C132.306 34.0099 132.825 33.8693 133.415 33.8693C134.006 33.8693 134.523 34.0099 134.967 34.2912C135.413 34.5724 135.759 34.9673 136.006 35.4759C136.256 35.9844 136.381 36.5795 136.381 37.2614C136.381 37.9375 136.256 38.5284 136.006 39.0341C135.759 39.5398 135.413 39.9332 134.967 40.2145C134.523 40.4957 134.006 40.6364 133.415 40.6364ZM133.415 39.733C133.864 39.733 134.234 39.6179 134.523 39.3878C134.813 39.1577 135.028 38.8551 135.167 38.4801C135.306 38.1051 135.376 37.6989 135.376 37.2614C135.376 36.8239 135.306 36.4162 135.167 36.0384C135.028 35.6605 134.813 35.3551 134.523 35.1222C134.234 34.8892 133.864 34.7727 133.415 34.7727C132.967 34.7727 132.597 34.8892 132.308 35.1222C132.018 35.3551 131.803 35.6605 131.664 36.0384C131.525 36.4162 131.455 36.8239 131.455 37.2614C131.455 37.6989 131.525 38.1051 131.664 38.4801C131.803 38.8551 132.018 39.1577 132.308 39.3878C132.597 39.6179 132.967 39.733 133.415 39.733ZM137.061 34.892V33.9545H142.379V34.892H140.232V40.5H139.226V34.892H137.061ZM143.846 42.9545V33.9545H144.818V34.9943H144.937C145.011 34.8807 145.113 34.7358 145.244 34.5597C145.377 34.3807 145.568 34.2216 145.815 34.0824C146.065 33.9403 146.403 33.8693 146.829 33.8693C147.38 33.8693 147.866 34.0071 148.287 34.2827C148.707 34.5582 149.035 34.9489 149.271 35.4545C149.507 35.9602 149.625 36.5568 149.625 37.2443C149.625 37.9375 149.507 38.5384 149.271 39.0469C149.035 39.5526 148.708 39.9446 148.291 40.223C147.873 40.4986 147.392 40.6364 146.846 40.6364C146.426 40.6364 146.089 40.5668 145.836 40.4276C145.583 40.2855 145.389 40.125 145.252 39.946C145.116 39.7642 145.011 39.6136 144.937 39.4943H144.852V42.9545H143.846ZM144.835 37.2273C144.835 37.7216 144.907 38.1577 145.052 38.5355C145.197 38.9105 145.409 39.2045 145.687 39.4176C145.966 39.6278 146.306 39.733 146.71 39.733C147.13 39.733 147.481 39.6222 147.762 39.4006C148.047 39.1761 148.26 38.875 148.402 38.4972C148.547 38.1165 148.619 37.6932 148.619 37.2273C148.619 36.767 148.548 36.3523 148.406 35.983C148.267 35.6108 148.055 35.3168 147.771 35.1009C147.49 34.8821 147.136 34.7727 146.71 34.7727C146.301 34.7727 145.957 34.8764 145.679 35.0838C145.4 35.2884 145.19 35.5753 145.048 35.9446C144.906 36.3111 144.835 36.7386 144.835 37.2273Z" fill="#383A3C"/>
<path d="M175.42 36.1364C175.42 37.0568 175.254 37.8523 174.922 38.5227C174.589 39.1932 174.134 39.7102 173.554 40.0739C172.974 40.4375 172.313 40.6193 171.568 40.6193C170.824 40.6193 170.162 40.4375 169.582 40.0739C169.003 39.7102 168.547 39.1932 168.214 38.5227C167.882 37.8523 167.716 37.0568 167.716 36.1364C167.716 35.2159 167.882 34.4205 168.214 33.75C168.547 33.0795 169.003 32.5625 169.582 32.1989C170.162 31.8352 170.824 31.6534 171.568 31.6534C172.313 31.6534 172.974 31.8352 173.554 32.1989C174.134 32.5625 174.589 33.0795 174.922 33.75C175.254 34.4205 175.42 35.2159 175.42 36.1364ZM174.398 36.1364C174.398 35.3807 174.271 34.7429 174.018 34.223C173.768 33.7031 173.429 33.3097 173 33.0426C172.574 32.7756 172.097 32.642 171.568 32.642C171.04 32.642 170.561 32.7756 170.132 33.0426C169.706 33.3097 169.366 33.7031 169.114 34.223C168.864 34.7429 168.739 35.3807 168.739 36.1364C168.739 36.892 168.864 37.5298 169.114 38.0497C169.366 38.5696 169.706 38.9631 170.132 39.2301C170.561 39.4972 171.04 39.6307 171.568 39.6307C172.097 39.6307 172.574 39.4972 173 39.2301C173.429 38.9631 173.768 38.5696 174.018 38.0497C174.271 37.5298 174.398 36.892 174.398 36.1364ZM181.919 31.5L182.43 32.1136C182.232 32.3068 182.001 32.4418 181.74 32.5185C181.479 32.5952 181.183 32.642 180.854 32.6591C180.524 32.6761 180.158 32.6932 179.754 32.7102C179.3 32.7273 178.923 32.8381 178.625 33.0426C178.327 33.2472 178.097 33.5426 177.935 33.929C177.773 34.3153 177.669 34.7898 177.624 35.3523H177.709C177.93 34.9432 178.237 34.642 178.629 34.4489C179.021 34.2557 179.442 34.1591 179.891 34.1591C180.402 34.1591 180.862 34.2784 181.271 34.517C181.68 34.7557 182.004 35.1094 182.243 35.5781C182.482 36.0469 182.601 36.625 182.601 37.3125C182.601 37.9972 182.479 38.5881 182.234 39.0852C181.993 39.5824 181.653 39.9659 181.216 40.2358C180.781 40.5028 180.271 40.6364 179.686 40.6364C179.101 40.6364 178.588 40.4986 178.148 40.223C177.707 39.9446 177.365 39.5327 177.121 38.9872C176.876 38.4389 176.754 37.7614 176.754 36.9545V36.2557C176.754 34.7983 177.001 33.6932 177.496 32.9403C177.993 32.1875 178.74 31.7983 179.737 31.7727C180.089 31.7614 180.403 31.7585 180.679 31.7642C180.955 31.7699 181.195 31.7571 181.399 31.7259C181.604 31.6946 181.777 31.6193 181.919 31.5ZM179.686 39.733C180.081 39.733 180.42 39.6335 180.705 39.4347C180.991 39.2358 181.212 38.956 181.365 38.5952C181.518 38.2315 181.595 37.804 181.595 37.3125C181.595 36.8352 181.517 36.429 181.361 36.0938C181.207 35.7585 180.987 35.5028 180.7 35.3267C180.413 35.1506 180.07 35.0625 179.669 35.0625C179.376 35.0625 179.114 35.1122 178.881 35.2116C178.648 35.3111 178.449 35.4574 178.284 35.6506C178.119 35.8437 177.991 36.0795 177.901 36.358C177.812 36.6364 177.766 36.9545 177.76 37.3125C177.76 38.0455 177.932 38.6321 178.276 39.0724C178.619 39.5128 179.089 39.733 179.686 39.733ZM184.939 33.9545V34.892H183.115V33.9545H184.939ZM185.809 36.3239H187.684C188.451 36.3239 189.037 36.5185 189.444 36.9077C189.85 37.2969 190.053 37.7898 190.053 38.3864C190.053 38.7784 189.962 39.1349 189.78 39.456C189.598 39.7741 189.331 40.0284 188.979 40.2188C188.627 40.4062 188.195 40.5 187.684 40.5H184.939V33.9545H185.945V39.5625H187.684C188.081 39.5625 188.408 39.4574 188.664 39.2472C188.919 39.0369 189.047 38.767 189.047 38.4375C189.047 38.0909 188.919 37.8082 188.664 37.5895C188.408 37.3707 188.081 37.2614 187.684 37.2614H185.809V36.3239ZM194.337 40.6364C193.706 40.6364 193.162 40.4972 192.705 40.2188C192.25 39.9375 191.899 39.5455 191.652 39.0426C191.408 38.5369 191.286 37.9489 191.286 37.2784C191.286 36.608 191.408 36.017 191.652 35.5057C191.899 34.9915 192.243 34.5909 192.683 34.304C193.126 34.0142 193.643 33.8693 194.234 33.8693C194.575 33.8693 194.912 33.9261 195.244 34.0398C195.577 34.1534 195.879 34.3381 196.152 34.5938C196.425 34.8466 196.642 35.1818 196.804 35.5994C196.966 36.017 197.047 36.5312 197.047 37.142V37.5682H192.001V36.6989H196.024C196.024 36.3295 195.95 36 195.803 35.7102C195.658 35.4205 195.45 35.1918 195.18 35.0241C194.913 34.8565 194.598 34.7727 194.234 34.7727C193.834 34.7727 193.487 34.8722 193.195 35.071C192.905 35.267 192.682 35.5227 192.526 35.8381C192.369 36.1534 192.291 36.4915 192.291 36.8523V37.4318C192.291 37.9261 192.376 38.3452 192.547 38.6889C192.72 39.0298 192.96 39.2898 193.267 39.4688C193.574 39.6449 193.93 39.733 194.337 39.733C194.601 39.733 194.839 39.696 195.053 39.6222C195.268 39.5455 195.455 39.4318 195.611 39.2812C195.767 39.1278 195.888 38.9375 195.973 38.7102L196.945 38.983C196.842 39.3125 196.67 39.6023 196.429 39.8523C196.188 40.0994 195.889 40.2926 195.534 40.4318C195.179 40.5682 194.78 40.6364 194.337 40.6364ZM198.577 40.5V33.9545H199.582V36.8011H200.247L202.599 33.9545H203.895L201.253 37.108L203.929 40.5H202.634L200.486 37.7386H199.582V40.5H198.577ZM204.647 34.892V33.9545H209.965V34.892H207.817V40.5H206.812V34.892H204.647ZM212.301 36.3239H214.176C214.944 36.3239 215.53 36.5185 215.936 36.9077C216.343 37.2969 216.546 37.7898 216.546 38.3864C216.546 38.7784 216.455 39.1349 216.273 39.456C216.091 39.7741 215.824 40.0284 215.472 40.2188C215.12 40.4062 214.688 40.5 214.176 40.5H211.432V33.9545H212.438V39.5625H214.176C214.574 39.5625 214.901 39.4574 215.157 39.2472C215.412 39.0369 215.54 38.767 215.54 38.4375C215.54 38.0909 215.412 37.8082 215.157 37.5895C214.901 37.3707 214.574 37.2614 214.176 37.2614H212.301V36.3239ZM217.586 40.5V33.9545H218.591V40.5H217.586Z" fill="#383A3C"/>
<path d="M243.585 31.7727V40.5H242.528V32.7102H238.131V40.5H237.074V31.7727H243.585ZM247.507 40.6534C247.092 40.6534 246.716 40.5753 246.377 40.419C246.039 40.2599 245.771 40.0312 245.572 39.733C245.373 39.4318 245.274 39.0682 245.274 38.642C245.274 38.267 245.348 37.9631 245.495 37.7301C245.643 37.4943 245.841 37.3097 246.088 37.1761C246.335 37.0426 246.608 36.9432 246.906 36.8778C247.207 36.8097 247.51 36.7557 247.814 36.7159C248.211 36.6648 248.534 36.6264 248.781 36.6009C249.031 36.5724 249.213 36.5256 249.326 36.4602C249.443 36.3949 249.501 36.2812 249.501 36.1193V36.0852C249.501 35.6648 249.386 35.3381 249.156 35.1051C248.929 34.8722 248.583 34.7557 248.12 34.7557C247.64 34.7557 247.264 34.8608 246.991 35.071C246.718 35.2812 246.527 35.5057 246.416 35.7443L245.461 35.4034C245.632 35.0057 245.859 34.696 246.143 34.4744C246.43 34.25 246.743 34.0937 247.081 34.0057C247.422 33.9148 247.757 33.8693 248.086 33.8693C248.297 33.8693 248.538 33.8949 248.811 33.946C249.086 33.9943 249.352 34.0952 249.608 34.2486C249.866 34.402 250.081 34.6335 250.251 34.9432C250.422 35.2528 250.507 35.6676 250.507 36.1875V40.5H249.501V39.6136H249.45C249.382 39.7557 249.268 39.9077 249.109 40.0696C248.95 40.2315 248.738 40.3693 248.474 40.483C248.21 40.5966 247.887 40.6534 247.507 40.6534ZM247.66 39.75C248.058 39.75 248.393 39.6719 248.666 39.5156C248.941 39.3594 249.149 39.1577 249.288 38.9105C249.43 38.6634 249.501 38.4034 249.501 38.1307V37.2102C249.458 37.2614 249.365 37.3082 249.22 37.3509C249.078 37.3906 248.913 37.4261 248.725 37.4574C248.541 37.4858 248.36 37.5114 248.184 37.5341C248.011 37.554 247.87 37.571 247.762 37.5852C247.501 37.6193 247.257 37.6747 247.029 37.7514C246.805 37.8253 246.623 37.9375 246.484 38.0881C246.348 38.2358 246.279 38.4375 246.279 38.6932C246.279 39.0426 246.409 39.3068 246.667 39.4858C246.929 39.6619 247.26 39.75 247.66 39.75ZM256.723 36.767V37.7045H253.109V36.767H256.723ZM253.348 33.9545V40.5H252.342V33.9545H253.348ZM257.49 33.9545V40.5H256.484V33.9545H257.49ZM261.986 40.6364C261.395 40.6364 260.876 40.4957 260.43 40.2145C259.987 39.9332 259.641 39.5398 259.391 39.0341C259.143 38.5284 259.02 37.9375 259.02 37.2614C259.02 36.5795 259.143 35.9844 259.391 35.4759C259.641 34.9673 259.987 34.5724 260.43 34.2912C260.876 34.0099 261.395 33.8693 261.986 33.8693C262.577 33.8693 263.094 34.0099 263.537 34.2912C263.983 34.5724 264.33 34.9673 264.577 35.4759C264.827 35.9844 264.952 36.5795 264.952 37.2614C264.952 37.9375 264.827 38.5284 264.577 39.0341C264.33 39.5398 263.983 39.9332 263.537 40.2145C263.094 40.4957 262.577 40.6364 261.986 40.6364ZM261.986 39.733C262.435 39.733 262.804 39.6179 263.094 39.3878C263.384 39.1577 263.598 38.8551 263.737 38.4801C263.876 38.1051 263.946 37.6989 263.946 37.2614C263.946 36.8239 263.876 36.4162 263.737 36.0384C263.598 35.6605 263.384 35.3551 263.094 35.1222C262.804 34.8892 262.435 34.7727 261.986 34.7727C261.537 34.7727 261.168 34.8892 260.878 35.1222C260.588 35.3551 260.374 35.6605 260.234 36.0384C260.095 36.4162 260.026 36.8239 260.026 37.2614C260.026 37.6989 260.095 38.1051 260.234 38.4801C260.374 38.8551 260.588 39.1577 260.878 39.3878C261.168 39.6179 261.537 39.733 261.986 39.733ZM266.487 42.9545V33.9545H267.458V34.9943H267.578C267.652 34.8807 267.754 34.7358 267.885 34.5597C268.018 34.3807 268.208 34.2216 268.456 34.0824C268.706 33.9403 269.044 33.8693 269.47 33.8693C270.021 33.8693 270.507 34.0071 270.927 34.2827C271.348 34.5582 271.676 34.9489 271.912 35.4545C272.147 35.9602 272.265 36.5568 272.265 37.2443C272.265 37.9375 272.147 38.5384 271.912 39.0469C271.676 39.5526 271.349 39.9446 270.931 40.223C270.514 40.4986 270.032 40.6364 269.487 40.6364C269.066 40.6364 268.73 40.5668 268.477 40.4276C268.224 40.2855 268.029 40.125 267.893 39.946C267.757 39.7642 267.652 39.6136 267.578 39.4943H267.493V42.9545H266.487ZM267.475 37.2273C267.475 37.7216 267.548 38.1577 267.693 38.5355C267.838 38.9105 268.049 39.2045 268.328 39.4176C268.606 39.6278 268.947 39.733 269.35 39.733C269.771 39.733 270.122 39.6222 270.403 39.4006C270.687 39.1761 270.9 38.875 271.042 38.4972C271.187 38.1165 271.26 37.6932 271.26 37.2273C271.26 36.767 271.189 36.3523 271.047 35.983C270.907 35.6108 270.696 35.3168 270.412 35.1009C270.13 34.8821 269.777 34.7727 269.35 34.7727C268.941 34.7727 268.598 34.8764 268.319 35.0838C268.041 35.2884 267.831 35.5753 267.689 35.9446C267.547 36.3111 267.475 36.7386 267.475 37.2273ZM275.725 40.6534C275.311 40.6534 274.934 40.5753 274.596 40.419C274.258 40.2599 273.99 40.0312 273.791 39.733C273.592 39.4318 273.493 39.0682 273.493 38.642C273.493 38.267 273.566 37.9631 273.714 37.7301C273.862 37.4943 274.059 37.3097 274.306 37.1761C274.554 37.0426 274.826 36.9432 275.125 36.8778C275.426 36.8097 275.728 36.7557 276.032 36.7159C276.43 36.6648 276.752 36.6264 277 36.6009C277.25 36.5724 277.431 36.5256 277.545 36.4602C277.662 36.3949 277.72 36.2812 277.72 36.1193V36.0852C277.72 35.6648 277.605 35.3381 277.375 35.1051C277.147 34.8722 276.802 34.7557 276.339 34.7557C275.859 34.7557 275.483 34.8608 275.21 35.071C274.937 35.2812 274.745 35.5057 274.635 35.7443L273.68 35.4034C273.85 35.0057 274.078 34.696 274.362 34.4744C274.649 34.25 274.961 34.0937 275.299 34.0057C275.64 33.9148 275.975 33.8693 276.305 33.8693C276.515 33.8693 276.757 33.8949 277.029 33.946C277.305 33.9943 277.571 34.0952 277.826 34.2486C278.085 34.402 278.299 34.6335 278.47 34.9432C278.64 35.2528 278.725 35.6676 278.725 36.1875V40.5H277.72V39.6136H277.669C277.6 39.7557 277.487 39.9077 277.328 40.0696C277.169 40.2315 276.957 40.3693 276.693 40.483C276.429 40.5966 276.106 40.6534 275.725 40.6534ZM275.879 39.75C276.277 39.75 276.612 39.6719 276.885 39.5156C277.16 39.3594 277.368 39.1577 277.507 38.9105C277.649 38.6634 277.72 38.4034 277.72 38.1307V37.2102C277.677 37.2614 277.583 37.3082 277.439 37.3509C277.297 37.3906 277.132 37.4261 276.944 37.4574C276.76 37.4858 276.579 37.5114 276.403 37.5341C276.23 37.554 276.089 37.571 275.981 37.5852C275.72 37.6193 275.475 37.6747 275.248 37.7514C275.024 37.8253 274.842 37.9375 274.703 38.0881C274.566 38.2358 274.498 38.4375 274.498 38.6932C274.498 39.0426 274.627 39.3068 274.886 39.4858C275.147 39.6619 275.478 39.75 275.879 39.75ZM284.141 39.1364L286.425 33.9545H287.379L284.55 40.5H283.732L280.953 33.9545H281.891L284.141 39.1364ZM281.567 33.9545V40.5H280.561V33.9545H281.567ZM286.714 40.5V33.9545H287.72V40.5H286.714ZM291.487 40.6534C291.072 40.6534 290.696 40.5753 290.358 40.419C290.02 40.2599 289.751 40.0312 289.553 39.733C289.354 39.4318 289.254 39.0682 289.254 38.642C289.254 38.267 289.328 37.9631 289.476 37.7301C289.624 37.4943 289.821 37.3097 290.068 37.1761C290.315 37.0426 290.588 36.9432 290.886 36.8778C291.188 36.8097 291.49 36.7557 291.794 36.7159C292.192 36.6648 292.514 36.6264 292.761 36.6009C293.011 36.5724 293.193 36.5256 293.307 36.4602C293.423 36.3949 293.482 36.2812 293.482 36.1193V36.0852C293.482 35.6648 293.366 35.3381 293.136 35.1051C292.909 34.8722 292.564 34.7557 292.101 34.7557C291.621 34.7557 291.244 34.8608 290.972 35.071C290.699 35.2812 290.507 35.5057 290.396 35.7443L289.442 35.4034C289.612 35.0057 289.839 34.696 290.124 34.4744C290.411 34.25 290.723 34.0937 291.061 34.0057C291.402 33.9148 291.737 33.8693 292.067 33.8693C292.277 33.8693 292.518 33.8949 292.791 33.946C293.067 33.9943 293.332 34.0952 293.588 34.2486C293.847 34.402 294.061 34.6335 294.232 34.9432C294.402 35.2528 294.487 35.6676 294.487 36.1875V40.5H293.482V39.6136H293.43C293.362 39.7557 293.249 39.9077 293.089 40.0696C292.93 40.2315 292.719 40.3693 292.455 40.483C292.19 40.5966 291.868 40.6534 291.487 40.6534ZM291.641 39.75C292.038 39.75 292.374 39.6719 292.646 39.5156C292.922 39.3594 293.129 39.1577 293.268 38.9105C293.411 38.6634 293.482 38.4034 293.482 38.1307V37.2102C293.439 37.2614 293.345 37.3082 293.2 37.3509C293.058 37.3906 292.893 37.4261 292.706 37.4574C292.521 37.4858 292.341 37.5114 292.165 37.5341C291.991 37.554 291.851 37.571 291.743 37.5852C291.482 37.6193 291.237 37.6747 291.01 37.7514C290.786 37.8253 290.604 37.9375 290.464 38.0881C290.328 38.2358 290.26 38.4375 290.26 38.6932C290.26 39.0426 290.389 39.3068 290.648 39.4858C290.909 39.6619 291.24 39.75 291.641 39.75Z" fill="#383A3C"/>
<path d="M313.057 31.7727H314.097V38.642H314.182L318.955 31.7727H319.977V40.5H318.92V33.6477H318.835L314.08 40.5H313.057V31.7727ZM326.336 36.767V37.7045H322.723V36.767H326.336ZM322.961 33.9545V40.5H321.956V33.9545H322.961ZM327.103 33.9545V40.5H326.098V33.9545H327.103ZM331.599 40.6364C330.985 40.6364 330.457 40.4915 330.014 40.2017C329.571 39.9119 329.23 39.5128 328.991 39.0043C328.752 38.4957 328.633 37.9148 328.633 37.2614C328.633 36.5966 328.755 36.0099 329 35.5014C329.247 34.9901 329.591 34.5909 330.031 34.304C330.474 34.0142 330.991 33.8693 331.582 33.8693C332.042 33.8693 332.457 33.9545 332.826 34.125C333.196 34.2955 333.498 34.5341 333.734 34.8409C333.97 35.1477 334.116 35.5057 334.173 35.9148H333.167C333.091 35.6165 332.92 35.3523 332.656 35.1222C332.395 34.8892 332.042 34.7727 331.599 34.7727C331.207 34.7727 330.863 34.875 330.568 35.0795C330.275 35.2812 330.047 35.5668 329.882 35.9361C329.72 36.3026 329.639 36.733 329.639 37.2273C329.639 37.733 329.718 38.1733 329.877 38.5483C330.039 38.9233 330.267 39.2145 330.559 39.4219C330.855 39.6293 331.201 39.733 331.599 39.733C331.86 39.733 332.098 39.6875 332.311 39.5966C332.524 39.5057 332.704 39.375 332.852 39.2045C333 39.0341 333.105 38.8295 333.167 38.5909H334.173C334.116 38.9773 333.975 39.3253 333.751 39.6349C333.529 39.9418 333.235 40.1861 332.869 40.3679C332.505 40.5469 332.082 40.6364 331.599 40.6364ZM335.127 34.892V33.9545H340.446V34.892H338.298V40.5H337.292V34.892H335.127ZM341.913 42.9545V33.9545H342.884V34.9943H343.004C343.077 34.8807 343.18 34.7358 343.31 34.5597C343.444 34.3807 343.634 34.2216 343.881 34.0824C344.131 33.9403 344.469 33.8693 344.896 33.8693C345.447 33.8693 345.933 34.0071 346.353 34.2827C346.773 34.5582 347.102 34.9489 347.337 35.4545C347.573 35.9602 347.691 36.5568 347.691 37.2443C347.691 37.9375 347.573 38.5384 347.337 39.0469C347.102 39.5526 346.775 39.9446 346.357 40.223C345.94 40.4986 345.458 40.6364 344.913 40.6364C344.492 40.6364 344.156 40.5668 343.903 40.4276C343.65 40.2855 343.455 40.125 343.319 39.946C343.183 39.7642 343.077 39.6136 343.004 39.4943H342.918V42.9545H341.913ZM342.901 37.2273C342.901 37.7216 342.974 38.1577 343.119 38.5355C343.263 38.9105 343.475 39.2045 343.754 39.4176C344.032 39.6278 344.373 39.733 344.776 39.733C345.197 39.733 345.548 39.6222 345.829 39.4006C346.113 39.1761 346.326 38.875 346.468 38.4972C346.613 38.1165 346.685 37.6932 346.685 37.2273C346.685 36.767 346.614 36.3523 346.472 35.983C346.333 35.6108 346.121 35.3168 345.837 35.1009C345.556 34.8821 345.202 34.7727 344.776 34.7727C344.367 34.7727 344.023 34.8764 343.745 35.0838C343.467 35.2884 343.256 35.5753 343.114 35.9446C342.972 36.3111 342.901 36.7386 342.901 37.2273ZM349.638 42.9545C349.468 42.9545 349.316 42.9403 349.183 42.9119C349.049 42.8864 348.957 42.8608 348.906 42.8352L349.161 41.9489C349.406 42.0114 349.621 42.0341 349.809 42.017C349.996 42 350.163 41.9162 350.308 41.7656C350.455 41.6179 350.59 41.3778 350.712 41.0455L350.9 40.5341L348.479 33.9545H349.57L351.377 39.1705H351.445L353.252 33.9545H354.343L351.565 41.4545C351.44 41.7926 351.285 42.0724 351.1 42.294C350.915 42.5185 350.701 42.6847 350.457 42.7926C350.215 42.9006 349.942 42.9545 349.638 42.9545ZM359.25 39.1364L361.534 33.9545H362.489L359.659 40.5H358.841L356.062 33.9545H357L359.25 39.1364ZM356.676 33.9545V40.5H355.67V33.9545H356.676ZM361.824 40.5V33.9545H362.83V40.5H361.824ZM367.415 40.6364C366.784 40.6364 366.24 40.4972 365.783 40.2188C365.328 39.9375 364.977 39.5455 364.73 39.0426C364.486 38.5369 364.364 37.9489 364.364 37.2784C364.364 36.608 364.486 36.017 364.73 35.5057C364.977 34.9915 365.321 34.5909 365.761 34.304C366.205 34.0142 366.722 33.8693 367.312 33.8693C367.653 33.8693 367.99 33.9261 368.322 34.0398C368.655 34.1534 368.957 34.3381 369.23 34.5938C369.503 34.8466 369.72 35.1818 369.882 35.5994C370.044 36.017 370.125 36.5312 370.125 37.142V37.5682H365.08V36.6989H369.102C369.102 36.3295 369.028 36 368.881 35.7102C368.736 35.4205 368.528 35.1918 368.259 35.0241C367.991 34.8565 367.676 34.7727 367.312 34.7727C366.912 34.7727 366.565 34.8722 366.273 35.071C365.983 35.267 365.76 35.5227 365.604 35.8381C365.447 36.1534 365.369 36.4915 365.369 36.8523V37.4318C365.369 37.9261 365.455 38.3452 365.625 38.6889C365.798 39.0298 366.038 39.2898 366.345 39.4688C366.652 39.6449 367.009 39.733 367.415 39.733C367.679 39.733 367.918 39.696 368.131 39.6222C368.347 39.5455 368.533 39.4318 368.689 39.2812C368.845 39.1278 368.966 38.9375 369.051 38.7102L370.023 38.983C369.92 39.3125 369.749 39.6023 369.507 39.8523C369.266 40.0994 368.967 40.2926 368.612 40.4318C368.257 40.5682 367.858 40.6364 367.415 40.6364ZM376.036 36.767V37.7045H372.422V36.767H376.036ZM372.661 33.9545V40.5H371.655V33.9545H372.661ZM376.803 33.9545V40.5H375.797V33.9545H376.803ZM377.749 34.892V33.9545H383.067V34.892H380.919V40.5H379.913V34.892H377.749ZM385.403 36.3239H387.278C388.045 36.3239 388.632 36.5185 389.038 36.9077C389.444 37.2969 389.647 37.7898 389.647 38.3864C389.647 38.7784 389.556 39.1349 389.375 39.456C389.193 39.7741 388.926 40.0284 388.574 40.2188C388.221 40.4062 387.789 40.5 387.278 40.5H384.534V33.9545H385.539V39.5625H387.278C387.676 39.5625 388.002 39.4574 388.258 39.2472C388.514 39.0369 388.642 38.767 388.642 38.4375C388.642 38.0909 388.514 37.8082 388.258 37.5895C388.002 37.3707 387.676 37.2614 387.278 37.2614H385.403V36.3239ZM390.687 40.5V33.9545H391.693V40.5H390.687Z" fill="#383A3C"/>
</g>
</g>
<rect x="1" y="1" width="842" height="624" rx="11" stroke="#75797B" stroke-width="2"/>
<defs>
<filter id="filter0_d_103_7813" x="239" y="34" width="367" height="76" filterUnits="userSpaceOnUse" color-interpolation-filters="sRGB">
<feFlood flood-opacity="0" result="BackgroundImageFix"/>
<feColorMatrix in="SourceAlpha" type="matrix" values="0 0 0 0 0 0 0 0 0 0 0 0 0 0 0 0 0 0 127 0" result="hardAlpha"/>
<feOffset dy="8"/>
<feGaussianBlur stdDeviation="11"/>
<feComposite in2="hardAlpha" operator="out"/>
<feColorMatrix type="matrix" values="0 0 0 0 0.0514583 0 0 0 0 0.0535167 0 0 0 0 0.0541667 0 0 0 0.06 0"/>
<feBlend mode="normal" in2="BackgroundImageFix" result="effect1_dropShadow_103_7813"/>
<feBlend mode="normal" in="SourceGraphic" in2="effect1_dropShadow_103_7813" result="shape"/>
</filter>
<filter id="filter1_d_103_7813" x="-22" y="10" width="888" height="68" filterUnits="userSpaceOnUse" color-interpolation-filters="sRGB">
<feFlood flood-opacity="0" result="BackgroundImageFix"/>
<feColorMatrix in="SourceAlpha" type="matrix" values="0 0 0 0 0 0 0 0 0 0 0 0 0 0 0 0 0 0 127 0" result="hardAlpha"/>
<feOffset dy="8"/>
<feGaussianBlur stdDeviation="11"/>
<feComposite in2="hardAlpha" operator="out"/>
<feColorMatrix type="matrix" values="0 0 0 0 0.0514583 0 0 0 0 0.0535167 0 0 0 0 0.0541667 0 0 0 0.06 0"/>
<feBlend mode="normal" in2="BackgroundImageFix" result="effect1_dropShadow_103_7813"/>
<feBlend mode="normal" in="SourceGraphic" in2="effect1_dropShadow_103_7813" result="shape"/>
</filter>
<clipPath id="clip0_103_7813">
<rect width="844" height="626" rx="12" fill="white"/>
</clipPath>
</defs>
</svg>
