<svg width="112" height="71" viewBox="0 0 112 71" fill="none" xmlns="http://www.w3.org/2000/svg">
<rect x="1" y="1" width="110" height="69" rx="1" stroke="#008D7C" stroke-width="2"/>
<path d="M2 36L110 36" stroke="#74C5B9" stroke-width="2"/>
<path d="M38 2V70" stroke="#74C5B9" stroke-dasharray="4 4"/>
<path d="M20 2V70" stroke="#74C5B9" stroke-dasharray="4 4"/>
<path d="M92 2V70" stroke="#74C5B9" stroke-dasharray="4 4"/>
<path d="M74 2V70" stroke="#74C5B9" stroke-dasharray="4 4"/>
<path d="M56 2V69" stroke="#DE234B" stroke-width="2"/>
<path d="M56.5 27.5L61.0015 21.3616C61.4509 20.7488 62.3927 20.8414 62.7141 21.5301L64.7788 25.9545C65.1018 26.6467 66.0502 26.7358 66.4965 26.116L74.2007 15.4157C74.3886 15.1547 74.6906 15 75.0122 15H103.13C103.369 15 103.6 14.9146 103.781 14.7593L110.5 9" stroke="#1D1F20" stroke-width="2" stroke-linecap="round"/>
<path d="M2 17H8.5011C9.00787 17 9.43452 17.3791 9.49415 17.8823L12.7004 44.9446C12.7413 45.2897 12.9584 45.5889 13.2739 45.7347L18.9181 48.3438C19.5807 48.6501 20.3377 48.1661 20.3377 47.4361V30.0057C20.3377 29.2906 21.0664 28.8066 21.7255 29.084L26.3355 31.0237C26.9197 31.2695 27.5822 30.9168 27.7045 30.2949L28.6739 25.3655C28.7712 24.871 29.2213 24.5261 29.7242 24.5609L42.502 25.4449C42.9679 25.4771 43.3495 25.8276 43.4211 26.2892L48.6739 60.1533C48.7494 60.6406 49.1689 61 49.662 61H55" stroke="#1D1F20" stroke-width="2"/>
</svg>
