<svg width="112" height="71" viewBox="0 0 112 71" fill="none" xmlns="http://www.w3.org/2000/svg">
<path fill-rule="evenodd" clip-rule="evenodd" d="M108.425 69C109.454 64.838 110 60.4841 110 56C110 54.4861 109.938 52.9868 109.816 51.5045L97.5248 52.5502C96.9745 52.597 96.4904 52.1889 96.4436 51.6386C96.3968 51.0883 96.8049 50.6042 97.3552 50.5574L109.615 49.5144C108.629 41.2784 105.789 33.6121 101.525 26.9447C101.466 27.0237 101.394 27.0953 101.311 27.1564L91.2017 34.509C90.755 34.8338 90.1296 34.7351 89.8047 34.2885C89.4799 33.8418 89.5786 33.2164 90.0252 32.8916L100.134 25.5389C100.242 25.4603 100.361 25.4065 100.483 25.3764C95.7911 18.5741 89.5793 12.901 82.338 8.84752L82.3307 8.86268L76.7962 20.0707C76.5517 20.5659 75.952 20.7691 75.4568 20.5246C74.9616 20.28 74.7584 19.6804 75.0029 19.1852L80.5374 7.97716C80.5498 7.95212 80.5631 7.92782 80.5772 7.9043C73.4832 4.27196 65.4801 2.163 56.9995 2.00906V14C56.9995 14.5523 56.5518 15 55.9995 15C55.4472 15 54.9995 14.5523 54.9995 14V2.00908C46.3085 2.167 38.1191 4.37813 30.8956 8.1779L36.331 19.1852C36.5755 19.6804 36.3723 20.28 35.8771 20.5246C35.3819 20.7691 34.7822 20.5659 34.5377 20.0707L29.1415 9.14267C22.2655 13.0925 16.3414 18.5122 11.7979 24.9731L21.3102 31.891C21.7568 32.2159 21.8556 32.8413 21.5307 33.288C21.2059 33.7346 20.5805 33.8334 20.1338 33.5085L10.6772 26.631C6.30397 33.3661 3.39122 41.1372 2.38775 49.4954C2.43279 49.4931 2.47851 49.4938 2.5247 49.4977L14.9798 50.5568C15.5301 50.6035 15.9382 51.0876 15.8914 51.6379C15.8447 52.1882 15.3606 52.5964 14.8103 52.5496L2.35526 51.4905C2.29783 51.4857 2.24195 51.476 2.18798 51.462C2.06349 52.9582 2 54.4717 2 56C2 60.4841 2.54612 64.838 3.57462 69H108.425ZM109.968 71C111.292 66.226 112 61.1956 112 56C112 25.0721 86.9279 0 56 0C25.0721 0 0 25.0721 0 56C0 61.1956 0.707561 66.226 2.03158 71H109.968ZM56 61C60.4183 61 64 57.4183 64 53C64 48.5817 60.4183 45 56 45C51.5817 45 48 48.5817 48 53C48 57.4183 51.5817 61 56 61ZM62 53C62 56.3137 59.3137 59 56 59C52.6863 59 50 56.3137 50 53C50 49.6863 52.6863 47 56 47C59.3137 47 62 49.6863 62 53Z" fill="#008D7C"/>
<mask id="path-2-inside-1_139_2705" fill="white">
<path fill-rule="evenodd" clip-rule="evenodd" d="M87.165 71C87.9296 68.2432 88.3382 65.3383 88.3382 62.338C88.3382 44.4782 73.8599 30 56.0001 30C38.1403 30 23.6621 44.4782 23.6621 62.338C23.6621 65.3383 24.0707 68.2432 24.8353 71H87.165Z"/>
</mask>
<path d="M87.165 71V73H88.6858L89.0923 71.5345L87.165 71ZM24.8353 71L22.908 71.5345L23.3145 73H24.8353V71ZM86.3382 62.338C86.3382 65.156 85.9545 67.8811 85.2377 70.4655L89.0923 71.5345C89.9046 68.6053 90.3382 65.5207 90.3382 62.338H86.3382ZM56.0001 32C72.7554 32 86.3382 45.5828 86.3382 62.338H90.3382C90.3382 43.3737 74.9645 28 56.0001 28V32ZM25.6621 62.338C25.6621 45.5828 39.2449 32 56.0001 32V28C37.0358 28 21.6621 43.3737 21.6621 62.338H25.6621ZM26.7625 70.4655C26.0458 67.8811 25.6621 65.156 25.6621 62.338H21.6621C21.6621 65.5207 22.0956 68.6053 22.908 71.5345L26.7625 70.4655ZM24.8353 73H87.165V69H24.8353V73Z" fill="#008D7C" fill-opacity="0.4" mask="url(#path-2-inside-1_139_2705)"/>
<path d="M82.3841 36.9416L60.1239 46.4644L64.0928 53.4105L83.3849 38.6553C84.3199 37.9402 83.4663 36.4786 82.3841 36.9416Z" fill="#1D1F20"/>
<circle cx="56" cy="53" r="7" stroke="#1D1F20" stroke-width="2" stroke-linecap="round"/>
</svg>
