<svg width="50" height="41" viewBox="0 0 50 41" fill="none" xmlns="http://www.w3.org/2000/svg">
<path fill-rule="evenodd" clip-rule="evenodd" d="M8.91767 12.743C14.9561 -1.17876 34.8057 -1.1259 41.0892 12.7574C41.3169 13.2605 41.9094 13.4838 42.4126 13.2561C42.9157 13.0283 43.139 12.4359 42.9113 11.9327C35.9388 -3.47268 13.8371 -3.62512 7.08283 11.9471C6.86307 12.4538 7.09566 13.0427 7.60233 13.2625C8.10901 13.4822 8.69791 13.2496 8.91767 12.743ZM36.0905 14.6782C31.7347 5.1345 18.0947 5.11096 13.9165 14.6638C13.6951 15.1698 13.1055 15.4006 12.5995 15.1792C12.0935 14.9579 11.8627 14.3683 12.0841 13.8623C16.9809 2.66659 32.8629 2.7895 37.91 13.8478C38.1393 14.3503 37.9179 14.9435 37.4155 15.1728C36.913 15.4021 36.3198 15.1807 36.0905 14.6782ZM27.3725 19.4441C28.9372 18.6338 30.0003 17.047 30.0003 15.222C30.0003 12.5738 27.7617 10.427 25.0003 10.427C22.2388 10.427 20.0003 12.5738 20.0003 15.222C20.0003 17.1813 21.2255 18.8661 22.9813 19.6101L15.0723 39.3039C14.8665 39.8164 15.1151 40.3987 15.6276 40.6045C16.1401 40.8104 16.7224 40.5617 16.9282 40.0492L19.1797 34.4431H30.9392L33.0656 40.0322C33.262 40.5484 33.8397 40.8076 34.3559 40.6112C34.872 40.4148 35.1313 39.8372 34.9349 39.321L27.3725 19.4441ZM24.9732 20.017L25.0003 20.017C25.1496 20.017 25.2975 20.0108 25.4435 19.9985L28.3539 27.6481H21.9085L24.9732 20.017ZM30.1782 32.4431H19.9829L21.1053 29.6481H29.1148L30.1782 32.4431Z" fill="#008D7C"/>
<ellipse cx="25" cy="15.2218" rx="5" ry="4.795" fill="#1D1F20"/>
</svg>
