<svg width="51" height="21" viewBox="0 0 51 21" fill="none" xmlns="http://www.w3.org/2000/svg">
<path fill-rule="evenodd" clip-rule="evenodd" d="M41.0176 2.5H4C2.89543 2.5 2 3.39543 2 4.5V16.5C2 17.6046 2.89543 18.5 4 18.5H41.0176C42.1222 18.5 43.0176 17.6046 43.0176 16.5V15.2664C43.006 15.1792 43 15.0903 43 15V6.5C43 6.40968 43.006 6.32076 43.0176 6.23361V4.5C43.0176 3.39543 42.1222 2.5 41.0176 2.5ZM41.0176 20.5C43.0574 20.5 44.7406 18.9731 44.9866 17L45 17H48.5029C49.6075 17 50.5029 16.1046 50.5029 15V6.5C50.5029 5.39543 49.6075 4.5 48.5029 4.5H45.0176C45.0176 2.29086 43.2267 0.5 41.0176 0.5H4C1.79086 0.5 0 2.29086 0 4.5V16.5C0 18.7091 1.79086 20.5 4 20.5H41.0176ZM48.5029 15H45.0176V6.5H48.5029V15ZM6.9834 5.5C5.87883 5.5 4.9834 6.39543 4.9834 7.5V13.5C4.9834 14.6046 5.87883 15.5 6.9834 15.5H12.799V5.5H6.9834Z" fill="#008D7C"/>
<path fill-rule="evenodd" clip-rule="evenodd" d="M6.98438 5.5C5.87981 5.5 4.98438 6.39543 4.98438 7.5V13.5C4.98438 14.6046 5.87981 15.5 6.98438 15.5H12.7999V5.5H6.98438ZM21.8856 5.5H14.0701V15.5H21.8856V5.5ZM23.1545 5.5H30.9701V15.5H23.1545V5.5ZM38.007 5.5H32.1914V15.5H38.007C39.1115 15.5 40.007 14.6046 40.007 13.5V7.5C40.007 6.39543 39.1115 5.5 38.007 5.5Z" fill="#008D7C"/>
</svg>
