<svg width="34" height="41" viewBox="0 0 34 41" fill="none" xmlns="http://www.w3.org/2000/svg">
<g id="Frame 240459169">
<path id="Union" fill-rule="evenodd" clip-rule="evenodd" d="M19.3725 18.9438C20.9372 18.1336 22.0003 16.5467 22.0003 14.7218C22.0003 12.0736 19.7617 9.92676 17.0003 9.92676C14.2388 9.92676 12.0003 12.0736 12.0003 14.7218C12.0003 16.681 13.2256 18.3658 14.9813 19.1098L7.0723 38.8036C6.86648 39.3161 7.11509 39.8984 7.62759 40.1042C8.1401 40.3101 8.72241 40.0615 8.92823 39.549L11.1797 33.9428H22.9392L25.0656 39.5319C25.262 40.0481 25.8397 40.3073 26.3559 40.1109C26.872 39.9145 27.1313 39.3369 26.9349 38.8207L19.3725 18.9438ZM16.9732 19.5167L17.0003 19.5168C17.1496 19.5168 17.2975 19.5105 17.4435 19.4982L20.3539 27.1478H13.9085L16.9732 19.5167ZM22.1782 31.9428H11.9829L13.1053 29.1478H21.1149L22.1782 31.9428Z" fill="#9822D4"/>
<circle id="Ellipse 288" cx="17" cy="15" r="3" fill="#F9EEFD"/>
</g>
</svg>
