<svg width="114" height="73" viewBox="0 0 114 73" fill="none" xmlns="http://www.w3.org/2000/svg">
<path fill-rule="evenodd" clip-rule="evenodd" d="M109.311 0.67787C111.286 -0.140591 113.459 1.31121 113.459 3.44939V67.7586C113.459 69.7746 111.489 71.2549 109.538 70.5591C102.001 67.8723 92.6725 63.4554 86.1961 60.1832C83.1104 58.6242 79.6128 58.0821 76.239 58.7262L4.10365 72.4992C2.25459 72.8522 0.541016 71.4349 0.541016 69.5524V68.518C0.541016 60.8684 4.78433 53.8501 11.5582 50.2961L94.1392 6.96837L94.1793 6.94736L94.221 6.93005L109.311 0.67787ZM111.459 3.44939C111.459 2.73666 110.735 2.25273 110.076 2.52555L95.0284 8.76041L12.4874 52.0671C6.37191 55.2757 2.54102 61.6119 2.54102 68.518V69.5524C2.54102 70.1799 3.11221 70.6524 3.72856 70.5347L12.9033 68.7829V65.1289C12.9033 64.201 13.5416 63.3949 14.4449 63.1822L77.8309 48.2559V56.5044C78.9406 56.4246 80.0514 56.4539 81.1489 56.5868L83 47.7942C83.1138 47.2538 83.6441 46.9079 84.1846 47.0217C84.725 47.1354 85.0709 47.6658 84.9571 48.2062L83.1185 56.9396C84.3919 57.2427 85.6345 57.6863 86.8226 58.2619L88.5 50.2942C88.6138 49.7538 89.1441 49.4079 89.6846 49.5217C90.225 49.6354 90.5709 50.1658 90.4571 50.7062L88.6716 59.1874C89.6474 59.6733 90.672 60.1771 91.7323 60.6907L93.5 52.2942C93.6138 51.7538 94.1441 51.4079 94.6846 51.5217C95.225 51.6354 95.5709 52.1658 95.4571 52.7062L93.5885 61.582C98.9736 64.1452 105.035 66.8307 110.209 68.6753C110.806 68.8881 111.459 68.4481 111.459 67.7586V3.44939Z" fill="#008D7C"/>
</svg>
