<svg width="114" height="73" viewBox="0 0 114 73" fill="none" xmlns="http://www.w3.org/2000/svg">
<path fill-rule="evenodd" clip-rule="evenodd" d="M109.311 0.67787C111.286 -0.140591 113.459 1.31121 113.459 3.44939V67.7586C113.459 69.7746 111.489 71.2549 109.538 70.5591C102.001 67.8723 92.6725 63.4554 86.1961 60.1832C83.1104 58.6242 79.6128 58.0821 76.239 58.7262L4.10365 72.4992C2.25459 72.8522 0.541016 71.4349 0.541016 69.5524V68.518C0.541016 60.8684 4.78433 53.8501 11.5582 50.2961L94.1392 6.96837L94.1793 6.94736L94.221 6.93005L109.311 0.67787ZM111.459 3.44939C111.459 2.73666 110.735 2.25273 110.076 2.52555L95.0284 8.76041L12.4874 52.0671C6.37191 55.2757 2.54102 61.6119 2.54102 68.518V69.5524C2.54102 70.1799 3.11221 70.6524 3.72856 70.5347L11.9033 68.9738V65.1289C11.9033 63.737 12.8608 62.5278 14.2157 62.2088L77.6016 47.2825L78.8309 46.993V48.2559V56.4619C79.7433 56.4497 80.6536 56.5103 81.5537 56.6406L83.5215 47.294C83.6352 46.7536 84.1656 46.4077 84.706 46.5215C85.2465 46.6352 85.5923 47.1656 85.4786 47.706L83.5138 57.0385C84.7474 57.3619 85.9495 57.8178 87.098 58.3981C87.1317 58.4152 87.1655 58.4322 87.1993 58.4493L89.0215 49.794C89.1352 49.2536 89.6656 48.9077 90.206 49.0215C90.7465 49.1352 91.0923 49.6656 90.9786 50.206L89.0483 59.3747C90.0269 59.8604 91.0517 60.3625 92.11 60.8733L94.0215 51.794C94.1352 51.2536 94.6656 50.9077 95.206 51.0215C95.7465 51.1352 96.0923 51.6656 95.9786 52.206L93.9786 61.706L93.7465 61.6572C99.0919 64.1976 105.086 66.8487 110.209 68.6753C110.806 68.8881 111.459 68.4481 111.459 67.7586V3.44939ZM75.8639 56.7617L13.9033 68.592V65.1289C13.9033 64.6649 14.2225 64.2619 14.6741 64.1555L76.8309 49.5187V56.6059C76.508 56.6484 76.1855 56.7003 75.8639 56.7617Z" fill="#9822D4"/>
</svg>
