<svg width="403" height="383" viewBox="0 0 403 383" fill="none" xmlns="http://www.w3.org/2000/svg">
<path d="M374.454 47.0049H284.158L264.232 62.5304H153.952L132.828 47.0049H38.4133C22.8878 47.0049 10.3086 59.5906 10.3086 75.1097V335.931C10.3086 351.457 22.8942 364.036 38.4133 364.036H374.454C389.98 364.036 402.559 351.45 402.559 335.931V75.1097C402.559 59.5842 389.973 47.0049 374.454 47.0049Z" fill="black"/>
<path d="M364.56 47.0049H274.263L254.337 62.5304H144.057L122.934 47.0049H28.5188C12.9933 47.0049 0.414062 59.5906 0.414062 75.1097V335.931C0.414062 351.457 12.9997 364.036 28.5188 364.036H364.56C380.085 364.036 392.664 351.45 392.664 335.931V75.1097C392.664 59.5842 380.079 47.0049 364.56 47.0049Z" fill="#2B2A3A"/>
<path d="M122.932 47.0048L115.881 34.464C113.728 30.6403 113.921 25.9262 116.374 22.2882L131.105 0.428223H205.325V13.8786L143.441 13.475L144.062 62.5368L122.939 47.0112L122.932 47.0048Z" fill="#2B2A3A"/>
<path d="M273.166 47.0048L280.218 34.464C282.37 30.6403 282.178 25.9262 279.725 22.2882L264.994 0.428223H190.773V13.8786L252.658 13.475L252.036 64.4006L273.16 47.0112L273.166 47.0048Z" fill="#2B2A3A"/>
<path d="M153.508 20.8347C162.284 20.8347 169.398 18.2137 169.398 14.9806C169.398 11.7474 162.284 9.12646 153.508 9.12646C144.732 9.12646 137.617 11.7474 137.617 14.9806C137.617 18.2137 144.732 20.8347 153.508 20.8347Z" fill="#2B2A3A"/>
<path d="M176.453 20.8347C185.229 20.8347 192.344 18.2137 192.344 14.9806C192.344 11.7474 185.229 9.12646 176.453 9.12646C167.677 9.12646 160.562 11.7474 160.562 14.9806C160.562 18.2137 167.677 20.8347 176.453 20.8347Z" fill="#2B2A3A"/>
<path d="M199.387 20.8347C208.163 20.8347 215.277 18.2137 215.277 14.9806C215.277 11.7474 208.163 9.12646 199.387 9.12646C190.611 9.12646 183.496 11.7474 183.496 14.9806C183.496 18.2137 190.611 20.8347 199.387 20.8347Z" fill="#2B2A3A"/>
<path d="M222.324 20.8347C231.1 20.8347 238.215 18.2137 238.215 14.9806C238.215 11.7474 231.1 9.12646 222.324 9.12646C213.548 9.12646 206.434 11.7474 206.434 14.9806C206.434 18.2137 213.548 20.8347 222.324 20.8347Z" fill="#2B2A3A"/>
<path d="M245.266 20.8347C254.042 20.8347 261.156 18.2137 261.156 14.9806C261.156 11.7474 254.042 9.12646 245.266 9.12646C236.49 9.12646 229.375 11.7474 229.375 14.9806C229.375 18.2137 236.49 20.8347 245.266 20.8347Z" fill="#2B2A3A"/>
<path d="M137.62 47.0054L155.733 59.2645C158.878 61.3909 162.586 62.531 166.378 62.531H232.393C236.185 62.531 239.894 61.3973 243.038 59.2645L261.151 47.0054L258.32 73.6435L153.504 81.0348L137.613 46.999L137.62 47.0054Z" fill="#2B2A3A"/>
<path d="M42.4336 364.043H137.617L121.707 382.06H60.566L42.4336 364.043Z" fill="black"/>
<path d="M266.352 364.043H361.535L345.625 382.06H284.484L266.352 364.043Z" fill="black"/>
<path d="M122.934 47.0049L159.313 62.7802L241.796 61.9091L273.168 47.0049" stroke="black" stroke-width="4.48345" stroke-miterlimit="10"/>
<path d="M137.617 7.2627H192.341" stroke="white" stroke-width="1.28098" stroke-miterlimit="10"/>
<path opacity="0.71" d="M366.165 46.4995H275.868L255.943 62.0251H145.663L124.539 46.4995H30.1243C14.5987 46.4995 2.01953 59.0852 2.01953 74.6043V111.868C23.6105 136.181 60.5092 158.566 123.476 166.425C277.13 185.602 345.611 284.558 394.276 299.763V74.6043C394.276 59.0788 381.69 46.4995 366.171 46.4995H366.165Z" fill="#3B3B5B"/>
<path d="M0.40625 98.4688H392.663" stroke="black" stroke-width="4.48345" stroke-miterlimit="10"/>
<path d="M0.40625 325.023H229.369" stroke="black" stroke-width="4.48345" stroke-miterlimit="10"/>
<path d="M0.40625 287.004H392.663" stroke="black" stroke-width="1.92148" stroke-miterlimit="10"/>
<path d="M0.40625 134.4H392.663" stroke="black" stroke-width="1.92148" stroke-miterlimit="10"/>
<path d="M245.683 172.497H153.094V230.397H245.683V172.497Z" stroke="black" stroke-width="1.92148" stroke-miterlimit="10"/>
<path d="M163.073 230.397L165.27 177.409L245.683 178.114V172.497H153.094V230.397H163.073Z" fill="black"/>
<path d="M42.4336 87.3755V145.468" stroke="black" stroke-width="4.48345" stroke-miterlimit="10"/>
<path d="M98.4062 87.3755V145.468" stroke="black" stroke-width="1.92148" stroke-miterlimit="10"/>
<path d="M296.984 98.4688V134.381" stroke="black" stroke-width="4.48345" stroke-miterlimit="10"/>
<path d="M352.953 98.4688V134.381" stroke="black" stroke-width="1.92148" stroke-miterlimit="10"/>
</svg>
