<svg width="983" height="308" viewBox="0 0 983 308" fill="none" xmlns="http://www.w3.org/2000/svg">
<path d="M160.571 99.5865L122.539 166.095C122.539 166.095 270.473 193.419 475.476 168.913L475.636 148.578L160.565 99.5801L160.571 99.5865Z" fill="#00B7B7"/>
<path d="M474.877 169.605L475.037 149.27L356.93 130.9C328.531 134.173 297.051 139.611 263.137 147.528C190.889 164.385 157.218 148.828 141.616 132.367L121.934 166.787C121.934 166.787 269.868 194.111 474.87 169.605H474.877Z" fill="#009393"/>
<path d="M368.646 134.16L155.83 100.201C153.249 99.7915 150.68 101.015 149.38 103.289L119.822 154.899C116.28 161.08 120.129 168.881 127.194 169.836C171.58 175.824 305.66 191.516 471.791 172.026C473.476 171.828 474.757 170.406 474.782 168.715L475 152.197C475.019 150.525 473.809 149.09 472.156 148.834L459.872 146.925" stroke="black" stroke-width="1.92148" stroke-linecap="round" stroke-linejoin="round"/>
<path d="M347.848 165.077C350.487 165.077 352.627 162.937 352.627 160.299C352.627 157.66 350.487 155.521 347.848 155.521C345.21 155.521 343.07 157.66 343.07 160.299C343.07 162.937 345.21 165.077 347.848 165.077Z" stroke="white" stroke-width="3.20246" stroke-miterlimit="10"/>
<path d="M227.144 130.733L192.07 198.85C192.07 198.85 341.062 219.653 544.789 186.168L544.059 165.845L227.144 130.733Z" fill="#00B7B7"/>
<path d="M544.219 186.885L543.489 166.562L424.69 153.4C396.464 157.915 365.253 164.73 331.717 174.126C260.282 194.142 225.959 180.076 209.652 164.314L191.5 199.567C191.5 199.567 340.491 220.37 544.219 186.885Z" fill="#009393"/>
<path d="M217.574 134.096L190.065 187.436C186.44 194.462 189.918 200.784 197.783 201.501C241.913 205.511 376.666 214.1 542.996 186.994C544.014 186.828 544.757 185.924 544.719 184.893L544.117 168.144C544.078 167.132 543.31 166.293 542.304 166.178L223.883 130.733C221.289 130.432 218.779 131.777 217.574 134.096Z" stroke="black" stroke-width="2.56197" stroke-linecap="round" stroke-linejoin="round"/>
<path d="M415.594 185.694C418.233 185.694 420.373 183.555 420.373 180.916C420.373 178.277 418.233 176.138 415.594 176.138C412.956 176.138 410.816 178.277 410.816 180.916C410.816 183.555 412.956 185.694 415.594 185.694Z" stroke="white" stroke-width="3.20246" stroke-miterlimit="10"/>
<path d="M115.024 300.284L112.084 232.853C111.982 230.535 109.343 229.26 107.466 230.631L88.1362 244.709L20.052 239.45C18.1433 239.303 16.3179 240.277 15.3827 241.955L1.45204 266.857C0.356802 268.817 1.3367 271.296 3.47594 271.975L108.465 305.306C111.796 306.363 115.171 303.781 115.018 300.291L115.024 300.284Z" fill="#00B7B7"/>
<path d="M20.0637 239.444C18.155 239.297 16.3296 240.27 15.3945 241.948L1.46376 266.851C0.368521 268.811 1.34842 271.289 3.48766 271.968L108.477 305.299C111.808 306.356 115.183 303.775 115.029 300.284L112.09 232.853C111.987 230.535 109.348 229.26 107.472 230.631" stroke="black" stroke-width="1.92148" stroke-miterlimit="10"/>
<path d="M16.2148 276.01L108.478 305.299" stroke="black" stroke-width="3.84295" stroke-linecap="round" stroke-linejoin="round"/>
<path d="M49.1992 276.042L99.7789 255.77" stroke="white" stroke-width="3.84295" stroke-linecap="round" stroke-linejoin="round"/>
<path d="M75.7188 275.453L99.5386 265.903" stroke="white" stroke-width="1.28098" stroke-linecap="round" stroke-linejoin="round"/>
<path d="M587.157 180.115C587.746 182.792 589.667 184.977 592.242 185.912C669.94 214.266 729.73 215.502 776.749 215.502C823.767 215.502 883.557 214.266 961.255 185.912C963.83 184.97 965.752 182.786 966.341 180.115L981.014 113.177C981.86 109.328 979.528 105.498 975.724 104.473C962.523 100.925 930.403 93.0018 882.417 85.681C841.592 79.4554 815.274 77.6236 801.504 77.1112C794.977 76.8678 789.821 71.5068 789.821 64.9802V42.8832C789.821 38.419 786.202 34.8066 781.745 34.8066H771.759C767.295 34.8066 763.683 38.4254 763.683 42.8832V64.9802C763.683 71.5068 758.527 76.8678 752 77.1112C738.229 77.6171 711.912 79.449 671.087 85.681C623.101 93.0018 590.98 100.925 577.78 104.473C573.975 105.498 571.644 109.328 572.489 113.177L587.163 180.115H587.157Z" fill="#02828B"/>
<path d="M707.633 182.492C657.565 146.349 605.82 143.755 579.797 145.33L587.15 178.886C587.739 181.563 589.66 183.747 592.235 184.682C669.933 213.037 729.723 214.273 776.742 214.273C823.76 214.273 878.503 213.133 951.455 188.141C896.264 199.855 763.074 222.51 707.626 182.485L707.633 182.492Z" fill="#006A6D"/>
<path d="M780.528 107.387L801.21 77.1175C794.683 76.8741 789.527 71.5132 789.527 64.9866V42.8896C789.527 38.4254 785.909 34.813 781.451 34.813H771.465C767.001 34.813 763.389 38.4318 763.389 42.8896V64.9866C763.389 71.321 758.534 76.5411 752.289 77.0663L772.465 107.342C774.38 110.212 778.588 110.237 780.535 107.387H780.528Z" fill="#00B7B7"/>
<path d="M776.18 92.624V46.5342" stroke="white" stroke-width="0.640492" stroke-miterlimit="10"/>
<path d="M781.871 74.0754V46.5342" stroke="white" stroke-width="3.20246" stroke-miterlimit="10"/>
<path d="M782.117 34.9097H769.768V11.5445C769.768 11.1666 770.076 10.8592 770.454 10.8592H781.432C781.81 10.8592 782.117 11.1666 782.117 11.5445V34.9097Z" fill="#333438"/>
<path d="M976.063 135.749C976.063 135.749 775.787 158.697 576.613 132.027" stroke="#00B7B7" stroke-width="1.28098" stroke-miterlimit="10"/>
<path d="M872.97 180.27L876.121 161.83C876.62 158.916 874.321 156.283 871.368 156.373L775.948 159.396L685.792 156.398C682.673 156.296 680.335 159.217 681.117 162.24L685.901 180.737C686.727 183.933 689.392 186.316 692.658 186.777C713.577 189.742 791.774 199.203 866.244 186.956C869.684 186.393 872.393 183.703 872.982 180.263L872.97 180.27Z" stroke="white" stroke-width="1.28098" stroke-miterlimit="10"/>
<path d="M890.879 86.4756C890.879 86.4756 880.676 124.662 840.043 169.989" stroke="#060709" stroke-width="3.20246" stroke-miterlimit="10"/>
<path d="M664.387 86.4756C664.387 86.4756 674.59 124.662 715.223 169.989" stroke="#060709" stroke-width="3.20246" stroke-miterlimit="10"/>
<path d="M776.34 215.227C823.358 215.227 883.148 213.991 960.846 185.636C963.421 184.695 965.343 182.511 965.932 179.84L980.606 112.902C981.451 109.053 979.12 105.223 975.315 104.198C962.115 100.649 929.994 92.7266 882.008 85.4058" stroke="#060709" stroke-width="2.56197" stroke-miterlimit="10"/>
<path d="M789.411 42.6083C789.411 38.1441 785.792 34.5317 781.334 34.5317H771.349C766.885 34.5317 763.273 38.1505 763.273 42.6083V64.7053C763.273 71.2319 758.117 76.5929 751.59 76.8363C737.819 77.3422 711.502 79.1741 670.677 85.406C622.691 92.7269 590.57 100.65 577.37 104.198C573.565 105.223 571.234 109.053 572.079 112.902L586.753 179.84" stroke="#060709" stroke-width="1.92148" stroke-miterlimit="10"/>
<path d="M775.75 4.86377C777.402 4.86377 778.747 6.2088 778.747 7.86127V10.8588H772.746V7.86127C772.746 6.2088 774.091 4.86377 775.744 4.86377H775.75Z" fill="#060709"/>
<path d="M737.168 3L775.751 7.86134" stroke="black" stroke-width="4.48345" stroke-miterlimit="10"/>
<path d="M590.409 186.4L592.227 186.622C593.88 186.823 595.058 188.328 594.857 189.981L592.594 208.54L584.787 207.588L587.049 189.03C587.251 187.377 588.756 186.199 590.409 186.4Z" fill="black"/>
<path d="M633.026 191.596L634.844 191.818C636.497 192.019 637.675 193.524 637.474 195.177L635.211 213.736L627.404 212.784L629.666 194.226C629.868 192.572 631.373 191.394 633.026 191.596Z" fill="black"/>
<path d="M594.497 236.149C596.991 215.692 588.167 197.786 574.789 196.156C561.411 194.525 548.544 209.787 546.05 230.244C543.557 250.701 552.38 268.607 565.759 270.237C579.137 271.868 592.004 256.607 594.497 236.149Z" fill="#132F56"/>
<path d="M597.378 234.608C595.54 249.711 584.601 266.677 573.815 265.364C559.173 263.577 558.866 239.681 560.704 224.578C562.542 209.475 570.401 203.57 581.187 204.883C591.973 206.196 599.223 219.505 597.385 234.602L597.378 234.608Z" fill="black"/>
<path d="M565.257 197.703C565.257 197.703 549.02 204.838 545.933 230.208C542.839 255.578 557.193 266.626 557.193 266.626" stroke="black" stroke-width="1.92148" stroke-miterlimit="10"/>
<path d="M590.164 199.919C590.164 199.919 573.864 202.718 568.221 215.47C566.197 220.049 566.466 234.563 566.031 247.52C565.563 261.412 576.093 271.756 589.601 275.036C620.895 282.619 628.037 269.515 628.037 269.515L624.937 251.094L639.13 209.417C639.13 209.417 617.654 197.017 590.164 199.925V199.919Z" fill="#132F56"/>
<path d="M547.316 252.087C547.316 252.087 551.966 255.091 558.685 254.297" stroke="white" stroke-width="1.92148" stroke-linecap="round" stroke-linejoin="round"/>
<path d="M562.542 210.256C562.542 210.256 557.411 208.373 552.422 209.398" stroke="white" stroke-width="1.28098" stroke-linecap="round" stroke-linejoin="round"/>
<path d="M635.513 208.181C635.513 208.181 619.276 215.316 616.189 240.686C613.102 266.056 627.449 277.104 627.449 277.104" stroke="black" stroke-width="1.92148" stroke-miterlimit="10"/>
<path d="M596.715 256.797C605.982 254.767 611.65 244.703 609.375 234.32C607.1 223.936 597.742 217.165 588.475 219.196C579.208 221.227 573.54 231.29 575.815 241.674C578.09 252.057 587.448 258.828 596.715 256.797Z" fill="black"/>
<path d="M595.637 251.903C602.541 250.391 606.764 242.895 605.069 235.162C603.375 227.429 596.404 222.387 589.5 223.899C582.597 225.412 578.374 232.908 580.068 240.641C581.763 248.374 588.733 253.416 595.637 251.903Z" stroke="white" stroke-width="0.640492" stroke-linecap="round" stroke-linejoin="round"/>
<path d="M595.895 237.236C598.272 236.715 599.726 234.133 599.143 231.469C598.559 228.805 596.158 227.068 593.781 227.588C591.404 228.109 589.95 230.691 590.534 233.355C591.117 236.02 593.518 237.757 595.895 237.236Z" fill="#42C9D3"/>
<path d="M642.232 181.91L580.212 174.35C576.121 173.851 572.4 176.763 571.902 180.854C571.403 184.944 574.315 188.665 578.406 189.164L640.427 196.724C644.517 197.222 648.238 194.31 648.736 190.22C649.235 186.129 646.323 182.409 642.232 181.91Z" fill="black"/>
<path d="M580.25 174.235L556.295 157.775C554.348 156.436 555.354 153.387 557.711 153.47L627.435 155.866C629.126 155.924 630.785 156.378 632.264 157.198L668.599 174.888C670.886 176.003 670.598 179.346 668.157 180.057L647.412 186.065L580.237 174.235H580.25Z" fill="black"/>
<path d="M558.59 151.997L630.005 155.904L668.607 174.882" stroke="white" stroke-width="1.92148" stroke-linecap="round" stroke-linejoin="round"/>
<path d="M567.039 255.225C569.671 265.505 577.447 272.416 588.566 275.023C625.631 283.714 628.283 270.142 628.283 270.142L626.72 260.855C608.133 271.852 578.786 265.441 567.039 255.225Z" fill="black"/>
<path d="M664.747 246.624C667.241 226.167 658.417 208.261 645.039 206.63C631.661 204.999 618.794 220.261 616.3 240.718C613.807 261.175 622.63 279.081 636.009 280.712C649.387 282.343 662.254 267.081 664.747 246.624Z" fill="#132F56"/>
<path d="M664.793 244.715C666.396 231.572 662.793 220.321 656.746 219.583C650.7 218.846 644.499 228.903 642.897 242.046C641.295 255.189 644.898 266.441 650.944 267.178C656.991 267.915 663.191 257.858 664.793 244.715Z" fill="#4253A5"/>
<path d="M664.794 246.289C666.948 228.62 661.467 213.415 652.552 212.329C643.636 211.242 634.663 224.684 632.509 242.353C630.355 260.023 635.837 275.227 644.752 276.314C653.667 277.401 662.641 263.958 664.794 246.289Z" stroke="black" stroke-width="1.92148" stroke-miterlimit="10"/>
<path d="M634.938 215.585C634.938 215.585 641.278 217.014 645.198 219.467" stroke="white" stroke-width="1.92148" stroke-linecap="round" stroke-linejoin="round"/>
<path d="M628.039 269.508C628.039 269.508 634.969 269.47 639.67 267.503" stroke="white" stroke-width="1.92148" stroke-linecap="round" stroke-linejoin="round"/>
<path d="M220.957 241.314C220.957 241.314 312.272 224.661 338.417 230.112C364.562 235.562 420.099 243.588 451.701 257.006C483.303 270.424 483.303 278.206 483.303 278.206C483.303 278.206 440.633 269.521 359.086 259.478C277.538 249.435 220.963 241.32 220.963 241.32L220.957 241.314Z" fill="white"/>
<path d="M483.295 278.206C483.295 278.206 325.715 283.016 220.949 241.32C220.949 241.32 335.777 269.239 393.735 263.123" stroke="black" stroke-width="1.92148" stroke-miterlimit="10"/>
<path d="M220.956 241.314C220.956 241.314 182.789 248.154 173.457 241.314C164.125 234.473 220.956 241.314 220.956 241.314Z" stroke="black" stroke-width="1.92148" stroke-miterlimit="10"/>
<path d="M505.155 224.059H450.54C446.037 224.059 442.387 227.71 442.387 232.213V275.183C442.387 279.686 446.037 283.337 450.54 283.337H505.155C509.658 283.337 513.308 279.686 513.308 275.183V232.213C513.308 227.71 509.658 224.059 505.155 224.059Z" fill="#1D1F20"/>
<path d="M505.679 287.474H449.265C444 287.474 439.734 282.568 439.734 277.303V234.864C439.734 229.599 442.719 224.053 447.984 224.053H506.32C511.585 224.053 515.21 228.318 515.21 233.583L515.85 279.225C515.85 284.49 510.944 287.474 505.679 287.474Z" stroke="black" stroke-width="3.20246" stroke-linecap="round" stroke-linejoin="round"/>
<path d="M493.127 235.485H460.373C458.324 235.485 456.664 237.146 456.664 239.194V257.243C456.664 259.291 458.324 260.951 460.373 260.951H493.127C495.175 260.951 496.836 259.291 496.836 257.243V239.194C496.836 237.146 495.175 235.485 493.127 235.485Z" fill="#3F384C"/>
<path d="M466.34 271.552V278.508" stroke="white" stroke-width="1.28098" stroke-miterlimit="10"/>
<path d="M487.156 271.552V278.508" stroke="white" stroke-width="1.28098" stroke-miterlimit="10"/>
<path d="M812.823 3L777 7.86133" stroke="#060709" stroke-width="1.92148" stroke-miterlimit="10"/>
</svg>
