<svg width="1017" height="303" viewBox="0 0 1017 303" fill="none" xmlns="http://www.w3.org/2000/svg">
<path d="M320.477 223.932L329.586 147.248C329.586 147.248 181.564 180.112 1 283.534L8.84975 302.468L320.471 223.932H320.477Z" fill="#006A6D"/>
<path d="M1.2832 282.663L9.13296 301.597L125.95 272.16C151.009 257.945 185.352 251.135 215.976 233.989C289.219 192.978 322.6 178.705 343.554 187.846L329.875 146.39C329.875 146.39 181.853 179.254 1.28966 282.676L1.2832 282.663Z" fill="#009393"/>
<path d="M113.802 273.741L324.629 221.498C327.185 220.865 329.083 218.715 329.399 216.101L336.513 156.576C337.365 149.443 330.723 143.723 323.796 145.621C280.254 157.531 149.675 195.741 3.19573 279.209C1.71099 280.055 1.07836 281.875 1.73036 283.463L8.02436 298.878C8.66344 300.441 10.3483 301.293 11.9815 300.88L24.1306 297.82" stroke="black" stroke-width="1.93662" stroke-linecap="round" stroke-linejoin="round"/>
<path d="M122.814 246.118C125.473 246.118 127.629 243.962 127.629 241.303C127.629 238.643 125.473 236.487 122.814 236.487C120.154 236.487 117.998 238.643 117.998 241.303C117.998 243.962 120.154 246.118 122.814 246.118Z" stroke="white" stroke-width="3.22769" stroke-miterlimit="10"/>
<path d="M694.23 146.756L660.701 77.1992C660.701 77.1992 811.37 60.1827 1015.74 99.3218L1014.47 119.779L694.237 146.762L694.23 146.756Z" fill="#00B7B7"/>
<path d="M1015.19 98.5859L1013.91 119.043L893.876 129.159C865.556 123.859 834.286 116.164 800.751 105.81C729.309 83.7514 694.353 97.0108 677.504 112.459L660.152 76.4633C660.152 76.4633 810.821 59.4469 1015.19 98.5859H1015.19Z" fill="#009393"/>
<path d="M684.684 143.115L658.378 88.6447C654.911 81.4727 658.578 75.1917 666.531 74.6752C711.099 71.8026 847.095 66.7222 1013.96 98.4375C1014.99 98.6312 1015.71 99.5608 1015.64 100.6L1014.59 117.462C1014.52 118.482 1013.72 119.301 1012.71 119.392L690.945 146.672C688.318 146.905 685.826 145.491 684.684 143.115Z" stroke="black" stroke-width="2.58216" stroke-linecap="round" stroke-linejoin="round"/>
<path d="M885.433 106.01C888.093 106.01 890.249 103.854 890.249 101.195C890.249 98.535 888.093 96.3789 885.433 96.3789C882.773 96.3789 880.617 98.535 880.617 101.195C880.617 103.854 882.773 106.01 885.433 106.01Z" stroke="white" stroke-width="3.22769" stroke-miterlimit="10"/>
<path d="M320.491 222.692C321.621 225.209 323.964 226.972 326.695 227.372C409.182 239.431 468.436 228.398 514.837 218.76C561.238 209.123 619.989 195.65 690.85 151.741C693.199 150.288 694.645 147.738 694.678 144.975L695.44 75.9156C695.485 71.9456 692.399 68.6404 688.435 68.4145C674.685 67.6204 641.356 66.381 592.508 68.9954C550.949 71.2161 524.598 74.8053 510.906 77.1228C504.418 78.2202 498.234 73.9855 496.891 67.5494L492.359 45.7431C491.443 41.3406 487.137 38.5131 482.728 39.4233L477.803 40.4497L472.877 41.4761C468.475 42.3928 465.647 46.6985 466.557 51.1076L471.089 72.9139C472.425 79.3563 468.436 85.702 462.051 87.2771C448.566 90.6016 422.971 97.8059 383.961 112.318C338.108 129.373 308.032 143.781 295.735 149.991C292.191 151.779 290.674 156.04 292.301 159.661L320.498 222.705L320.491 222.692Z" fill="#02828B"/>
<path d="M439.869 200.343C383.056 174.941 331.458 182.984 306.107 189.872L320.245 221.478C321.374 223.995 323.718 225.758 326.448 226.158C408.935 238.217 468.189 227.184 514.591 217.547C559.023 208.315 614.778 195.566 681.643 155.949C629.58 178.821 502.784 228.476 439.869 200.349V200.343Z" fill="#006A6D"/>
<path d="M496.407 111.284L510.609 77.1736C504.121 78.271 497.937 74.0362 496.595 67.6002L492.063 45.7939C491.146 41.3913 486.84 38.5639 482.431 39.4741L477.506 40.5005L472.58 41.5269C468.178 42.4436 465.35 46.7493 466.261 51.1583L470.792 72.9646C472.09 79.2135 468.365 85.359 462.316 87.16L488.428 112.904C490.907 115.344 495.065 114.505 496.401 111.297L496.407 111.284Z" fill="#00B7B7"/>
<path d="M489.093 97.6116L479.643 52.127" stroke="white" stroke-width="0.645539" stroke-miterlimit="10"/>
<path d="M490.906 78.1426L485.264 50.959" stroke="white" stroke-width="3.22769" stroke-miterlimit="10"/>
<path d="M483.127 39.3975L470.941 41.9277L466.153 18.8703C466.076 18.4974 466.316 18.131 466.689 18.0535L477.523 15.8041C477.896 15.7267 478.262 15.9671 478.339 16.34L483.127 39.3975Z" fill="#333438"/>
<path d="M695.181 99.1934C695.181 99.1934 502.256 162.889 300.234 177.394" stroke="#00B7B7" stroke-width="1.29108" stroke-miterlimit="10"/>
<path d="M514.379 218.56C560.78 208.922 619.531 195.45 690.392 151.54C692.741 150.088 694.187 147.538 694.22 144.775L694.981 75.7152C695.026 71.7451 691.941 68.4399 687.977 68.214C674.227 67.42 640.898 66.1805 592.05 68.795" stroke="#060709" stroke-width="2.58216" stroke-miterlimit="10"/>
<path d="M491.901 45.5361C490.984 41.1335 486.678 38.3061 482.269 39.2163L477.344 40.2427L472.418 41.2691C468.016 42.1858 465.188 46.4915 466.098 50.9005L470.63 72.7068C471.966 79.1493 467.977 85.495 461.592 87.0701C448.107 90.3946 422.512 97.5988 383.502 112.111C337.649 129.166 307.573 143.574 295.276 149.784C291.732 151.572 290.215 155.833 291.842 159.454L320.039 222.498" stroke="#060709" stroke-width="1.93662" stroke-miterlimit="10"/>
<path d="M470.677 11.1379C472.308 10.7993 473.911 11.851 474.249 13.4817L474.864 16.4398L468.941 17.6695L468.327 14.7114C467.988 13.0807 469.04 11.4778 470.671 11.1392L470.677 11.1379Z" fill="#060709"/>
<path d="M432.227 17.1647L471.295 14.0532" stroke="black" stroke-width="4.51877" stroke-miterlimit="10"/>
<path d="M507.225 1L472.863 13.1426" stroke="#060709" stroke-width="1.93662" stroke-miterlimit="10"/>
<path d="M520.119 155.278C523.436 144.683 517.276 133.324 506.361 129.908C495.446 126.491 483.909 132.311 480.593 142.906C477.276 153.501 483.436 164.86 494.351 168.276C505.266 171.693 516.803 165.873 520.119 155.278Z" fill="black"/>
<path d="M514.982 153.667C517.452 145.777 512.862 137.317 504.73 134.772C496.598 132.226 488.004 136.559 485.534 144.45C483.065 152.34 487.655 160.8 495.786 163.345C503.918 165.89 512.513 161.557 514.982 153.667Z" stroke="white" stroke-width="0.645539" stroke-linecap="round" stroke-linejoin="round"/>
<path d="M501.507 145.288C502.358 142.569 500.778 139.655 497.978 138.778C495.178 137.902 492.218 139.395 491.367 142.114C490.516 144.832 492.096 147.747 494.896 148.623C497.697 149.5 500.656 148.006 501.507 145.288Z" fill="#42C9D3"/>
<path d="M607.019 144.335L570.062 201.446C568.79 203.409 570.217 205.997 572.56 205.971L596.658 205.694L649.521 249.765C651.006 251.004 653.072 251.262 654.821 250.436L680.804 238.113C682.85 237.144 683.49 234.536 682.128 232.729L615.334 144.045C613.21 141.23 608.936 141.379 607.026 144.342L607.019 144.335Z" fill="#00B7B7"/>
<path d="M649.521 249.758C651.005 250.998 653.071 251.256 654.821 250.43L680.804 238.106C682.85 237.138 683.489 234.53 682.127 232.723L615.333 144.038C613.209 141.224 608.936 141.372 607.025 144.335L570.068 201.446C568.796 203.409 570.223 205.997 572.566 205.971" stroke="black" stroke-width="1.93662" stroke-miterlimit="10"/>
<path d="M674.033 221.968L615.334 144.038" stroke="black" stroke-width="3.87323" stroke-linecap="round" stroke-linejoin="round"/>
<path d="M646.947 202.679L593.561 189.807" stroke="white" stroke-width="3.87323" stroke-linecap="round" stroke-linejoin="round"/>
<path d="M624.817 187.684L599.68 181.622" stroke="white" stroke-width="1.29108" stroke-linecap="round" stroke-linejoin="round"/>
<path d="M399.948 185.307L456.587 222.981C458.537 224.279 458.253 227.216 456.103 228.126L433.89 237.467L402.949 298.942C402.078 300.665 400.29 301.73 398.36 301.666L369.614 300.71C367.348 300.633 365.728 298.503 366.257 296.295L392.214 188.348C393.04 184.92 397.017 183.358 399.954 185.307H399.948Z" fill="#00B7B7"/>
<path d="M402.944 298.935C402.072 300.659 400.284 301.724 398.354 301.659L369.608 300.704C367.342 300.627 365.722 298.496 366.251 296.289L392.208 188.342C393.035 184.914 397.011 183.352 399.948 185.301L456.588 222.975C458.537 224.272 458.253 227.209 456.104 228.12" stroke="black" stroke-width="1.93662" stroke-miterlimit="10"/>
<path d="M369.395 283.204L392.201 188.342" stroke="black" stroke-width="3.87323" stroke-linecap="round" stroke-linejoin="round"/>
<path d="M386.561 254.729L430.406 221.651" stroke="white" stroke-width="3.87323" stroke-linecap="round" stroke-linejoin="round"/>
<path d="M400.885 232.154L421.529 216.584" stroke="white" stroke-width="1.29108" stroke-linecap="round" stroke-linejoin="round"/>
</svg>
