<svg width="348" height="116" viewBox="0 0 348 116" fill="none" xmlns="http://www.w3.org/2000/svg">
<path fill-rule="evenodd" clip-rule="evenodd" d="M138.479 49.3394L137.965 53.403L140.158 54.7576L136.285 77.7852L141.549 78.2367L151.2 54.7576L138.479 49.3394ZM182.365 62.3896L181.703 65.5205L183.971 66.8542L180.097 91.2869H185.539L196.876 63.7233L182.365 62.3896Z" fill="#383A3C"/>
<path fill-rule="evenodd" clip-rule="evenodd" d="M219.906 29.6772C219.763 30.5594 219.949 31.309 224.34 32.0385C228.731 32.7681 235.665 33.2014 235.808 32.3192C235.952 31.437 229.252 29.5734 224.861 28.8438C220.47 28.1143 220.05 28.795 219.906 29.6772ZM216.307 26.1355C217.19 26.0287 217.854 25.6405 217.319 21.2012C216.784 16.7618 215.253 9.95232 214.369 10.0591C213.486 10.1658 213.585 17.1483 214.12 21.5877C214.656 26.0271 215.424 26.2422 216.307 26.1355Z" fill="#1D1F20"/>
<path fill-rule="evenodd" clip-rule="evenodd" d="M217.605 30.3815C218.279 29.9535 218.551 29.087 218.211 28.3422C217.871 27.5974 217.036 27.2315 216.269 27.4545L216.262 27.4395L216.061 27.5305C216.057 27.5322 216.053 27.5338 216.049 27.5355C216.046 27.5372 216.042 27.5389 216.038 27.5406L209.469 30.5107L210.819 33.4677L217.612 30.3966L217.605 30.3815Z" fill="#1D1F20"/>
<path fill-rule="evenodd" clip-rule="evenodd" d="M210.666 27.3422L195.434 34.2295L198.56 41.0744L213.73 34.2152C213.751 34.2062 213.772 34.1969 213.793 34.1873C215.693 33.3284 216.533 31.0998 215.67 29.2096C214.807 27.3194 212.567 26.4835 210.667 27.3424C210.667 27.3425 210.666 27.3426 210.666 27.3428L210.666 27.3422Z" fill="#941943"/>
<path d="M30.48 14.2085L25.949 16.4626C25.1024 16.8838 25.2591 18.1359 26.1834 18.3354L122.304 39.0854C123.384 41.9496 127.64 50.2773 152.253 58.0107C176.866 65.744 204.325 64.2541 216.919 64.2541L302.917 100.437C303.534 100.696 304.24 100.63 304.798 100.26L309.671 97.027C310.814 96.2692 310.875 94.6144 309.787 93.7796C303.761 89.1541 294.314 81.96 292.03 80.4447C289.439 78.7262 281.235 74.7163 277.456 72.9261L246.711 52.1032C237.715 47.2699 216.269 36.6365 202.451 32.7698C188.633 28.9031 150.994 25.4302 133.901 24.1771L73.8311 16.2472L31.4767 14.002C31.1322 13.9837 30.7889 14.0549 30.48 14.2085Z" fill="#C02F5B"/>
<path d="M30.48 14.2085L25.949 16.4626C25.1024 16.8838 25.2591 18.1359 26.1834 18.3354L122.304 39.0854C123.384 41.9496 127.64 50.2773 152.253 58.0107C176.866 65.744 204.325 64.2541 216.919 64.2541L302.917 100.437C303.534 100.696 304.24 100.63 304.798 100.26L309.671 97.027C310.814 96.2692 310.875 94.6144 309.787 93.7796C303.761 89.1541 294.314 81.96 292.03 80.4447C289.439 78.7262 281.235 74.7163 277.456 72.9261L246.711 52.1032C237.715 47.2699 216.269 36.6365 202.451 32.7698C188.633 28.9031 150.994 25.4302 133.901 24.1771L73.8311 16.2472L31.4767 14.002C31.1322 13.9837 30.7889 14.0549 30.48 14.2085Z" fill="url(#paint0_linear_103_7461)" fill-opacity="0.3" style="mix-blend-mode:overlay"/>
<path d="M220.183 29.7649L217.387 29.2988" stroke="#1D1F20"/>
<path d="M216.453 25.5693L216.919 29.7641" stroke="#1D1F20"/>
<defs>
<linearGradient id="paint0_linear_103_7461" x1="173.574" y1="63.747" x2="173.574" y2="37.6667" gradientUnits="userSpaceOnUse">
<stop stop-color="white"/>
<stop offset="1" stop-color="white" stop-opacity="0"/>
</linearGradient>
</defs>
</svg>
