<svg width="348" height="116" viewBox="0 0 348 116" fill="none" xmlns="http://www.w3.org/2000/svg">
<path d="M152 64V55L158 53.5L159.5 59.5L158.5 64H152Z" fill="#550909"/>
<path d="M148 59C147.833 60.3333 147.3 63.5 146.5 65.5C145.5 68 138.5 112 135.5 116H139.5C141.333 108.5 145.3 92.9 146.5 90.5C148 87.5 153.5 66.5 154 64.5C154.4 62.9 154.833 60.1667 155 59L152 52.5L148 55V59Z" fill="#292727"/>
<path d="M269 56C269 54.4 265.333 53 263.5 52.5L248 65V68.5L250.5 72L264 75.5L271.5 68.5V64L270.5 60H268.5C268.667 59.3333 269 57.6 269 56Z" fill="black"/>
<path d="M72 59.5C72 58.3 76.3333 56.3333 78.5 55.5L85 55C87.8333 59.5 93.6 68.7 94 69.5C94.4 70.3 93.5 72.8333 93 74C92 74.8333 89.9 76.5 89.5 76.5C89 76.5 79.5 79 77 79.5C74.5 80 70.5 69 70.5 68.5V64.5C71.1667 64.3333 72.5 63.9 72.5 63.5C72.5 63 72 61 72 59.5Z" fill="black"/>
<path d="M216.5 13.5V15.5L218 20L221 23L226 21L227.5 17V14.5L227 12L229.5 12.5L259 17L260.5 16L229.5 7L223 8V6.5L221 6L220 7.5L214 4.5C207.5 3.66667 194.4 2 194 2C193.6 2 192.167 2.33333 191.5 2.5L214 6L219 8V9H217L216.5 11L218 12.5L216.5 13.5Z" fill="#474B52"/>
<path d="M216.5 13.502V15.502L218 20.002L221 23.002L226 21.002L227.5 17.002V14.502L227 12.002L226 11.002L224 8.50195L223 8.00195V6.50195L221 6.00195L220 7.50195C220 7.50195 220 7.50065 219 8.00195V9.00196H217L216.5 11.002L218 12.502L216.5 13.502Z" fill="#282B30"/>
<ellipse cx="222.117" cy="6.63645" rx="0.986591" ry="1.31546" transform="rotate(42.4788 222.117 6.63645)" fill="black"/>
<path d="M188 25V8.5L187 6.5H191L190.5 8.5L190.174 30.0217L193 38.5L196 42.5V51.5L193 55H149.5L146.5 51V42.5L150.5 40.3462V35.5138L149.5 34.5V31L122.5 23.1455V24.5L118 26L114 25L111 22V16L116.5 12L122.5 13V18.6364L149.5 26V25H188Z" fill="black"/>
<path d="M187 6.5L188 8.5C188 19.3333 188 41.1 188 41.5H190L190.5 8.5L191 6.5M187 6.5H191M187 6.5L185 6V3.5L186.5 3M191 6.5L194 5.5L194.5 4.5L192.5 3.5M149.5 25L152.5 28.5L152.952 38M149.5 25H188.5L193 38.5L196 42.5M149.5 25V26M146.5 42.5L149.5 46M146.5 42.5V51L149.5 55M146.5 42.5L150.5 40.3462M149.5 46H193M149.5 46V55M193 46L196 42.5M193 46V55M196 42.5V51.5L193 55M149.5 55H193M152.952 38L153 39L150.5 40.3462M152.952 38L150.5 35.5138M150.5 35.5138L149.5 34.5V31M150.5 35.5138V40.3462M149.5 31L122 23C121.167 22.6667 119.6 21.7 120 20.5C120.4 19.3 121.5 18.6667 122 18.5L149.5 26M149.5 31V26M111 16V22L114 25L118 26L122.5 24.5V13M111 16L118.5 15.5L122.5 13M111 16L116.5 12L122.5 13" stroke="black"/>
<path d="M195.5 59H188.5C188.667 60.1667 189.1 62.9 189.5 64.5C190 66.5 195.5 87.5 197 90.5C198.2 92.9 202.167 108.5 204 116H208C205 112 198 68 197 65.5C196.2 63.5 195.667 60.3333 195.5 59Z" fill="#292727"/>
<path d="M107 10.5C109 10.8333 113.2 11.6 114 12C114 11.3333 114.3 9.9 115.5 9.5C116.7 9.1 118 10.3333 118.5 11C120.333 10 124.1 8 124.5 8C124.9 8 141.333 5.33333 149.5 4L148 5.5L126 9.5L119.5 12C117.667 13.5 114 15.6 114 12L112.5 15.5L108 17L75.5 22.5V21L107 10.5Z" fill="#525760"/>
<path d="M114 12C113.2 11.6 109 10.8333 107 10.5L75.5 21V22.5L108 17L112.5 15.5L114 12ZM114 12C114 11.3333 114.3 9.9 115.5 9.5C116.7 9.1 118 10.3333 118.5 11M114 12C114 15.6 117.667 13.5 119.5 12M118.5 11C120.333 10 124.1 8 124.5 8C124.9 8 141.333 5.33333 149.5 4L148 5.5L126 9.5L119.5 12M118.5 11L119.5 12" stroke="#71747A"/>
<path d="M153 24.5L158.5 14L182 14.5L188 24L187.5 37L188 40.5L181 45H159.5L151 37L153 24.5Z" fill="#B3BEC0"/>
<path d="M160 17H180.5M160 17L159 28.5M160 17L158.5 14M180.5 17L183.5 28.5M180.5 17L182 14.5M183.5 28.5L177.5 40.5M183.5 28.5L188 24M177.5 40.5H166M177.5 40.5L180.5 43M166 40.5L159 28.5M166 40.5L160.5 43.5M159 28.5L153.5 34.5M158.5 14L153 24.5M158.5 14L182 14.5M153 24.5L151 37M153 24.5L153.5 34.5M151 37L159.5 45M151 37L153.5 34.5M159.5 45L160.5 43.5M159.5 45H181M160.5 43.5L153.5 34.5M180.5 43L181 45M180.5 43L187.5 37M181 45L188 40.5L187.5 37M187.5 37L188 24M188 24L182 14.5" stroke="#D2D8D9"/>
<path d="M160 17H180.5L183.5 28.5L177.5 40.5L180.5 43L181 45H159.5L160.5 43.5L166 40.5L159 28.5L160 17Z" fill="#CCD0D0"/>
<path d="M177.5 40.5L183.5 28.5L180.5 17H160L159 28.5L166 40.5M177.5 40.5H166M177.5 40.5L180.5 43L181 45H159.5L160.5 43.5L166 40.5" stroke="#D2D8D9"/>
<path d="M161 9V16H178.5V9C178.5 7 173 6 169.5 6C166 6 161 7 161 9Z" fill="#DCCA3C"/>
<path d="M161 9.00098V16.001H178.5V9.00098C178.5 10.5005 173 11.0005 169.5 11.0005C166 11.0005 161 11 161 9.00098Z" fill="#BC991D"/>
<path d="M162 65L158 55.5H167.5H175H184L180 65C179.667 65.6667 179 67.4 179 69C179 71 180.5 72.5 180.5 73C180.5 73.5 179 74.5 177.5 74.5C176.3 74.5 175 73.5 174.5 73H169L166 74.5C165 75 162 74.5 161.5 73.5C161 72.5 162.5 72 163 71C163.4 70.2 163.167 68 163 67L162 65Z" fill="#161616"/>
<path fill-rule="evenodd" clip-rule="evenodd" d="M158 55.5L162 65H168C168.5 63.3333 169.4 59.7 169 58.5C168.6 57.3 167.833 56 167.5 55.5H158ZM184 55.5H175C174.5 56.3333 173.5 58.5 173.5 60.5C173.5 62.5 174.5 64.3333 175 65H180L184 55.5Z" fill="#5E7074"/>
<path d="M218 15L190.5 24.5V29L218 19.5L220.5 19L221.5 17L220.5 13.5H218V15Z" fill="#282B30"/>
<path d="M183.5 67L185 64L185.5 66L184.5 68.5L182 70L184 71.5L182.5 73L179 68.5V67L181 68L183.5 67Z" fill="#550909"/>
<path d="M185 55.5V64M185 64L183.5 67L181 68L179 67V68.5L182.5 73L184 71.5L182 70L184.5 68.5L185.5 66L185 64Z" stroke="#550909"/>
<path d="M190.5 61L189.5 55.5L195 51.5L199.5 52.5V60.5L190.5 61Z" fill="black"/>
<path d="M152 61L153 55.5L147.5 51.5L143 52.5V60.5L152 61Z" fill="black"/>
<path d="M199 42.9996C199 41.7996 197 41.8329 196 41.9996L194.5 54L199.5 55L202.5 54L204 54.5L208 55C220.833 58.1667 246.7 64.5 247.5 64.5C248.3 64.5 249.167 60.1667 249.5 58L209 48L205.5 47.5L204 45L200 46C199.667 45.4999 199 44.1996 199 42.9996Z" fill="black"/>
<path d="M248.5 51.5C247.7 51.9 225.833 65 215 71.5L217.5 74.5C222 71.5 256 64 256.5 61.5C256.9 59.5 261.667 54.3333 264 52L270 47.5L278 45.5L292 38.5L289 38L267.5 45.5L262.5 49H258.5C258.1 49 256 50.3333 255 51C253.167 51 249.3 51.1 248.5 51.5Z" fill="#525760" stroke="#71747A"/>
<path d="M269 67.5C270.667 68.8333 276.4 72.4 276 74C275.5 76 273 79.5 270.5 78C268.5 76.8 266.667 73.5 266 72" stroke="black" stroke-width="4"/>
<path d="M144.5 43L142 46.5H138L136 49L93.5 61L99 67L139.5 55L147 56.5L149.5 52V47L144.5 43Z" fill="black"/>
<path d="M63.5 46.5C61.1 46.1 56.8333 41.6667 55 39.5L59.5 39L76 47.5C77.8333 48.6667 81.6 51.2 82 52C83.2 52 84.8333 53 85.5 53.5C86.3333 53.6667 88.6 54.2 91 55C94 56 103 63.5 106 66C108.4 68 117 76.5 121 80.5L117.5 83C107.5 77.8333 87.1 67.4 85.5 67C83.5 66.5 81.5 60 82 59C82.4 58.2 81.8333 56.6667 81.5 56H78.5C77.3333 54.6667 74.9 51.8 74.5 51C74 50 66.5 47 63.5 46.5Z" fill="#525760" stroke="#71747A"/>
<path d="M71.5 70.5C69 72 68 75.5 68.5 76.5C68.9 77.3 71.6667 78.8333 73 79.5L77 76.5" stroke="black" stroke-width="4"/>
<ellipse cx="83.0017" cy="53.9997" rx="1.5" ry="2" transform="rotate(42.4788 83.0017 53.9997)" fill="black"/>
<ellipse cx="259.957" cy="51.488" rx="1.5" ry="2" transform="rotate(-40.3165 259.957 51.488)" fill="black"/>
<ellipse cx="115.959" cy="11.488" rx="1.5" ry="2" transform="rotate(42.4788 115.959 11.488)" fill="black"/>
<path d="M195.5 5C195.5 6.65685 192.814 8 189.5 8C186.186 8 183.5 6.65685 183.5 5C183.5 4.75487 183.5 4 183.5 4C183.763 3.45994 184.487 3.26564 185.246 2.88425C186.333 2.33808 187.837 2 189.5 2C190.983 2 192.34 2.26897 193.387 2.71465C194.232 3.0741 195.156 3.45905 195.5 4C195.5 4 195.5 4.68255 195.5 5Z" fill="#7F9498"/>
<ellipse cx="189.5" cy="4" rx="6" ry="3" fill="#B3BEC0"/>
</svg>
