<svg width="816" height="626" viewBox="0 0 816 626" fill="none" xmlns="http://www.w3.org/2000/svg">
<g clip-path="url(#clip0_103_12483)">
<rect width="816" height="626" fill="#DABF9B"/>
<path d="M450.5 121C442.9 67.4 367.333 16 330.5 -3H379L493.5 102.5L658.5 474L720.5 627L710 637.5C693.5 607.5 658.2 539.1 649 505.5C637.5 463.5 574.5 422 514.5 346.5C454.5 271 460 188 450.5 121Z" fill="#E7D6C0"/>
<path d="M239.499 206.5C205.099 155.3 230.667 39.6667 248.5 -7L435 -23.5L727 638.5L673.5 692C645.833 668.5 586.7 605.6 571.5 542C556.47 479.112 520.809 491.216 465.872 509.864L464 510.5C494.666 492 483 435.5 464 391.5C434.834 323.958 282.499 270.5 239.499 206.5Z" fill="url(#paint0_linear_103_12483)" fill-opacity="0.6"/>
<path d="M341.658 -12.1906C392.856 11.2064 485.821 85.0596 511.54 227.444C528.884 323.464 565.118 379.579 601.02 426.151C607.046 433.968 613.046 441.499 618.936 448.893C648.181 485.601 674.707 518.896 688.093 566.674C714.095 659.484 769.329 684.076 795.328 684.495C796.335 684.511 797.252 684.181 797.994 683.641L833.144 658.122C834.31 657.275 835 655.922 835 654.481V-26.4595C835 -28.98 832.93 -31.0091 830.41 -30.9587L343.456 -21.2098C340.876 -21.1582 339.401 -19.1666 339.064 -17.3776C338.729 -15.5976 339.362 -13.24 341.658 -12.1906Z" fill="#504841"/>
<path d="M341.658 -12.1906C392.856 11.2064 485.821 85.0596 511.54 227.444C528.884 323.464 565.118 379.579 601.02 426.151C607.046 433.968 613.046 441.499 618.936 448.893C648.181 485.601 674.707 518.896 688.093 566.674C714.095 659.484 769.329 684.076 795.328 684.495C796.335 684.511 797.252 684.181 797.994 683.641L833.144 658.122C834.31 657.275 835 655.922 835 654.481V-26.4595C835 -28.98 832.93 -31.0091 830.41 -30.9587L343.456 -21.2098C340.876 -21.1582 339.401 -19.1666 339.064 -17.3776C338.729 -15.5976 339.362 -13.24 341.658 -12.1906Z" fill="url(#paint1_linear_103_12483)" fill-opacity="0.7"/>
<path d="M341.658 -12.1906C392.856 11.2064 485.821 85.0596 511.54 227.444C528.884 323.464 565.118 379.579 601.02 426.151C607.046 433.968 613.046 441.499 618.936 448.893C648.181 485.601 674.707 518.896 688.093 566.674C714.095 659.484 769.329 684.076 795.328 684.495C796.335 684.511 797.252 684.181 797.994 683.641L833.144 658.122C834.31 657.275 835 655.922 835 654.481V-26.4595C835 -28.98 832.93 -31.0091 830.41 -30.9587L343.456 -21.2098C340.876 -21.1582 339.401 -19.1666 339.064 -17.3776C338.729 -15.5976 339.362 -13.24 341.658 -12.1906Z" stroke="#C09C6C" stroke-width="5"/>
<path d="M567.743 227.32C546.157 83.9283 468.041 9.51038 424.923 -14.0579C423.053 -15.0804 423.73 -18.1687 425.861 -18.2199L830.952 -27.9508C832.075 -27.9778 833 -27.0747 833 -25.9513V654.608C833 655.187 832.75 655.737 832.314 656.116L803.166 681.508C802.802 681.825 802.353 682.003 801.87 681.99C781.25 681.441 736.135 657.717 714.738 566.082C687.671 450.163 596.475 418.186 567.743 227.32Z" fill="#1C8695"/>
<path d="M714.738 566.082C736.135 657.717 781.25 681.441 801.87 681.99C802.353 682.003 802.802 681.825 803.166 681.508L832.314 656.116C832.75 655.737 833 655.187 833 654.608V-25.9513C833 -27.0747 832.075 -27.9778 830.952 -27.9508L425.861 -18.2199C423.73 -18.1687 423.053 -15.0804 424.923 -14.0579C468.041 9.51038 546.157 83.9283 567.743 227.32C572.325 257.76 578.496 284.158 585.742 307.5" stroke="#4EC5D6" stroke-width="5" stroke-linecap="round"/>
<path d="M575.5 175C574.856 90 480.833 18.1667 449 -7.5L841.5 -28L862.661 596.475C879.679 614.464 893.624 631.691 902.5 648L864 636L862.661 596.475C791.157 520.895 665.406 431.872 633.5 341C594.149 228.925 576.144 260 575.5 175Z" fill="url(#paint2_linear_103_12483)" fill-opacity="0.2"/>
<path d="M51.5 84.5C51.5 25.3 78.6667 8 122 -27.5L-70.5 -17V656H51.5C97.5 619.167 190.1 517.7 192.5 406.5C195.5 267.5 51.5 158.5 51.5 84.5Z" fill="url(#paint3_linear_103_12483)" fill-opacity="0.7"/>
<path d="M729 110.5C714.6 51.3 665.333 -0.833336 642.5 -19.5L835 -51.5V655C805 646.833 739 591.7 715 436.5C685 242.5 747 184.5 729 110.5Z" fill="url(#paint4_linear_103_12483)"/>
<path d="M746 436C736.8 322.4 790.167 222.333 818 186.5L838.5 649.5L792 681.5C780.5 647 755.2 549.6 746 436Z" fill="url(#paint5_linear_103_12483)"/>
<path fill-rule="evenodd" clip-rule="evenodd" d="M49.1391 445.688C49.1028 445.706 49.0667 445.723 49.0308 445.741C40.7103 432.427 21.5789 443.736 6.46732 452.669C5.75011 453.093 5.04195 453.511 4.34443 453.922C2.61486 452.243 0.0857798 450.244 -1.28774 450.741C-2.98732 451.357 -0.866091 454.626 0.416128 456.196C0.352467 456.232 0.28894 456.268 0.225544 456.304C0.232175 456.306 0.238811 456.309 0.245451 456.312C-1.59742 457.4 -4.56198 459.863 -2.93871 461.835C-1.66693 463.379 1.28395 460.465 3.54739 457.608C13.2618 461.12 28.1252 464.247 35.8369 463.449C41.1488 462.899 44.7637 460.116 47.1043 457.575C49.2286 459.333 52.3911 459.766 55.1982 458.431C58.9709 456.637 60.6729 452.33 58.9997 448.811C57.3265 445.293 52.9118 443.894 49.1391 445.688Z" fill="#7A7979"/>
<path fill-rule="evenodd" clip-rule="evenodd" d="M49.1391 445.688C49.1028 445.706 49.0667 445.723 49.0308 445.741C40.7103 432.427 21.5789 443.736 6.46732 452.669C5.75011 453.093 5.04195 453.511 4.34443 453.922C2.61486 452.243 0.0857798 450.244 -1.28774 450.741C-2.98732 451.357 -0.866091 454.626 0.416128 456.196C0.352467 456.232 0.28894 456.268 0.225544 456.304C0.232175 456.306 0.238811 456.309 0.245451 456.312C-1.59742 457.4 -4.56198 459.863 -2.93871 461.835C-1.66693 463.379 1.28395 460.465 3.54739 457.608C13.2618 461.12 28.1252 464.247 35.8369 463.449C41.1488 462.899 44.7637 460.116 47.1043 457.575C49.2286 459.333 52.3911 459.766 55.1982 458.431C58.9709 456.637 60.6729 452.33 58.9997 448.811C57.3265 445.293 52.9118 443.894 49.1391 445.688Z" fill="url(#paint6_linear_103_12483)" fill-opacity="0.2"/>
<g filter="url(#filter0_d_103_12483)">
<path d="M207.059 504.139C194.933 502.305 194.234 519.043 195.399 527.641C195.399 551.143 215.219 536.24 227.462 537.386C239.704 538.533 237.955 519.616 227.462 516.75C216.968 513.884 222.216 506.432 207.059 504.139Z" fill="#807353"/>
</g>
<g filter="url(#filter1_d_103_12483)">
<path d="M91.0588 427.139C78.9331 425.305 78.2336 442.043 79.3995 450.641C79.3995 474.143 126.258 470.854 138.5 472C150.742 473.146 138.493 445.866 128 443C117.507 440.134 106.216 429.432 91.0588 427.139Z" fill="#807353"/>
</g>
<g filter="url(#filter2_d_103_12483)">
<path d="M149.412 96.0619C143.97 95.2472 143.656 102.681 144.179 106.499C144.179 116.936 165.21 115.475 170.705 115.984C176.199 116.494 170.702 104.378 165.992 103.106C161.282 101.833 156.215 97.0801 149.412 96.0619Z" fill="#8E8263"/>
</g>
<g filter="url(#filter3_d_103_12483)">
<path d="M4.41217 263.062C-1.03002 262.247 -1.34399 269.681 -0.820703 273.499C-0.820703 283.936 20.21 282.475 25.7046 282.984C31.1991 283.494 25.7016 271.378 20.992 270.106C16.2824 268.833 11.2149 264.08 4.41217 263.062Z" fill="#8E8263"/>
</g>
<g filter="url(#filter4_d_103_12483)">
<path d="M494.014 601.944C497.017 602.677 497.19 595.987 496.901 592.551C496.901 583.157 485.298 584.472 482.266 584.014C479.235 583.556 482.268 594.459 484.866 595.605C487.465 596.751 490.261 601.028 494.014 601.944Z" fill="#8E8263"/>
</g>
<g filter="url(#filter5_d_103_12483)">
<path d="M549.412 384.062C543.97 383.247 543.656 390.681 544.179 394.499C544.179 404.936 565.21 403.475 570.705 403.984C576.199 404.494 570.702 392.378 565.992 391.106C561.282 389.833 556.215 385.08 549.412 384.062Z" fill="#8E8263"/>
</g>
<g filter="url(#filter6_d_103_12483)">
<path d="M607.563 637.01C628.053 639.815 628.894 611.928 626.752 597.634C626.275 558.497 547.301 564.939 526.628 563.282C505.954 561.624 527.17 606.801 544.928 611.358C562.686 615.915 581.949 633.504 607.563 637.01Z" fill="#A89A77"/>
</g>
<g filter="url(#filter7_d_103_12483)">
<path d="M250.226 488.627C281.327 489.616 277.937 446.737 272.355 425.174C265.122 365.266 219.797 409.282 188.614 410.082C157.432 410.881 167.657 458.568 194.965 462.684C222.272 466.799 211.351 487.39 250.226 488.627Z" fill="#8E8263"/>
</g>
<g filter="url(#filter8_d_103_12483)">
<path d="M220.202 79.8562L198.892 94.9713C198.017 95.5922 197.788 96.7934 198.373 97.6931L201.453 102.429C202.06 103.363 203.314 103.62 204.24 103.001L221.586 91.4168C221.797 91.2755 222.034 91.1759 222.283 91.1233L251.218 85.0005C252.174 84.7982 252.844 83.9347 252.802 82.9584L252.47 75.1754C252.417 73.9384 251.264 73.046 250.053 73.305L220.941 79.5318C220.675 79.5886 220.424 79.699 220.202 79.8562Z" fill="#807353"/>
</g>
<g filter="url(#filter9_d_103_12483)">
<path d="M144.329 572.386L168.962 598.208C169.605 598.883 170.63 599.023 171.432 598.546L178.402 594.399C179.487 593.753 179.71 592.275 178.862 591.338L160.186 570.699C160.014 570.508 159.879 570.285 159.791 570.043L147.092 535.307C146.794 534.49 146.002 533.96 145.133 533.995L132.983 534.487C131.627 534.542 130.718 535.903 131.187 537.176L143.899 571.697C143.994 571.953 144.14 572.188 144.329 572.386Z" fill="#807353"/>
</g>
<g filter="url(#filter10_d_103_12483)">
<path d="M250.368 94.4441C239.821 101.201 250.419 114.41 257.036 120.17C272.673 138.057 306.525 104.046 316.704 96.6873C326.883 89.3283 299.312 76.8021 289.334 81.6764C279.356 86.5507 263.551 85.9977 250.368 94.4441Z" fill="#A89A77"/>
</g>
<g filter="url(#filter11_d_103_12483)">
<path d="M-8.706 438.297C-44.1958 434.381 -46.2432 470.119 -42.8308 488.477C-42.8308 538.658 15.169 536.052 51 538.5C86.831 540.948 128.712 489.12 98 483C67.2877 476.88 35.6562 443.193 -8.706 438.297Z" fill="#8E8263"/>
</g>
<path d="M76 199.999C68.753 190.723 89.3333 176.833 97 177L135.501 193.999C109.001 211.499 88.5004 216 76 199.999Z" fill="#35290A"/>
<path d="M76 199.999C68.753 190.723 89.3333 176.833 97 177L135.501 193.999C109.001 211.499 88.5004 216 76 199.999Z" fill="url(#paint7_linear_103_12483)"/>
<path fill-rule="evenodd" clip-rule="evenodd" d="M92.6312 184.19C92.6663 184.19 92.7014 184.19 92.7364 184.189C94.3115 197.863 113.716 196.112 129.043 194.728L129.043 194.728C129.771 194.663 130.489 194.598 131.195 194.536C131.933 196.516 133.182 199.05 134.457 199.174C136.034 199.326 135.586 195.939 135.162 194.214C135.226 194.209 135.29 194.205 135.354 194.2C135.349 194.195 135.345 194.191 135.341 194.186C137.209 194.018 140.483 193.184 139.941 191.012C139.515 189.311 136.082 190.507 133.214 191.917C126.845 185.479 116.255 177.408 109.849 175.137C105.437 173.572 101.527 174.415 98.7171 175.545C97.6973 173.353 95.3562 171.82 92.6312 171.82C88.9689 171.82 86 174.589 86 178.005C86 181.421 88.9689 184.19 92.6312 184.19Z" fill="#5F5F5F"/>
<path fill-rule="evenodd" clip-rule="evenodd" d="M92.6312 184.19C92.6663 184.19 92.7014 184.19 92.7364 184.189C94.3115 197.863 113.716 196.112 129.043 194.728L129.043 194.728C129.771 194.663 130.489 194.598 131.195 194.536C131.933 196.516 133.182 199.05 134.457 199.174C136.034 199.326 135.586 195.939 135.162 194.214C135.226 194.209 135.29 194.205 135.354 194.2C135.349 194.195 135.345 194.191 135.341 194.186C137.209 194.018 140.483 193.184 139.941 191.012C139.515 189.311 136.082 190.507 133.214 191.917C126.845 185.479 116.255 177.408 109.849 175.137C105.437 173.572 101.527 174.415 98.7171 175.545C97.6973 173.353 95.3562 171.82 92.6312 171.82C88.9689 171.82 86 174.589 86 178.005C86 181.421 88.9689 184.19 92.6312 184.19Z" fill="url(#paint8_linear_103_12483)" fill-opacity="0.2"/>
<path d="M199.501 445.499C206.095 453.56 227.498 437.603 223.462 431.084L191.992 405.01C193.421 434.998 177.003 417.998 199.501 445.499Z" fill="#35290A"/>
<path d="M199.501 445.499C206.095 453.56 227.498 437.603 223.462 431.084L191.992 405.01C193.421 434.998 177.003 417.998 199.501 445.499Z" fill="url(#paint9_linear_103_12483)"/>
<path fill-rule="evenodd" clip-rule="evenodd" d="M224.319 427.115C224.287 427.101 224.255 427.086 224.222 427.072C228.433 413.968 210.037 407.552 195.506 402.483L195.506 402.483C194.816 402.243 194.136 402.005 193.466 401.77C193.612 399.662 193.521 396.838 192.411 396.199C191.037 395.409 190.047 398.679 189.721 400.426C189.661 400.404 189.601 400.381 189.541 400.359C189.542 400.365 189.544 400.371 189.546 400.377C187.775 399.758 184.449 399.166 184.047 401.369C183.731 403.094 187.352 403.422 190.546 403.322C193.689 411.815 200.002 423.538 204.899 428.252C208.272 431.499 212.18 432.346 215.206 432.476C215.23 434.893 216.729 437.256 219.211 438.381C222.547 439.893 226.394 438.597 227.805 435.486C229.215 432.375 227.654 428.627 224.319 427.115Z" fill="#454545"/>
<path fill-rule="evenodd" clip-rule="evenodd" d="M224.319 427.115C224.287 427.101 224.255 427.086 224.222 427.072C228.433 413.968 210.037 407.552 195.506 402.483L195.506 402.483C194.816 402.243 194.136 402.005 193.466 401.77C193.612 399.662 193.521 396.838 192.411 396.199C191.037 395.409 190.047 398.679 189.721 400.426C189.661 400.404 189.601 400.381 189.541 400.359C189.542 400.365 189.544 400.371 189.546 400.377C187.775 399.758 184.449 399.166 184.047 401.369C183.731 403.094 187.352 403.422 190.546 403.322C193.689 411.815 200.002 423.538 204.899 428.252C208.272 431.499 212.18 432.346 215.206 432.476C215.23 434.893 216.729 437.256 219.211 438.381C222.547 439.893 226.394 438.597 227.805 435.486C229.215 432.375 227.654 428.627 224.319 427.115Z" fill="url(#paint10_linear_103_12483)" fill-opacity="0.2"/>
<path d="M378 349.179C370.753 339.903 390.855 332.013 398.522 332.179L437.022 349.179C410.522 366.679 390.5 365.179 378 349.179Z" fill="#35290A"/>
<path d="M378 349.179C370.753 339.903 390.855 332.013 398.522 332.179L437.022 349.179C410.522 366.679 390.5 365.179 378 349.179Z" fill="url(#paint11_linear_103_12483)"/>
<path fill-rule="evenodd" clip-rule="evenodd" d="M394.153 339.37C394.188 339.37 394.223 339.369 394.258 339.369C395.833 353.043 415.237 351.291 430.565 349.908L430.565 349.908C431.292 349.842 432.01 349.778 432.717 349.715C433.454 351.695 434.704 354.23 435.979 354.353C437.556 354.506 437.107 351.119 436.683 349.393C436.747 349.389 436.811 349.384 436.875 349.38C436.871 349.375 436.867 349.37 436.862 349.365C438.731 349.198 442.005 348.364 441.462 346.192C441.037 344.49 437.603 345.687 434.736 347.096C428.367 340.658 417.776 332.588 411.37 330.316C406.958 328.752 403.048 329.594 400.239 330.725C399.219 328.533 396.878 327 394.153 327C390.49 327 387.521 329.769 387.521 333.185C387.521 336.601 390.49 339.37 394.153 339.37Z" fill="#5F5F5F"/>
<path fill-rule="evenodd" clip-rule="evenodd" d="M394.153 339.37C394.188 339.37 394.223 339.369 394.258 339.369C395.833 353.043 415.237 351.291 430.565 349.908L430.565 349.908C431.292 349.842 432.01 349.778 432.717 349.715C433.454 351.695 434.704 354.23 435.979 354.353C437.556 354.506 437.107 351.119 436.683 349.393C436.747 349.389 436.811 349.384 436.875 349.38C436.871 349.375 436.867 349.37 436.862 349.365C438.731 349.198 442.005 348.364 441.462 346.192C441.037 344.49 437.603 345.687 434.736 347.096C428.367 340.658 417.776 332.588 411.37 330.316C406.958 328.752 403.048 329.594 400.239 330.725C399.219 328.533 396.878 327 394.153 327C390.49 327 387.521 329.769 387.521 333.185C387.521 336.601 390.49 339.37 394.153 339.37Z" fill="url(#paint12_linear_103_12483)" fill-opacity="0.2"/>
<path d="M267.549 75.1791C260.303 65.9032 280.405 58.0127 288.071 58.1794L326.572 75.1793C300.072 92.6791 280.05 91.1794 267.549 75.1791Z" fill="#35290A"/>
<path d="M267.549 75.1791C260.303 65.9032 280.405 58.0127 288.071 58.1794L326.572 75.1793C300.072 92.6791 280.05 91.1794 267.549 75.1791Z" fill="url(#paint13_linear_103_12483)"/>
<path fill-rule="evenodd" clip-rule="evenodd" d="M283.702 65.3697C283.738 65.3697 283.773 65.3695 283.808 65.369C285.383 79.0427 304.787 77.2914 320.115 75.908L320.115 75.908C320.842 75.8424 321.56 75.7775 322.267 75.7153C323.004 77.6955 324.254 80.23 325.528 80.3534C327.106 80.506 326.657 77.1191 326.233 75.3933C326.297 75.3888 326.361 75.3843 326.425 75.3799C326.421 75.3751 326.416 75.3702 326.412 75.3654C328.281 75.1982 331.555 74.3637 331.012 72.1919C330.586 70.4903 327.153 71.6865 324.286 73.0964C317.917 66.6584 307.326 58.5878 300.92 56.3162C296.508 54.7516 292.598 55.5943 289.788 56.7248C288.769 54.533 286.427 53 283.702 53C280.04 53 277.071 55.7691 277.071 59.1849C277.071 62.6007 280.04 65.3697 283.702 65.3697Z" fill="#5F5F5F"/>
<path fill-rule="evenodd" clip-rule="evenodd" d="M283.702 65.3697C283.738 65.3697 283.773 65.3695 283.808 65.369C285.383 79.0427 304.787 77.2914 320.115 75.908L320.115 75.908C320.842 75.8424 321.56 75.7775 322.267 75.7153C323.004 77.6955 324.254 80.23 325.528 80.3534C327.106 80.506 326.657 77.1191 326.233 75.3933C326.297 75.3888 326.361 75.3843 326.425 75.3799C326.421 75.3751 326.416 75.3702 326.412 75.3654C328.281 75.1982 331.555 74.3637 331.012 72.1919C330.586 70.4903 327.153 71.6865 324.286 73.0964C317.917 66.6584 307.326 58.5878 300.92 56.3162C296.508 54.7516 292.598 55.5943 289.788 56.7248C288.769 54.533 286.427 53 283.702 53C280.04 53 277.071 55.7691 277.071 59.1849C277.071 62.6007 280.04 65.3697 283.702 65.3697Z" fill="url(#paint14_linear_103_12483)" fill-opacity="0.2"/>
<path d="M508.999 458.688C501.752 449.412 522.602 441.521 530.269 441.688L561.269 458.688C547.77 471.688 521.5 474.688 508.999 458.688Z" fill="#35290A"/>
<path d="M508.999 458.688C501.752 449.412 522.602 441.521 530.269 441.688L561.269 458.688C547.77 471.688 521.5 474.688 508.999 458.688Z" fill="url(#paint15_linear_103_12483)"/>
<path fill-rule="evenodd" clip-rule="evenodd" d="M555.738 449.154C555.702 449.155 555.667 449.156 555.632 449.157C553.707 435.528 534.354 437.776 519.067 439.552L519.067 439.552C518.342 439.636 517.626 439.72 516.921 439.8C516.133 437.839 514.819 435.338 513.542 435.247C511.961 435.135 512.496 438.509 512.964 440.223C512.9 440.23 512.836 440.236 512.773 440.242C512.777 440.247 512.781 440.251 512.786 440.256C510.922 440.471 507.671 441.389 508.269 443.546C508.738 445.236 512.139 443.953 514.97 442.47C521.502 448.742 532.296 456.539 538.757 458.646C543.208 460.097 547.095 459.154 549.875 457.952C550.951 460.117 553.33 461.589 556.055 461.52C559.716 461.426 562.613 458.581 562.525 455.167C562.438 451.752 559.399 449.06 555.738 449.154Z" fill="#5F5F5F"/>
<path fill-rule="evenodd" clip-rule="evenodd" d="M555.738 449.154C555.702 449.155 555.667 449.156 555.632 449.157C553.707 435.528 534.354 437.776 519.067 439.552L519.067 439.552C518.342 439.636 517.626 439.72 516.921 439.8C516.133 437.839 514.819 435.338 513.542 435.247C511.961 435.135 512.496 438.509 512.964 440.223C512.9 440.23 512.836 440.236 512.773 440.242C512.777 440.247 512.781 440.251 512.786 440.256C510.922 440.471 507.671 441.389 508.269 443.546C508.738 445.236 512.139 443.953 514.97 442.47C521.502 448.742 532.296 456.539 538.757 458.646C543.208 460.097 547.095 459.154 549.875 457.952C550.951 460.117 553.33 461.589 556.055 461.52C559.716 461.426 562.613 458.581 562.525 455.167C562.438 451.752 559.399 449.06 555.738 449.154Z" fill="url(#paint16_linear_103_12483)" fill-opacity="0.2"/>
<path d="M507.524 136.138C496.975 130.915 511.121 122.023 518.103 118.854L560.168 117.505C536.102 139.05 525.72 145.147 507.524 136.138Z" fill="#2E2620"/>
<path d="M507.524 136.138C496.975 130.915 511.121 122.023 518.103 118.854L560.168 117.505C536.102 139.05 525.72 145.147 507.524 136.138Z" fill="url(#paint17_linear_103_12483)"/>
<path fill-rule="evenodd" clip-rule="evenodd" d="M520.058 124.98C520.09 124.964 520.121 124.949 520.153 124.933C527.494 136.576 544.226 126.595 557.443 118.711L557.443 118.711C558.07 118.337 558.689 117.968 559.299 117.605C560.821 119.071 563.045 120.814 564.248 120.374C565.735 119.828 563.865 116.97 562.735 115.598C562.791 115.566 562.846 115.534 562.902 115.503C562.896 115.5 562.89 115.497 562.884 115.495C564.496 114.535 567.086 112.365 565.656 110.643C564.536 109.293 561.959 111.858 559.985 114.371C551.456 111.325 538.415 108.637 531.658 109.363C527.003 109.863 523.844 112.316 521.801 114.552C519.932 113.018 517.158 112.65 514.702 113.83C511.401 115.416 509.924 119.197 511.403 122.276C512.882 125.355 516.757 126.565 520.058 124.98Z" fill="#5F5F5F"/>
<path fill-rule="evenodd" clip-rule="evenodd" d="M520.058 124.98C520.09 124.964 520.121 124.949 520.153 124.933C527.494 136.576 544.226 126.595 557.443 118.711L557.443 118.711C558.07 118.337 558.689 117.968 559.299 117.605C560.821 119.071 563.045 120.814 564.248 120.374C565.735 119.828 563.865 116.97 562.735 115.598C562.791 115.566 562.846 115.534 562.902 115.503C562.896 115.5 562.89 115.497 562.884 115.495C564.496 114.535 567.086 112.365 565.656 110.643C564.536 109.293 561.959 111.858 559.985 114.371C551.456 111.325 538.415 108.637 531.658 109.363C527.003 109.863 523.844 112.316 521.801 114.552C519.932 113.018 517.158 112.65 514.702 113.83C511.401 115.416 509.924 119.197 511.403 122.276C512.882 125.355 516.757 126.565 520.058 124.98Z" fill="url(#paint18_linear_103_12483)" fill-opacity="0.2"/>
<path d="M732.106 436.225C720.633 433.593 732.33 421.661 738.386 416.958L778.99 405.885C760.58 432.426 751.896 440.766 732.106 436.225Z" fill="#085263"/>
<path d="M732.106 436.225C720.633 433.593 732.33 421.661 738.386 416.958L778.99 405.885C760.58 432.426 751.896 440.766 732.106 436.225Z" fill="url(#paint19_linear_103_12483)"/>
<path fill-rule="evenodd" clip-rule="evenodd" d="M741.709 422.463C741.736 422.44 741.763 422.418 741.79 422.396C751.632 432.018 765.592 418.426 776.619 407.691L776.619 407.691C777.142 407.181 777.658 406.678 778.168 406.185C779.988 407.257 782.556 408.437 783.623 407.729C784.944 406.853 782.461 404.507 781.044 403.434C781.091 403.39 781.138 403.347 781.184 403.303C781.178 403.302 781.172 403.301 781.165 403.3C782.51 401.992 784.526 399.28 782.736 397.937C781.333 396.884 779.422 399.977 778.084 402.879C769.082 401.896 755.773 402.306 749.368 404.581C744.956 406.148 742.453 409.266 740.984 411.915C738.811 410.857 736.027 411.142 733.911 412.86C731.068 415.169 730.509 419.19 732.662 421.841C734.816 424.493 738.866 424.771 741.709 422.463Z" fill="#5F5F5F"/>
<path fill-rule="evenodd" clip-rule="evenodd" d="M741.709 422.463C741.736 422.44 741.763 422.418 741.79 422.396C751.632 432.018 765.592 418.426 776.619 407.691L776.619 407.691C777.142 407.181 777.658 406.678 778.168 406.185C779.988 407.257 782.556 408.437 783.623 407.729C784.944 406.853 782.461 404.507 781.044 403.434C781.091 403.39 781.138 403.347 781.184 403.303C781.178 403.302 781.172 403.301 781.165 403.3C782.51 401.992 784.526 399.28 782.736 397.937C781.333 396.884 779.422 399.977 778.084 402.879C769.082 401.896 755.773 402.306 749.368 404.581C744.956 406.148 742.453 409.266 740.984 411.915C738.811 410.857 736.027 411.142 733.911 412.86C731.068 415.169 730.509 419.19 732.662 421.841C734.816 424.493 738.866 424.771 741.709 422.463Z" fill="url(#paint20_linear_103_12483)" fill-opacity="0.2"/>
<path d="M447.988 568.844C455.988 564.044 490.321 563.844 506.488 565.844C506.488 567.844 504.688 572.844 497.488 576.844C488.489 581.844 464.217 585.134 442.987 578.844C429.488 574.844 437.988 574.844 447.988 568.844Z" fill="#35290A"/>
<path d="M447.988 568.844C455.988 564.044 490.321 563.844 506.488 565.844C506.488 567.844 504.688 572.844 497.488 576.844C488.489 581.844 464.217 585.134 442.987 578.844C429.488 574.844 437.988 574.844 447.988 568.844Z" fill="url(#paint21_linear_103_12483)"/>
<path fill-rule="evenodd" clip-rule="evenodd" d="M496.709 557.688C496.673 557.706 496.637 557.723 496.601 557.741C488.281 544.427 469.149 555.736 454.038 564.669C453.32 565.093 452.612 565.511 451.915 565.922C450.185 564.243 447.656 562.244 446.283 562.741C444.583 563.357 446.704 566.626 447.986 568.196C447.923 568.232 447.859 568.268 447.796 568.304C447.802 568.306 447.809 568.309 447.816 568.312C445.973 569.4 443.008 571.863 444.632 573.835C445.903 575.379 448.854 572.465 451.118 569.608C460.832 573.12 475.695 576.247 483.407 575.449C488.719 574.899 492.334 572.116 494.675 569.575C496.799 571.333 499.961 571.766 502.769 570.431C506.541 568.637 508.243 564.33 506.57 560.811C504.897 557.293 500.482 555.894 496.709 557.688Z" fill="#7A7979"/>
<path fill-rule="evenodd" clip-rule="evenodd" d="M496.709 557.688C496.673 557.706 496.637 557.723 496.601 557.741C488.281 544.427 469.149 555.736 454.038 564.669C453.32 565.093 452.612 565.511 451.915 565.922C450.185 564.243 447.656 562.244 446.283 562.741C444.583 563.357 446.704 566.626 447.986 568.196C447.923 568.232 447.859 568.268 447.796 568.304C447.802 568.306 447.809 568.309 447.816 568.312C445.973 569.4 443.008 571.863 444.632 573.835C445.903 575.379 448.854 572.465 451.118 569.608C460.832 573.12 475.695 576.247 483.407 575.449C488.719 574.899 492.334 572.116 494.675 569.575C496.799 571.333 499.961 571.766 502.769 570.431C506.541 568.637 508.243 564.33 506.57 560.811C504.897 557.293 500.482 555.894 496.709 557.688Z" fill="url(#paint22_linear_103_12483)" fill-opacity="0.2"/>
<path d="M582.988 504.195C590.988 499.395 625.321 499.195 641.488 501.195C641.488 503.195 639.688 508.195 632.488 512.195C623.489 517.195 599.217 520.486 577.987 514.195C564.488 510.195 572.988 510.195 582.988 504.195Z" fill="#35290A"/>
<path d="M582.988 504.195C590.988 499.395 625.321 499.195 641.488 501.195C641.488 503.195 639.688 508.195 632.488 512.195C623.489 517.195 599.217 520.486 577.987 514.195C564.488 510.195 572.988 510.195 582.988 504.195Z" fill="url(#paint23_linear_103_12483)"/>
<path fill-rule="evenodd" clip-rule="evenodd" d="M632.139 493.688C632.103 493.706 632.067 493.723 632.031 493.741C623.71 480.427 604.579 491.736 589.467 500.669C588.75 501.093 588.042 501.511 587.344 501.922C585.615 500.243 583.086 498.244 581.712 498.741C580.013 499.357 582.134 502.626 583.416 504.196C583.352 504.232 583.289 504.268 583.226 504.304C583.232 504.306 583.239 504.309 583.245 504.312C581.403 505.4 578.438 507.863 580.061 509.835C581.333 511.379 584.284 508.465 586.547 505.608C596.262 509.12 611.125 512.247 618.837 511.449C624.149 510.899 627.764 508.116 630.104 505.575C632.229 507.333 635.391 507.766 638.198 506.431C641.971 504.637 643.673 500.33 642 496.811C640.327 493.293 635.912 491.894 632.139 493.688Z" fill="#5F5F5F"/>
<path fill-rule="evenodd" clip-rule="evenodd" d="M632.139 493.688C632.103 493.706 632.067 493.723 632.031 493.741C623.71 480.427 604.579 491.736 589.467 500.669C588.75 501.093 588.042 501.511 587.344 501.922C585.615 500.243 583.086 498.244 581.712 498.741C580.013 499.357 582.134 502.626 583.416 504.196C583.352 504.232 583.289 504.268 583.226 504.304C583.232 504.306 583.239 504.309 583.245 504.312C581.403 505.4 578.438 507.863 580.061 509.835C581.333 511.379 584.284 508.465 586.547 505.608C596.262 509.12 611.125 512.247 618.837 511.449C624.149 510.899 627.764 508.116 630.104 505.575C632.229 507.333 635.391 507.766 638.198 506.431C641.971 504.637 643.673 500.33 642 496.811C640.327 493.293 635.912 491.894 632.139 493.688Z" fill="url(#paint24_linear_103_12483)" fill-opacity="0.2"/>
</g>
<defs>
<filter id="filter0_d_103_12483" x="191" y="504" width="45" height="41" filterUnits="userSpaceOnUse" color-interpolation-filters="sRGB">
<feFlood flood-opacity="0" result="BackgroundImageFix"/>
<feColorMatrix in="SourceAlpha" type="matrix" values="0 0 0 0 0 0 0 0 0 0 0 0 0 0 0 0 0 0 127 0" result="hardAlpha"/>
<feOffset dx="-4" dy="4"/>
<feComposite in2="hardAlpha" operator="out"/>
<feColorMatrix type="matrix" values="0 0 0 0 0 0 0 0 0 0 0 0 0 0 0 0 0 0 0.5 0"/>
<feBlend mode="normal" in2="BackgroundImageFix" result="effect1_dropShadow_103_12483"/>
<feBlend mode="normal" in="SourceGraphic" in2="effect1_dropShadow_103_12483" result="shape"/>
</filter>
<filter id="filter1_d_103_12483" x="75" y="427" width="68.6143" height="49.0352" filterUnits="userSpaceOnUse" color-interpolation-filters="sRGB">
<feFlood flood-opacity="0" result="BackgroundImageFix"/>
<feColorMatrix in="SourceAlpha" type="matrix" values="0 0 0 0 0 0 0 0 0 0 0 0 0 0 0 0 0 0 127 0" result="hardAlpha"/>
<feOffset dx="-4" dy="4"/>
<feComposite in2="hardAlpha" operator="out"/>
<feColorMatrix type="matrix" values="0 0 0 0 0 0 0 0 0 0 0 0 0 0 0 0 0 0 0.5 0"/>
<feBlend mode="normal" in2="BackgroundImageFix" result="effect1_dropShadow_103_12483"/>
<feBlend mode="normal" in="SourceGraphic" in2="effect1_dropShadow_103_12483" result="shape"/>
</filter>
<filter id="filter2_d_103_12483" x="140" y="96" width="33" height="24" filterUnits="userSpaceOnUse" color-interpolation-filters="sRGB">
<feFlood flood-opacity="0" result="BackgroundImageFix"/>
<feColorMatrix in="SourceAlpha" type="matrix" values="0 0 0 0 0 0 0 0 0 0 0 0 0 0 0 0 0 0 127 0" result="hardAlpha"/>
<feOffset dx="-4" dy="4"/>
<feComposite in2="hardAlpha" operator="out"/>
<feColorMatrix type="matrix" values="0 0 0 0 0 0 0 0 0 0 0 0 0 0 0 0 0 0 0.5 0"/>
<feBlend mode="normal" in2="BackgroundImageFix" result="effect1_dropShadow_103_12483"/>
<feBlend mode="normal" in="SourceGraphic" in2="effect1_dropShadow_103_12483" result="shape"/>
</filter>
<filter id="filter3_d_103_12483" x="-5" y="263" width="33" height="24" filterUnits="userSpaceOnUse" color-interpolation-filters="sRGB">
<feFlood flood-opacity="0" result="BackgroundImageFix"/>
<feColorMatrix in="SourceAlpha" type="matrix" values="0 0 0 0 0 0 0 0 0 0 0 0 0 0 0 0 0 0 127 0" result="hardAlpha"/>
<feOffset dx="-4" dy="4"/>
<feComposite in2="hardAlpha" operator="out"/>
<feColorMatrix type="matrix" values="0 0 0 0 0 0 0 0 0 0 0 0 0 0 0 0 0 0 0.5 0"/>
<feBlend mode="normal" in2="BackgroundImageFix" result="effect1_dropShadow_103_12483"/>
<feBlend mode="normal" in="SourceGraphic" in2="effect1_dropShadow_103_12483" result="shape"/>
</filter>
<filter id="filter4_d_103_12483" x="477" y="584" width="20" height="22" filterUnits="userSpaceOnUse" color-interpolation-filters="sRGB">
<feFlood flood-opacity="0" result="BackgroundImageFix"/>
<feColorMatrix in="SourceAlpha" type="matrix" values="0 0 0 0 0 0 0 0 0 0 0 0 0 0 0 0 0 0 127 0" result="hardAlpha"/>
<feOffset dx="-4" dy="4"/>
<feComposite in2="hardAlpha" operator="out"/>
<feColorMatrix type="matrix" values="0 0 0 0 0 0 0 0 0 0 0 0 0 0 0 0 0 0 0.5 0"/>
<feBlend mode="normal" in2="BackgroundImageFix" result="effect1_dropShadow_103_12483"/>
<feBlend mode="normal" in="SourceGraphic" in2="effect1_dropShadow_103_12483" result="shape"/>
</filter>
<filter id="filter5_d_103_12483" x="540" y="384" width="33" height="24" filterUnits="userSpaceOnUse" color-interpolation-filters="sRGB">
<feFlood flood-opacity="0" result="BackgroundImageFix"/>
<feColorMatrix in="SourceAlpha" type="matrix" values="0 0 0 0 0 0 0 0 0 0 0 0 0 0 0 0 0 0 127 0" result="hardAlpha"/>
<feOffset dx="-4" dy="4"/>
<feComposite in2="hardAlpha" operator="out"/>
<feColorMatrix type="matrix" values="0 0 0 0 0 0 0 0 0 0 0 0 0 0 0 0 0 0 0.5 0"/>
<feBlend mode="normal" in2="BackgroundImageFix" result="effect1_dropShadow_103_12483"/>
<feBlend mode="normal" in="SourceGraphic" in2="effect1_dropShadow_103_12483" result="shape"/>
</filter>
<filter id="filter6_d_103_12483" x="514.104" y="563.237" width="113.452" height="77.9697" filterUnits="userSpaceOnUse" color-interpolation-filters="sRGB">
<feFlood flood-opacity="0" result="BackgroundImageFix"/>
<feColorMatrix in="SourceAlpha" type="matrix" values="0 0 0 0 0 0 0 0 0 0 0 0 0 0 0 0 0 0 127 0" result="hardAlpha"/>
<feOffset dx="-4" dy="4"/>
<feComposite in2="hardAlpha" operator="out"/>
<feColorMatrix type="matrix" values="0 0 0 0 0 0 0 0 0 0 0 0 0 0 0 0 0 0 0.5 0"/>
<feBlend mode="normal" in2="BackgroundImageFix" result="effect1_dropShadow_103_12483"/>
<feBlend mode="normal" in="SourceGraphic" in2="effect1_dropShadow_103_12483" result="shape"/>
</filter>
<filter id="filter7_d_103_12483" x="165.424" y="393.749" width="110.603" height="98.8945" filterUnits="userSpaceOnUse" color-interpolation-filters="sRGB">
<feFlood flood-opacity="0" result="BackgroundImageFix"/>
<feColorMatrix in="SourceAlpha" type="matrix" values="0 0 0 0 0 0 0 0 0 0 0 0 0 0 0 0 0 0 127 0" result="hardAlpha"/>
<feOffset dx="-4" dy="4"/>
<feComposite in2="hardAlpha" operator="out"/>
<feColorMatrix type="matrix" values="0 0 0 0 0 0 0 0 0 0 0 0 0 0 0 0 0 0 0.5 0"/>
<feBlend mode="normal" in2="BackgroundImageFix" result="effect1_dropShadow_103_12483"/>
<feBlend mode="normal" in="SourceGraphic" in2="effect1_dropShadow_103_12483" result="shape"/>
</filter>
<filter id="filter8_d_103_12483" x="194.049" y="73.2598" width="58.7549" height="34.0791" filterUnits="userSpaceOnUse" color-interpolation-filters="sRGB">
<feFlood flood-opacity="0" result="BackgroundImageFix"/>
<feColorMatrix in="SourceAlpha" type="matrix" values="0 0 0 0 0 0 0 0 0 0 0 0 0 0 0 0 0 0 127 0" result="hardAlpha"/>
<feOffset dx="-4" dy="4"/>
<feComposite in2="hardAlpha" operator="out"/>
<feColorMatrix type="matrix" values="0 0 0 0 0 0 0 0 0 0 0 0 0 0 0 0 0 0 0.6 0"/>
<feBlend mode="normal" in2="BackgroundImageFix" result="effect1_dropShadow_103_12483"/>
<feBlend mode="normal" in="SourceGraphic" in2="effect1_dropShadow_103_12483" result="shape"/>
</filter>
<filter id="filter9_d_103_12483" x="127.062" y="533.993" width="52.3174" height="68.835" filterUnits="userSpaceOnUse" color-interpolation-filters="sRGB">
<feFlood flood-opacity="0" result="BackgroundImageFix"/>
<feColorMatrix in="SourceAlpha" type="matrix" values="0 0 0 0 0 0 0 0 0 0 0 0 0 0 0 0 0 0 127 0" result="hardAlpha"/>
<feOffset dx="-4" dy="4"/>
<feComposite in2="hardAlpha" operator="out"/>
<feColorMatrix type="matrix" values="0 0 0 0 0 0 0 0 0 0 0 0 0 0 0 0 0 0 0.6 0"/>
<feBlend mode="normal" in2="BackgroundImageFix" result="effect1_dropShadow_103_12483"/>
<feBlend mode="normal" in="SourceGraphic" in2="effect1_dropShadow_103_12483" result="shape"/>
</filter>
<filter id="filter10_d_103_12483" x="241.905" y="80.5801" width="77.0186" height="48.7246" filterUnits="userSpaceOnUse" color-interpolation-filters="sRGB">
<feFlood flood-opacity="0" result="BackgroundImageFix"/>
<feColorMatrix in="SourceAlpha" type="matrix" values="0 0 0 0 0 0 0 0 0 0 0 0 0 0 0 0 0 0 127 0" result="hardAlpha"/>
<feOffset dx="-4" dy="4"/>
<feComposite in2="hardAlpha" operator="out"/>
<feColorMatrix type="matrix" values="0 0 0 0 0 0 0 0 0 0 0 0 0 0 0 0 0 0 0.5 0"/>
<feBlend mode="normal" in2="BackgroundImageFix" result="effect1_dropShadow_103_12483"/>
<feBlend mode="normal" in="SourceGraphic" in2="effect1_dropShadow_103_12483" result="shape"/>
</filter>
<filter id="filter11_d_103_12483" x="-48" y="438" width="156.658" height="104.584" filterUnits="userSpaceOnUse" color-interpolation-filters="sRGB">
<feFlood flood-opacity="0" result="BackgroundImageFix"/>
<feColorMatrix in="SourceAlpha" type="matrix" values="0 0 0 0 0 0 0 0 0 0 0 0 0 0 0 0 0 0 127 0" result="hardAlpha"/>
<feOffset dx="-4" dy="4"/>
<feComposite in2="hardAlpha" operator="out"/>
<feColorMatrix type="matrix" values="0 0 0 0 0 0 0 0 0 0 0 0 0 0 0 0 0 0 0.5 0"/>
<feBlend mode="normal" in2="BackgroundImageFix" result="effect1_dropShadow_103_12483"/>
<feBlend mode="normal" in="SourceGraphic" in2="effect1_dropShadow_103_12483" result="shape"/>
</filter>
<linearGradient id="paint0_linear_103_12483" x1="442" y1="367" x2="556.5" y2="301.5" gradientUnits="userSpaceOnUse">
<stop stop-color="#E7D6BF"/>
<stop offset="1" stop-color="#E7D6BF" stop-opacity="0"/>
</linearGradient>
<linearGradient id="paint1_linear_103_12483" x1="544" y1="327" x2="575" y2="311" gradientUnits="userSpaceOnUse">
<stop stop-color="#E7D6BF"/>
<stop offset="1" stop-color="#E7D6BF" stop-opacity="0"/>
</linearGradient>
<linearGradient id="paint2_linear_103_12483" x1="614.5" y1="282.5" x2="676.5" y2="271" gradientUnits="userSpaceOnUse">
<stop stop-color="#D9D9D9"/>
<stop offset="1" stop-color="#D9D9D9" stop-opacity="0"/>
</linearGradient>
<linearGradient id="paint3_linear_103_12483" x1="193" y1="354" x2="-182.5" y2="481" gradientUnits="userSpaceOnUse">
<stop stop-color="#B0A18C"/>
<stop offset="1" stop-color="#C7B092" stop-opacity="0"/>
</linearGradient>
<linearGradient id="paint4_linear_103_12483" x1="729" y1="-72" x2="679" y2="488.5" gradientUnits="userSpaceOnUse">
<stop stop-color="#02586B"/>
<stop offset="1" stop-color="#1A676C" stop-opacity="0"/>
</linearGradient>
<linearGradient id="paint5_linear_103_12483" x1="735.5" y1="434" x2="828.645" y2="457.911" gradientUnits="userSpaceOnUse">
<stop stop-color="#02586B"/>
<stop offset="1" stop-color="#1A676C" stop-opacity="0"/>
</linearGradient>
<linearGradient id="paint6_linear_103_12483" x1="27.7614" y1="462.097" x2="26.8927" y2="453.121" gradientUnits="userSpaceOnUse">
<stop stop-color="white"/>
<stop offset="1" stop-color="white" stop-opacity="0"/>
</linearGradient>
<linearGradient id="paint7_linear_103_12483" x1="79.5" y1="205" x2="91" y2="193" gradientUnits="userSpaceOnUse">
<stop/>
<stop offset="1" stop-opacity="0"/>
</linearGradient>
<linearGradient id="paint8_linear_103_12483" x1="98.5" y1="192.5" x2="104" y2="180" gradientUnits="userSpaceOnUse">
<stop stop-color="white"/>
<stop offset="1" stop-color="white" stop-opacity="0"/>
</linearGradient>
<linearGradient id="paint9_linear_103_12483" x1="213.009" y1="457.669" x2="218.403" y2="444.008" gradientUnits="userSpaceOnUse">
<stop/>
<stop offset="1" stop-opacity="0"/>
</linearGradient>
<linearGradient id="paint10_linear_103_12483" x1="209.001" y1="432" x2="214.001" y2="422.5" gradientUnits="userSpaceOnUse">
<stop stop-color="white"/>
<stop offset="1" stop-color="white" stop-opacity="0"/>
</linearGradient>
<linearGradient id="paint11_linear_103_12483" x1="380.993" y1="360.179" x2="392.493" y2="348.179" gradientUnits="userSpaceOnUse">
<stop/>
<stop offset="1" stop-opacity="0"/>
</linearGradient>
<linearGradient id="paint12_linear_103_12483" x1="400.021" y1="347.679" x2="405.521" y2="335.179" gradientUnits="userSpaceOnUse">
<stop stop-color="white"/>
<stop offset="1" stop-color="white" stop-opacity="0"/>
</linearGradient>
<linearGradient id="paint13_linear_103_12483" x1="270.543" y1="86.1792" x2="282.043" y2="74.1792" gradientUnits="userSpaceOnUse">
<stop/>
<stop offset="1" stop-opacity="0"/>
</linearGradient>
<linearGradient id="paint14_linear_103_12483" x1="289.571" y1="73.6792" x2="295.071" y2="61.1792" gradientUnits="userSpaceOnUse">
<stop stop-color="white"/>
<stop offset="1" stop-color="white" stop-opacity="0"/>
</linearGradient>
<linearGradient id="paint15_linear_103_12483" x1="501.806" y1="467.868" x2="513.306" y2="455.868" gradientUnits="userSpaceOnUse">
<stop/>
<stop offset="1" stop-opacity="0"/>
</linearGradient>
<linearGradient id="paint16_linear_103_12483" x1="532.77" y1="454.687" x2="535.27" y2="447.188" gradientUnits="userSpaceOnUse">
<stop stop-color="white"/>
<stop offset="1" stop-color="white" stop-opacity="0"/>
</linearGradient>
<linearGradient id="paint17_linear_103_12483" x1="514.454" y1="151.67" x2="519.623" y2="135.874" gradientUnits="userSpaceOnUse">
<stop/>
<stop offset="1" stop-opacity="0"/>
</linearGradient>
<linearGradient id="paint18_linear_103_12483" x1="528.947" y1="129.928" x2="528.491" y2="116.279" gradientUnits="userSpaceOnUse">
<stop stop-color="white"/>
<stop offset="1" stop-color="white" stop-opacity="0"/>
</linearGradient>
<linearGradient id="paint19_linear_103_12483" x1="742.451" y1="449.726" x2="743.814" y2="433.161" gradientUnits="userSpaceOnUse">
<stop/>
<stop offset="1" stop-opacity="0"/>
</linearGradient>
<linearGradient id="paint20_linear_103_12483" x1="751.503" y1="425.214" x2="747.893" y2="412.043" gradientUnits="userSpaceOnUse">
<stop stop-color="white"/>
<stop offset="1" stop-color="white" stop-opacity="0"/>
</linearGradient>
<linearGradient id="paint21_linear_103_12483" x1="419.446" y1="582.635" x2="425.912" y2="569.012" gradientUnits="userSpaceOnUse">
<stop/>
<stop offset="1" stop-opacity="0"/>
</linearGradient>
<linearGradient id="paint22_linear_103_12483" x1="475.332" y1="574.097" x2="474.463" y2="565.121" gradientUnits="userSpaceOnUse">
<stop stop-color="white"/>
<stop offset="1" stop-color="white" stop-opacity="0"/>
</linearGradient>
<linearGradient id="paint23_linear_103_12483" x1="554.446" y1="517.986" x2="560.912" y2="504.363" gradientUnits="userSpaceOnUse">
<stop/>
<stop offset="1" stop-opacity="0"/>
</linearGradient>
<linearGradient id="paint24_linear_103_12483" x1="610.761" y1="510.097" x2="609.893" y2="501.121" gradientUnits="userSpaceOnUse">
<stop stop-color="white"/>
<stop offset="1" stop-color="white" stop-opacity="0"/>
</linearGradient>
<clipPath id="clip0_103_12483">
<rect width="816" height="626" fill="white"/>
</clipPath>
</defs>
</svg>
