<svg width="816" height="626" viewBox="0 0 816 626" fill="none" xmlns="http://www.w3.org/2000/svg">
<g clip-path="url(#clip0_103_11418)">
<rect width="816" height="626" fill="#1A54B0"/>
<path d="M450.5 121C442.9 67.4 367.333 16 330.5 -3H379L493.5 102.5L658.5 474L720.5 627L710 637.5C693.5 607.5 658.2 539.1 649 505.5C637.5 463.5 574.5 422 514.5 346.5C454.5 271 460 188 450.5 121Z" fill="#0B4298"/>
<path d="M239.499 206.5C205.099 155.3 230.667 39.6667 248.5 -7L435 -23.5L727 638.5L673.5 692C645.833 668.5 586.7 605.6 571.5 542C556.47 479.112 520.809 491.216 465.872 509.864L464 510.5C494.666 492 483 435.5 464 391.5C434.834 323.958 282.499 270.5 239.499 206.5Z" fill="url(#paint0_linear_103_11418)" fill-opacity="0.1"/>
<path d="M514 227C488.112 83.6762 394.507 9.21238 342.697 -14.4645C340.69 -15.3818 341.299 -18.6662 343.506 -18.7103L830.46 -28.4592C831.58 -28.4816 832.5 -27.5798 832.5 -26.4595V654.481C832.5 655.121 832.193 655.723 831.675 656.099L796.526 681.618C796.184 681.866 795.79 682.002 795.368 681.995C770.724 681.598 716.277 658.006 690.5 566C658 450 548.5 418 514 227Z" fill="#033385"/>
<path d="M292.748 33.0279C301.802 33.0667 316.004 46.8013 321.973 53.6638C362.306 60.1478 355.003 87.7795 348.138 84.6296C341.274 81.4798 310.426 98.5976 285.433 90.2511C260.441 81.9047 253.472 67.9555 255.571 49.2068C257.669 30.4581 281.43 32.9794 292.748 33.0279Z" fill="url(#paint1_radial_103_11418)"/>
<path d="M292.748 33.0279C301.802 33.0667 316.004 46.8013 321.973 53.6638C362.306 60.1478 355.003 87.7795 348.138 84.6296C341.274 81.4798 310.426 98.5976 285.433 90.2511C260.441 81.9047 253.472 67.9555 255.571 49.2068C257.669 30.4581 281.43 32.9794 292.748 33.0279Z" fill="url(#paint2_radial_103_11418)"/>
<path d="M400.363 302.817C409.417 302.856 423.619 316.59 429.588 323.453C469.922 329.937 462.618 357.569 455.753 354.419C448.889 351.269 418.041 368.387 393.048 360.04C368.056 351.694 361.088 337.745 363.186 318.996C365.285 300.247 389.045 302.768 400.363 302.817Z" fill="url(#paint3_radial_103_11418)"/>
<path d="M400.363 302.817C409.417 302.856 423.619 316.59 429.588 323.453C469.922 329.937 462.618 357.569 455.753 354.419C448.889 351.269 418.041 368.387 393.048 360.04C368.056 351.694 361.088 337.745 363.186 318.996C365.285 300.247 389.045 302.768 400.363 302.817Z" fill="url(#paint4_radial_103_11418)"/>
<path d="M533.363 413.817C542.417 413.856 556.619 427.59 562.588 434.453C602.922 440.937 595.618 468.569 588.753 465.419C581.889 462.269 551.041 479.387 526.048 471.04C501.056 462.694 494.088 448.745 496.186 429.996C498.285 411.247 522.045 413.768 533.363 413.817Z" fill="url(#paint5_radial_103_11418)"/>
<path d="M533.363 413.817C542.417 413.856 556.619 427.59 562.588 434.453C602.922 440.937 595.618 468.569 588.753 465.419C581.889 462.269 551.041 479.387 526.048 471.04C501.056 462.694 494.088 448.745 496.186 429.996C498.285 411.247 522.045 413.768 533.363 413.817Z" fill="url(#paint6_radial_103_11418)"/>
<path d="M596.702 469.996C606.807 467.251 627.738 475.958 636.939 480.655C684.3 474.43 686.423 502.973 677.603 502.085C668.782 501.197 640.76 526.97 609.806 526.708C578.851 526.445 565.903 515.31 561.278 496.821C556.653 478.332 584.071 473.429 596.702 469.996Z" fill="url(#paint7_radial_103_11418)"/>
<path d="M596.702 469.996C606.807 467.251 627.738 475.958 636.939 480.655C684.3 474.43 686.423 502.973 677.603 502.085C668.782 501.197 640.76 526.97 609.806 526.708C578.851 526.445 565.903 515.31 561.278 496.821C556.653 478.332 584.071 473.429 596.702 469.996Z" fill="url(#paint8_radial_103_11418)"/>
<path d="M450.89 533.685C460.995 530.939 481.925 539.646 491.127 544.343C538.487 538.118 540.611 566.662 531.79 565.774C522.97 564.886 494.948 590.659 463.993 590.396C433.039 590.133 420.091 578.999 415.465 560.509C410.84 542.02 438.258 537.117 450.89 533.685Z" fill="url(#paint9_radial_103_11418)"/>
<path d="M450.89 533.685C460.995 530.939 481.925 539.646 491.127 544.343C538.487 538.118 540.611 566.662 531.79 565.774C522.97 564.886 494.948 590.659 463.993 590.396C433.039 590.133 420.091 578.999 415.465 560.509C410.84 542.02 438.258 537.117 450.89 533.685Z" fill="url(#paint10_radial_103_11418)"/>
<path d="M567.743 227.32C546.157 83.9283 468.041 9.51038 424.923 -14.0579C423.053 -15.0804 423.73 -18.1687 425.861 -18.2199L830.952 -27.9508C832.075 -27.9778 833 -27.0747 833 -25.9513V654.608C833 655.187 832.75 655.737 832.314 656.116L803.166 681.508C802.802 681.825 802.353 682.003 801.87 681.99C781.25 681.441 736.135 657.717 714.738 566.082C687.671 450.163 596.475 418.186 567.743 227.32Z" fill="#123792"/>
<path d="M714.738 566.082C736.135 657.717 781.25 681.441 801.87 681.99C802.353 682.003 802.802 681.825 803.166 681.508L832.314 656.116C832.75 655.737 833 655.187 833 654.608V-25.9513C833 -27.0747 832.075 -27.9778 830.952 -27.9508L425.861 -18.2199C423.73 -18.1687 423.053 -15.0804 424.923 -14.0579C468.041 9.51038 546.157 83.9283 567.743 227.32C572.325 257.76 578.496 284.158 585.742 307.5" stroke="#0854CC" stroke-width="5" stroke-linecap="round"/>
<path d="M51.5 91C51.5 31.8 78.6667 14.5 122 -21L-70.5 -10.5V662.5H51.5C97.5 625.667 190.1 524.2 192.5 413C195.5 274 51.5 165 51.5 91Z" fill="url(#paint11_linear_103_11418)" fill-opacity="0.07"/>
<path d="M729 110.5C714.6 51.3 665.333 -0.833336 642.5 -19.5L835 -51.5V655C805 646.833 739 591.7 715 436.5C685 242.5 747 184.5 729 110.5Z" fill="url(#paint12_linear_103_11418)"/>
<path d="M746 436C736.8 322.4 790.167 222.333 818 186.5L838.5 649.5L792 681.5C780.5 647 755.2 549.6 746 436Z" fill="url(#paint13_linear_103_11418)"/>
<path d="M25.3802 411.086C35.822 411.877 52.6364 427.081 59.7384 434.584C106.454 444.552 98.9124 472.163 90.8963 468.377C82.8803 464.591 47.854 479.512 18.7686 468.915C-10.3167 458.318 -18.7965 443.495 -16.974 424.523C-15.1514 405.552 12.328 410.098 25.3802 411.086Z" fill="url(#paint14_radial_103_11418)"/>
<path d="M25.3802 411.086C35.822 411.877 52.6364 427.081 59.7384 434.584C106.454 444.552 98.9124 472.163 90.8963 468.377C82.8803 464.591 47.854 479.512 18.7686 468.915C-10.3167 458.318 -18.7965 443.495 -16.974 424.523C-15.1514 405.552 12.328 410.098 25.3802 411.086Z" fill="url(#paint15_radial_103_11418)"/>
<path d="M729.952 384.136C739.639 380.159 761.487 386.207 771.2 389.728C817.424 377.684 823.067 405.745 814.204 405.956C805.342 406.167 780.728 435.213 749.979 438.787C719.231 442.361 705.004 432.916 698.123 415.142C691.243 397.368 717.843 389.106 729.952 384.136Z" fill="url(#paint16_radial_103_11418)"/>
<path d="M512.23 86.8306C522.306 83.9793 543.326 92.467 552.576 97.0673C599.869 90.3471 602.291 118.867 593.461 118.071C584.632 117.275 556.881 143.34 525.926 143.402C494.97 143.463 481.907 132.464 477.088 114.024C472.269 95.5846 499.635 90.3949 512.23 86.8306Z" fill="url(#paint17_radial_103_11418)"/>
<path d="M104.818 145.187C115.092 147.212 129.983 164.305 136.144 172.598C181.346 188.041 170.579 214.561 163.07 209.85C155.56 205.139 119.01 215.797 91.3881 201.822C63.7664 187.847 57.1063 172.122 61.1681 153.501C65.2299 134.88 91.9754 142.656 104.818 145.187Z" fill="url(#paint18_radial_103_11418)"/>
<path d="M104.818 145.187C115.092 147.212 129.983 164.305 136.144 172.598C181.346 188.041 170.579 214.561 163.07 209.85C155.56 205.139 119.01 215.797 91.3881 201.822C63.7664 187.847 57.1063 172.122 61.1681 153.501C65.2299 134.88 91.9754 142.656 104.818 145.187Z" fill="url(#paint19_radial_103_11418)"/>
<path fill-rule="evenodd" clip-rule="evenodd" d="M49.1391 445.688C49.1028 445.706 49.0667 445.723 49.0308 445.741C40.7103 432.427 21.5789 443.736 6.46732 452.669C5.75011 453.093 5.04195 453.511 4.34443 453.922C2.61486 452.243 0.0857798 450.244 -1.28774 450.741C-2.98732 451.357 -0.866091 454.626 0.416128 456.196C0.352467 456.232 0.28894 456.268 0.225544 456.304C0.232175 456.306 0.238811 456.309 0.245451 456.312C-1.59742 457.4 -4.56198 459.863 -2.93871 461.835C-1.66693 463.379 1.28395 460.465 3.54739 457.608C13.2618 461.12 28.1252 464.247 35.8369 463.449C41.1488 462.899 44.7637 460.116 47.1043 457.575C49.2286 459.333 52.3911 459.766 55.1982 458.431C58.9709 456.637 60.6729 452.33 58.9997 448.811C57.3265 445.293 52.9118 443.894 49.1391 445.688Z" fill="#D3CE0A"/>
<path fill-rule="evenodd" clip-rule="evenodd" d="M49.1391 445.688C49.1028 445.706 49.0667 445.723 49.0308 445.741C40.7103 432.427 21.5789 443.736 6.46732 452.669C5.75011 453.093 5.04195 453.511 4.34443 453.922C2.61486 452.243 0.0857798 450.244 -1.28774 450.741C-2.98732 451.357 -0.866091 454.626 0.416128 456.196C0.352467 456.232 0.28894 456.268 0.225544 456.304C0.232175 456.306 0.238811 456.309 0.245451 456.312C-1.59742 457.4 -4.56198 459.863 -2.93871 461.835C-1.66693 463.379 1.28395 460.465 3.54739 457.608C13.2618 461.12 28.1252 464.247 35.8369 463.449C41.1488 462.899 44.7637 460.116 47.1043 457.575C49.2286 459.333 52.3911 459.766 55.1982 458.431C58.9709 456.637 60.6729 452.33 58.9997 448.811C57.3265 445.293 52.9118 443.894 49.1391 445.688Z" fill="url(#paint20_radial_103_11418)" fill-opacity="0.6"/>
<path d="M207.059 504.139C194.933 502.305 194.234 519.043 195.399 527.641C195.399 551.143 215.219 536.24 227.462 537.386C239.704 538.533 237.955 519.616 227.462 516.75C216.968 513.884 222.216 506.432 207.059 504.139Z" fill="#1F46A4"/>
<path d="M91.0588 427.139C78.9331 425.305 78.2336 442.043 79.3995 450.641C79.3995 474.143 126.258 470.854 138.5 472C150.742 473.146 138.493 445.866 128 443C117.507 440.134 106.216 429.432 91.0588 427.139Z" fill="#1540AA"/>
<path d="M149.412 96.0619C143.97 95.2472 143.656 102.681 144.179 106.499C144.179 116.936 165.21 115.475 170.705 115.984C176.199 116.494 170.702 104.378 165.992 103.106C161.282 101.833 156.215 97.0801 149.412 96.0619Z" fill="#11358D"/>
<path d="M4.41217 263.062C-1.03002 262.247 -1.34399 269.681 -0.820703 273.499C-0.820703 283.936 20.21 282.475 25.7046 282.984C31.1991 283.494 25.7016 271.378 20.992 270.106C16.2824 268.833 11.2149 264.08 4.41217 263.062Z" fill="#1F449D"/>
<path d="M494.014 601.944C497.017 602.677 497.19 595.987 496.901 592.551C496.901 583.157 485.298 584.472 482.266 584.014C479.235 583.556 482.268 594.459 484.866 595.605C487.465 596.751 490.261 601.028 494.014 601.944Z" fill="#11358D"/>
<path d="M549.412 384.062C543.97 383.247 543.656 390.681 544.179 394.499C544.179 404.936 565.21 403.475 570.705 403.984C576.199 404.494 570.702 392.378 565.992 391.106C561.282 389.833 556.215 385.08 549.412 384.062Z" fill="#11358D"/>
<path d="M614.563 637.01C635.053 639.815 635.894 611.928 633.752 597.634C633.275 558.497 554.301 564.939 533.628 563.282C512.954 561.624 534.17 606.801 551.928 611.358C569.686 615.915 588.949 633.504 614.563 637.01Z" fill="#11358D"/>
<path d="M250.226 488.627C281.327 489.616 277.937 446.737 272.355 425.174C265.122 365.266 219.797 409.282 188.614 410.082C157.432 410.881 167.657 458.568 194.965 462.684C222.272 466.799 211.351 487.39 250.226 488.627Z" fill="#1A45AD"/>
<path d="M220.538 79.618L197.325 96.0827L202.557 104.126L221.906 91.2029L252.874 84.65L252.369 72.8098L220.538 79.618Z" fill="#11358D"/>
<path d="M144.043 572.086L170.062 599.361L180.501 593.15L159.925 570.41L146.591 533.936L130.237 534.598L144.043 572.086Z" fill="#1443B6"/>
<path d="M250.368 94.4441C239.821 101.201 250.419 114.41 257.036 120.17C272.673 138.057 306.525 104.046 316.704 96.6873C326.883 89.3283 299.312 76.8021 289.334 81.6764C279.356 86.5507 263.551 85.9977 250.368 94.4441Z" fill="#174AA4"/>
<path d="M-8.706 438.297C-44.1958 434.381 -46.2432 470.119 -42.8308 488.477C-42.8308 538.658 15.169 536.052 51 538.5C86.831 540.948 128.712 489.12 98 483C67.2877 476.88 35.6562 443.193 -8.706 438.297Z" fill="#1540AA"/>
<path d="M220.54 380.189C229.13 386.178 235.881 407.818 238.183 417.89C273.345 450.222 252.814 470.165 247.836 462.83C242.858 455.494 205.11 450.538 185.45 426.627C165.79 402.716 166.022 385.64 177.236 370.229C188.45 354.818 209.803 372.702 220.54 380.189Z" fill="url(#paint21_radial_103_11418)"/>
<path d="M220.54 380.189C229.13 386.178 235.881 407.818 238.183 417.89C273.345 450.222 252.814 470.165 247.836 462.83C242.858 455.494 205.11 450.538 185.45 426.627C165.79 402.716 166.022 385.64 177.236 370.229C188.45 354.818 209.803 372.702 220.54 380.189Z" fill="url(#paint22_radial_103_11418)"/>
<path fill-rule="evenodd" clip-rule="evenodd" d="M92.6312 184.19C92.6663 184.19 92.7014 184.19 92.7364 184.189C94.3115 197.863 113.716 196.112 129.043 194.728L129.043 194.728C129.771 194.663 130.489 194.598 131.195 194.536C131.933 196.516 133.182 199.05 134.457 199.174C136.034 199.326 135.586 195.939 135.162 194.214C135.226 194.209 135.29 194.205 135.354 194.2C135.349 194.195 135.345 194.191 135.341 194.186C137.209 194.018 140.483 193.184 139.941 191.012C139.515 189.311 136.082 190.507 133.214 191.917C126.845 185.479 116.255 177.408 109.849 175.137C105.437 173.572 101.527 174.415 98.7171 175.545C97.6973 173.353 95.3562 171.82 92.6312 171.82C88.9689 171.82 86 174.589 86 178.005C86 181.421 88.9689 184.19 92.6312 184.19Z" fill="#D3CE0A"/>
<path fill-rule="evenodd" clip-rule="evenodd" d="M92.6312 184.19C92.6663 184.19 92.7014 184.19 92.7364 184.189C94.3115 197.863 113.716 196.112 129.043 194.728L129.043 194.728C129.771 194.663 130.489 194.598 131.195 194.536C131.933 196.516 133.182 199.05 134.457 199.174C136.034 199.326 135.586 195.939 135.162 194.214C135.226 194.209 135.29 194.205 135.354 194.2C135.349 194.195 135.345 194.191 135.341 194.186C137.209 194.018 140.483 193.184 139.941 191.012C139.515 189.311 136.082 190.507 133.214 191.917C126.845 185.479 116.255 177.408 109.849 175.137C105.437 173.572 101.527 174.415 98.7171 175.545C97.6973 173.353 95.3562 171.82 92.6312 171.82C88.9689 171.82 86 174.589 86 178.005C86 181.421 88.9689 184.19 92.6312 184.19Z" fill="url(#paint23_radial_103_11418)" fill-opacity="0.6"/>
<path fill-rule="evenodd" clip-rule="evenodd" d="M224.319 427.115C224.287 427.101 224.255 427.086 224.222 427.072C228.433 413.968 210.037 407.552 195.506 402.483L195.506 402.483C194.816 402.243 194.136 402.005 193.466 401.77C193.612 399.662 193.521 396.838 192.411 396.199C191.037 395.409 190.047 398.679 189.721 400.426C189.661 400.404 189.601 400.381 189.541 400.359C189.542 400.365 189.544 400.371 189.546 400.377C187.775 399.758 184.449 399.166 184.047 401.369C183.731 403.094 187.352 403.422 190.546 403.322C193.689 411.815 200.002 423.538 204.899 428.252C208.272 431.499 212.18 432.346 215.206 432.476C215.23 434.893 216.729 437.256 219.211 438.381C222.547 439.893 226.394 438.597 227.805 435.486C229.215 432.375 227.654 428.627 224.319 427.115Z" fill="#D3CE0A"/>
<path fill-rule="evenodd" clip-rule="evenodd" d="M224.319 427.115C224.287 427.101 224.255 427.086 224.222 427.072C228.433 413.968 210.037 407.552 195.506 402.483L195.506 402.483C194.816 402.243 194.136 402.005 193.466 401.77C193.612 399.662 193.521 396.838 192.411 396.199C191.037 395.409 190.047 398.679 189.721 400.426C189.661 400.404 189.601 400.381 189.541 400.359C189.542 400.365 189.544 400.371 189.546 400.377C187.775 399.758 184.449 399.166 184.047 401.369C183.731 403.094 187.352 403.422 190.546 403.322C193.689 411.815 200.002 423.538 204.899 428.252C208.272 431.499 212.18 432.346 215.206 432.476C215.23 434.893 216.729 437.256 219.211 438.381C222.547 439.893 226.394 438.597 227.805 435.486C229.215 432.375 227.654 428.627 224.319 427.115Z" fill="url(#paint24_radial_103_11418)" fill-opacity="0.6"/>
<path fill-rule="evenodd" clip-rule="evenodd" d="M394.153 339.37C394.188 339.37 394.223 339.369 394.258 339.369C395.833 353.043 415.237 351.291 430.565 349.908L430.565 349.908C431.292 349.842 432.01 349.778 432.717 349.715C433.454 351.695 434.704 354.23 435.979 354.353C437.556 354.506 437.107 351.119 436.683 349.393C436.747 349.389 436.811 349.384 436.875 349.38C436.871 349.375 436.867 349.37 436.862 349.365C438.731 349.198 442.005 348.364 441.462 346.192C441.037 344.49 437.603 345.687 434.736 347.096C428.367 340.658 417.776 332.588 411.37 330.316C406.958 328.752 403.048 329.594 400.239 330.725C399.219 328.533 396.878 327 394.153 327C390.49 327 387.521 329.769 387.521 333.185C387.521 336.601 390.49 339.37 394.153 339.37Z" fill="#D3CE0A"/>
<path fill-rule="evenodd" clip-rule="evenodd" d="M394.153 339.37C394.188 339.37 394.223 339.369 394.258 339.369C395.833 353.043 415.237 351.291 430.565 349.908L430.565 349.908C431.292 349.842 432.01 349.778 432.717 349.715C433.454 351.695 434.704 354.23 435.979 354.353C437.556 354.506 437.107 351.119 436.683 349.393C436.747 349.389 436.811 349.384 436.875 349.38C436.871 349.375 436.867 349.37 436.862 349.365C438.731 349.198 442.005 348.364 441.462 346.192C441.037 344.49 437.603 345.687 434.736 347.096C428.367 340.658 417.776 332.588 411.37 330.316C406.958 328.752 403.048 329.594 400.239 330.725C399.219 328.533 396.878 327 394.153 327C390.49 327 387.521 329.769 387.521 333.185C387.521 336.601 390.49 339.37 394.153 339.37Z" fill="url(#paint25_radial_103_11418)" fill-opacity="0.6"/>
<path fill-rule="evenodd" clip-rule="evenodd" d="M283.702 65.3697C283.738 65.3697 283.773 65.3695 283.808 65.369C285.383 79.0427 304.787 77.2914 320.115 75.908L320.115 75.908C320.842 75.8424 321.56 75.7775 322.267 75.7153C323.004 77.6955 324.254 80.23 325.528 80.3534C327.106 80.506 326.657 77.1191 326.233 75.3933C326.297 75.3888 326.361 75.3843 326.425 75.3799C326.421 75.3751 326.416 75.3702 326.412 75.3654C328.281 75.1982 331.555 74.3637 331.012 72.1919C330.586 70.4903 327.153 71.6865 324.286 73.0964C317.917 66.6584 307.326 58.5878 300.92 56.3162C296.508 54.7516 292.598 55.5943 289.788 56.7248C288.769 54.533 286.427 53 283.702 53C280.04 53 277.071 55.7691 277.071 59.1849C277.071 62.6007 280.04 65.3697 283.702 65.3697Z" fill="#D3CE0A"/>
<path fill-rule="evenodd" clip-rule="evenodd" d="M283.702 65.3697C283.738 65.3697 283.773 65.3695 283.808 65.369C285.383 79.0427 304.787 77.2914 320.115 75.908L320.115 75.908C320.842 75.8424 321.56 75.7775 322.267 75.7153C323.004 77.6955 324.254 80.23 325.528 80.3534C327.106 80.506 326.657 77.1191 326.233 75.3933C326.297 75.3888 326.361 75.3843 326.425 75.3799C326.421 75.3751 326.416 75.3702 326.412 75.3654C328.281 75.1982 331.555 74.3637 331.012 72.1919C330.586 70.4903 327.153 71.6865 324.286 73.0964C317.917 66.6584 307.326 58.5878 300.92 56.3162C296.508 54.7516 292.598 55.5943 289.788 56.7248C288.769 54.533 286.427 53 283.702 53C280.04 53 277.071 55.7691 277.071 59.1849C277.071 62.6007 280.04 65.3697 283.702 65.3697Z" fill="url(#paint26_radial_103_11418)" fill-opacity="0.6"/>
<path fill-rule="evenodd" clip-rule="evenodd" d="M555.738 449.154C555.702 449.155 555.667 449.156 555.632 449.157C553.707 435.528 534.354 437.776 519.067 439.552L519.067 439.552C518.342 439.636 517.626 439.72 516.921 439.8C516.133 437.839 514.819 435.338 513.542 435.247C511.961 435.135 512.496 438.509 512.964 440.223C512.9 440.23 512.836 440.236 512.773 440.242C512.777 440.247 512.781 440.251 512.786 440.256C510.922 440.471 507.671 441.389 508.269 443.546C508.738 445.236 512.139 443.953 514.97 442.47C521.502 448.742 532.296 456.539 538.757 458.646C543.208 460.097 547.095 459.154 549.875 457.952C550.951 460.117 553.33 461.589 556.055 461.52C559.716 461.426 562.613 458.581 562.525 455.167C562.438 451.752 559.399 449.06 555.738 449.154Z" fill="#D3CE0A"/>
<path fill-rule="evenodd" clip-rule="evenodd" d="M555.738 449.154C555.702 449.155 555.667 449.156 555.632 449.157C553.707 435.528 534.354 437.776 519.067 439.552L519.067 439.552C518.342 439.636 517.626 439.72 516.921 439.8C516.133 437.839 514.819 435.338 513.542 435.247C511.961 435.135 512.496 438.509 512.964 440.223C512.9 440.23 512.836 440.236 512.773 440.242C512.777 440.247 512.781 440.251 512.786 440.256C510.922 440.471 507.671 441.389 508.269 443.546C508.738 445.236 512.139 443.953 514.97 442.47C521.502 448.742 532.296 456.539 538.757 458.646C543.208 460.097 547.095 459.154 549.875 457.952C550.951 460.117 553.33 461.589 556.055 461.52C559.716 461.426 562.613 458.581 562.525 455.167C562.438 451.752 559.399 449.06 555.738 449.154Z" fill="url(#paint27_radial_103_11418)" fill-opacity="0.6"/>
<g filter="url(#filter0_d_103_11418)">
<path fill-rule="evenodd" clip-rule="evenodd" d="M520.058 124.98C520.09 124.964 520.121 124.949 520.153 124.933C527.494 136.576 544.226 126.595 557.443 118.711L557.443 118.711C558.07 118.337 558.689 117.968 559.299 117.605C560.821 119.071 563.045 120.814 564.248 120.374C565.735 119.828 563.865 116.97 562.735 115.598C562.791 115.566 562.846 115.534 562.902 115.503C562.896 115.5 562.89 115.497 562.884 115.495C564.496 114.535 567.086 112.365 565.656 110.643C564.536 109.293 561.959 111.858 559.985 114.371C551.456 111.325 538.415 108.637 531.658 109.363C527.003 109.863 523.844 112.316 521.801 114.552C519.932 113.018 517.158 112.65 514.702 113.83C511.401 115.416 509.924 119.197 511.403 122.276C512.882 125.355 516.757 126.565 520.058 124.98Z" fill="#D3CE0A"/>
<path fill-rule="evenodd" clip-rule="evenodd" d="M520.058 124.98C520.09 124.964 520.121 124.949 520.153 124.933C527.494 136.576 544.226 126.595 557.443 118.711L557.443 118.711C558.07 118.337 558.689 117.968 559.299 117.605C560.821 119.071 563.045 120.814 564.248 120.374C565.735 119.828 563.865 116.97 562.735 115.598C562.791 115.566 562.846 115.534 562.902 115.503C562.896 115.5 562.89 115.497 562.884 115.495C564.496 114.535 567.086 112.365 565.656 110.643C564.536 109.293 561.959 111.858 559.985 114.371C551.456 111.325 538.415 108.637 531.658 109.363C527.003 109.863 523.844 112.316 521.801 114.552C519.932 113.018 517.158 112.65 514.702 113.83C511.401 115.416 509.924 119.197 511.403 122.276C512.882 125.355 516.757 126.565 520.058 124.98Z" fill="url(#paint28_radial_103_11418)" fill-opacity="0.6"/>
</g>
<path fill-rule="evenodd" clip-rule="evenodd" d="M741.709 422.463C741.736 422.44 741.763 422.418 741.79 422.396C751.632 432.018 765.592 418.426 776.619 407.691L776.619 407.691C777.142 407.181 777.658 406.678 778.168 406.185C779.988 407.257 782.556 408.437 783.623 407.729C784.944 406.853 782.461 404.507 781.044 403.434C781.091 403.39 781.138 403.347 781.184 403.303C781.178 403.302 781.172 403.301 781.165 403.3C782.51 401.992 784.526 399.28 782.736 397.937C781.333 396.884 779.422 399.977 778.084 402.879C769.082 401.896 755.773 402.306 749.368 404.581C744.956 406.148 742.453 409.266 740.984 411.915C738.811 410.857 736.027 411.142 733.911 412.86C731.068 415.169 730.509 419.19 732.662 421.841C734.816 424.493 738.866 424.771 741.709 422.463Z" fill="#D3CE0A"/>
<path fill-rule="evenodd" clip-rule="evenodd" d="M741.709 422.463C741.736 422.44 741.763 422.418 741.79 422.396C751.632 432.018 765.592 418.426 776.619 407.691L776.619 407.691C777.142 407.181 777.658 406.678 778.168 406.185C779.988 407.257 782.556 408.437 783.623 407.729C784.944 406.853 782.461 404.507 781.044 403.434C781.091 403.39 781.138 403.347 781.184 403.303C781.178 403.302 781.172 403.301 781.165 403.3C782.51 401.992 784.526 399.28 782.736 397.937C781.333 396.884 779.422 399.977 778.084 402.879C769.082 401.896 755.773 402.306 749.368 404.581C744.956 406.148 742.453 409.266 740.984 411.915C738.811 410.857 736.027 411.142 733.911 412.86C731.068 415.169 730.509 419.19 732.662 421.841C734.816 424.493 738.866 424.771 741.709 422.463Z" fill="url(#paint29_radial_103_11418)" fill-opacity="0.6"/>
<path fill-rule="evenodd" clip-rule="evenodd" d="M496.709 557.688C496.673 557.706 496.637 557.723 496.601 557.741C488.281 544.427 469.149 555.736 454.038 564.669C453.32 565.093 452.612 565.511 451.915 565.922C450.185 564.243 447.656 562.244 446.283 562.741C444.583 563.357 446.704 566.626 447.986 568.196C447.923 568.232 447.859 568.268 447.796 568.304C447.802 568.306 447.809 568.309 447.816 568.312C445.973 569.4 443.008 571.863 444.632 573.835C445.903 575.379 448.854 572.465 451.118 569.608C460.832 573.12 475.695 576.247 483.407 575.449C488.719 574.899 492.334 572.116 494.675 569.575C496.799 571.333 499.961 571.766 502.769 570.431C506.541 568.637 508.243 564.33 506.57 560.811C504.897 557.293 500.482 555.894 496.709 557.688Z" fill="#D3CE0A"/>
<path fill-rule="evenodd" clip-rule="evenodd" d="M496.709 557.688C496.673 557.706 496.637 557.723 496.601 557.741C488.281 544.427 469.149 555.736 454.038 564.669C453.32 565.093 452.612 565.511 451.915 565.922C450.185 564.243 447.656 562.244 446.283 562.741C444.583 563.357 446.704 566.626 447.986 568.196C447.923 568.232 447.859 568.268 447.796 568.304C447.802 568.306 447.809 568.309 447.816 568.312C445.973 569.4 443.008 571.863 444.632 573.835C445.903 575.379 448.854 572.465 451.118 569.608C460.832 573.12 475.695 576.247 483.407 575.449C488.719 574.899 492.334 572.116 494.675 569.575C496.799 571.333 499.961 571.766 502.769 570.431C506.541 568.637 508.243 564.33 506.57 560.811C504.897 557.293 500.482 555.894 496.709 557.688Z" fill="url(#paint30_radial_103_11418)" fill-opacity="0.6"/>
<path fill-rule="evenodd" clip-rule="evenodd" d="M632.139 493.688C632.103 493.706 632.067 493.723 632.031 493.741C623.71 480.427 604.579 491.736 589.467 500.669C588.75 501.093 588.042 501.511 587.344 501.922C585.615 500.243 583.086 498.244 581.712 498.741C580.013 499.357 582.134 502.626 583.416 504.196C583.352 504.232 583.289 504.268 583.226 504.304C583.232 504.306 583.239 504.309 583.245 504.312C581.403 505.4 578.438 507.863 580.061 509.835C581.333 511.379 584.284 508.465 586.547 505.608C596.262 509.12 611.125 512.247 618.837 511.449C624.149 510.899 627.764 508.116 630.104 505.575C632.229 507.333 635.391 507.766 638.198 506.431C641.971 504.637 643.673 500.33 642 496.811C640.327 493.293 635.912 491.894 632.139 493.688Z" fill="#D3CE0A"/>
<path fill-rule="evenodd" clip-rule="evenodd" d="M632.139 493.688C632.103 493.706 632.067 493.723 632.031 493.741C623.71 480.427 604.579 491.736 589.467 500.669C588.75 501.093 588.042 501.511 587.344 501.922C585.615 500.243 583.086 498.244 581.712 498.741C580.013 499.357 582.134 502.626 583.416 504.196C583.352 504.232 583.289 504.268 583.226 504.304C583.232 504.306 583.239 504.309 583.245 504.312C581.403 505.4 578.438 507.863 580.061 509.835C581.333 511.379 584.284 508.465 586.547 505.608C596.262 509.12 611.125 512.247 618.837 511.449C624.149 510.899 627.764 508.116 630.104 505.575C632.229 507.333 635.391 507.766 638.198 506.431C641.971 504.637 643.673 500.33 642 496.811C640.327 493.293 635.912 491.894 632.139 493.688Z" fill="url(#paint31_radial_103_11418)" fill-opacity="0.6"/>
<g clip-path="url(#clip1_103_11418)">
<rect width="84" height="33.3333" transform="translate(712 20)" fill="#000253"/>
<path d="M742.811 36.1676V37.1051H738.993V36.1676H742.811ZM747.632 32.2727V41H746.575V33.3807H746.524L744.393 34.7955V33.7216L746.575 32.2727H747.632ZM752.988 41.1193C752.346 41.1193 751.799 40.9446 751.348 40.5952C750.896 40.2429 750.551 39.733 750.312 39.0653C750.074 38.3949 749.954 37.5852 749.954 36.6364C749.954 35.6932 750.074 34.8878 750.312 34.2202C750.554 33.5497 750.9 33.0384 751.352 32.6861C751.806 32.331 752.352 32.1534 752.988 32.1534C753.625 32.1534 754.169 32.331 754.62 32.6861C755.075 33.0384 755.422 33.5497 755.66 34.2202C755.902 34.8878 756.022 35.6932 756.022 36.6364C756.022 37.5852 755.903 38.3949 755.664 39.0653C755.426 39.733 755.081 40.2429 754.629 40.5952C754.177 40.9446 753.63 41.1193 752.988 41.1193ZM752.988 40.1818C753.625 40.1818 754.119 39.875 754.471 39.2614C754.824 38.6477 755 37.7727 755 36.6364C755 35.8807 754.919 35.2372 754.757 34.706C754.598 34.1747 754.368 33.7699 754.066 33.4915C753.768 33.2131 753.409 33.0739 752.988 33.0739C752.358 33.0739 751.865 33.3849 751.51 34.0071C751.154 34.6264 750.977 35.5028 750.977 36.6364C750.977 37.392 751.056 38.0341 751.216 38.5625C751.375 39.0909 751.603 39.4929 751.902 39.7685C752.203 40.044 752.565 40.1818 752.988 40.1818ZM757.403 34.8807V34.4205C757.403 34.017 757.485 33.6591 757.65 33.3466C757.815 33.0341 758.049 32.7884 758.353 32.6094C758.657 32.4304 759.017 32.3409 759.431 32.3409C760.062 32.3409 760.558 32.5369 760.919 32.929C761.279 33.3182 761.46 33.8153 761.46 34.4205V34.8807C761.46 35.2841 761.379 35.6406 761.217 35.9503C761.055 36.2599 760.824 36.5028 760.522 36.679C760.221 36.8551 759.863 36.9432 759.449 36.9432C758.818 36.9432 758.319 36.7514 757.953 36.3679C757.586 35.9815 757.403 35.4858 757.403 34.8807ZM758.426 34.4205V34.8807C758.426 35.2301 758.511 35.5199 758.681 35.75C758.852 35.9773 759.108 36.0909 759.449 36.0909C759.781 36.0909 760.028 35.9773 760.19 35.75C760.355 35.5199 760.437 35.2301 760.437 34.8807V34.4205C760.437 34.0795 760.355 33.7926 760.19 33.5597C760.025 33.3267 759.772 33.2102 759.431 33.2102C759.099 33.2102 758.848 33.3267 758.677 33.5597C758.51 33.7926 758.426 34.0795 758.426 34.4205ZM770.208 35H769.152C769.089 34.696 768.98 34.429 768.824 34.1989C768.67 33.9688 768.483 33.7756 768.261 33.6193C768.042 33.4602 767.799 33.3409 767.532 33.2614C767.265 33.1818 766.987 33.142 766.697 33.142C766.169 33.142 765.69 33.2756 765.261 33.5426C764.835 33.8097 764.495 34.2031 764.243 34.723C763.993 35.2429 763.868 35.8807 763.868 36.6364C763.868 37.392 763.993 38.0298 764.243 38.5497C764.495 39.0696 764.835 39.4631 765.261 39.7301C765.69 39.9972 766.169 40.1307 766.697 40.1307C766.987 40.1307 767.265 40.0909 767.532 40.0114C767.799 39.9318 768.042 39.8139 768.261 39.6577C768.483 39.4986 768.67 39.304 768.824 39.0739C768.98 38.8409 769.089 38.5739 769.152 38.2727H770.208C770.129 38.7187 769.984 39.1179 769.774 39.4702C769.564 39.8224 769.302 40.1222 768.99 40.3693C768.677 40.6136 768.326 40.7997 767.937 40.9276C767.551 41.0554 767.137 41.1193 766.697 41.1193C765.953 41.1193 765.291 40.9375 764.711 40.5739C764.132 40.2102 763.676 39.6932 763.343 39.0227C763.011 38.3523 762.845 37.5568 762.845 36.6364C762.845 35.7159 763.011 34.9205 763.343 34.25C763.676 33.5795 764.132 33.0625 764.711 32.6989C765.291 32.3352 765.953 32.1534 766.697 32.1534C767.137 32.1534 767.551 32.2173 767.937 32.3452C768.326 32.473 768.677 32.6605 768.99 32.9077C769.302 33.152 769.564 33.4503 769.774 33.8026C769.984 34.152 770.129 34.5511 770.208 35Z" fill="white"/>
<rect width="84" height="33.3333" transform="translate(712 53.333)" fill="#194FAA"/>
<path d="M746.939 74.1193C746.297 74.1193 745.751 73.9446 745.299 73.5952C744.847 73.2429 744.502 72.733 744.263 72.0653C744.025 71.3949 743.905 70.5852 743.905 69.6364C743.905 68.6932 744.025 67.8878 744.263 67.2202C744.505 66.5497 744.851 66.0384 745.303 65.6861C745.758 65.331 746.303 65.1534 746.939 65.1534C747.576 65.1534 748.12 65.331 748.572 65.6861C749.026 66.0384 749.373 66.5497 749.611 67.2202C749.853 67.8878 749.974 68.6932 749.974 69.6364C749.974 70.5852 749.854 71.3949 749.616 72.0653C749.377 72.733 749.032 73.2429 748.58 73.5952C748.128 73.9446 747.581 74.1193 746.939 74.1193ZM746.939 73.1818C747.576 73.1818 748.07 72.875 748.422 72.2614C748.775 71.6477 748.951 70.7727 748.951 69.6364C748.951 68.8807 748.87 68.2372 748.708 67.706C748.549 67.1747 748.319 66.7699 748.018 66.4915C747.719 66.2131 747.36 66.0739 746.939 66.0739C746.309 66.0739 745.816 66.3849 745.461 67.0071C745.106 67.6264 744.928 68.5028 744.928 69.6364C744.928 70.392 745.008 71.0341 745.167 71.5625C745.326 72.0909 745.555 72.4929 745.853 72.7685C746.154 73.044 746.516 73.1818 746.939 73.1818ZM751.354 67.8807V67.4205C751.354 67.017 751.437 66.6591 751.601 66.3466C751.766 66.0341 752.001 65.7884 752.305 65.6094C752.608 65.4304 752.968 65.3409 753.383 65.3409C754.013 65.3409 754.509 65.5369 754.87 65.929C755.231 66.3182 755.411 66.8153 755.411 67.4205V67.8807C755.411 68.2841 755.33 68.6406 755.168 68.9503C755.006 69.2599 754.775 69.5028 754.474 69.679C754.172 69.8551 753.814 69.9432 753.4 69.9432C752.769 69.9432 752.27 69.7514 751.904 69.3679C751.537 68.9815 751.354 68.4858 751.354 67.8807ZM752.377 67.4205V67.8807C752.377 68.2301 752.462 68.5199 752.633 68.75C752.803 68.9773 753.059 69.0909 753.4 69.0909C753.732 69.0909 753.979 68.9773 754.141 68.75C754.306 68.5199 754.388 68.2301 754.388 67.8807V67.4205C754.388 67.0795 754.306 66.7926 754.141 66.5597C753.976 66.3267 753.724 66.2102 753.383 66.2102C753.05 66.2102 752.799 66.3267 752.628 66.5597C752.461 66.7926 752.377 67.0795 752.377 67.4205ZM764.16 68H763.103C763.04 67.696 762.931 67.429 762.775 67.1989C762.621 66.9688 762.434 66.7756 762.212 66.6193C761.993 66.4602 761.751 66.3409 761.483 66.2614C761.216 66.1818 760.938 66.142 760.648 66.142C760.12 66.142 759.641 66.2756 759.212 66.5426C758.786 66.8097 758.447 67.2031 758.194 67.723C757.944 68.2429 757.819 68.8807 757.819 69.6364C757.819 70.392 757.944 71.0298 758.194 71.5497C758.447 72.0696 758.786 72.4631 759.212 72.7301C759.641 72.9972 760.12 73.1307 760.648 73.1307C760.938 73.1307 761.216 73.0909 761.483 73.0114C761.751 72.9318 761.993 72.8139 762.212 72.6577C762.434 72.4986 762.621 72.304 762.775 72.0739C762.931 71.8409 763.04 71.5739 763.103 71.2727H764.16C764.08 71.7187 763.935 72.1179 763.725 72.4702C763.515 72.8224 763.253 73.1222 762.941 73.3693C762.628 73.6136 762.278 73.7997 761.888 73.9276C761.502 74.0554 761.089 74.1193 760.648 74.1193C759.904 74.1193 759.242 73.9375 758.662 73.5739C758.083 73.2102 757.627 72.6932 757.295 72.0227C756.962 71.3523 756.796 70.5568 756.796 69.6364C756.796 68.7159 756.962 67.9205 757.295 67.25C757.627 66.5795 758.083 66.0625 758.662 65.6989C759.242 65.3352 759.904 65.1534 760.648 65.1534C761.089 65.1534 761.502 65.2173 761.888 65.3452C762.278 65.473 762.628 65.6605 762.941 65.9077C763.253 66.152 763.515 66.4503 763.725 66.8026C763.935 67.152 764.08 67.5511 764.16 68Z" fill="white"/>
<rect width="84" height="33.3333" transform="translate(712 86.667)" fill="#15A269"/>
<path d="M739.923 106.466V100.841H740.877V106.466H739.923ZM737.587 104.131V103.176H743.212V104.131H737.587ZM748.327 99.2727V108H747.27V100.381H747.219L745.088 101.795V100.722L747.27 99.2727H748.327ZM753.684 108.119C753.042 108.119 752.495 107.945 752.043 107.595C751.591 107.243 751.246 106.733 751.007 106.065C750.769 105.395 750.65 104.585 750.65 103.636C750.65 102.693 750.769 101.888 751.007 101.22C751.249 100.55 751.596 100.038 752.047 99.6861C752.502 99.331 753.047 99.1534 753.684 99.1534C754.32 99.1534 754.864 99.331 755.316 99.6861C755.77 100.038 756.117 100.55 756.355 101.22C756.597 101.888 756.718 102.693 756.718 103.636C756.718 104.585 756.598 105.395 756.36 106.065C756.121 106.733 755.776 107.243 755.324 107.595C754.873 107.945 754.326 108.119 753.684 108.119ZM753.684 107.182C754.32 107.182 754.814 106.875 755.167 106.261C755.519 105.648 755.695 104.773 755.695 103.636C755.695 102.881 755.614 102.237 755.452 101.706C755.293 101.175 755.063 100.77 754.762 100.491C754.463 100.213 754.104 100.074 753.684 100.074C753.053 100.074 752.56 100.385 752.205 101.007C751.85 101.626 751.672 102.503 751.672 103.636C751.672 104.392 751.752 105.034 751.911 105.562C752.07 106.091 752.299 106.493 752.597 106.768C752.898 107.044 753.26 107.182 753.684 107.182ZM758.098 101.881V101.42C758.098 101.017 758.181 100.659 758.346 100.347C758.51 100.034 758.745 99.7884 759.049 99.6094C759.353 99.4304 759.712 99.3409 760.127 99.3409C760.757 99.3409 761.253 99.5369 761.614 99.929C761.975 100.318 762.155 100.815 762.155 101.42V101.881C762.155 102.284 762.074 102.641 761.912 102.95C761.75 103.26 761.519 103.503 761.218 103.679C760.917 103.855 760.559 103.943 760.144 103.943C759.513 103.943 759.015 103.751 758.648 103.368C758.282 102.982 758.098 102.486 758.098 101.881ZM759.121 101.42V101.881C759.121 102.23 759.206 102.52 759.377 102.75C759.547 102.977 759.803 103.091 760.144 103.091C760.476 103.091 760.723 102.977 760.885 102.75C761.05 102.52 761.132 102.23 761.132 101.881V101.42C761.132 101.08 761.05 100.793 760.885 100.56C760.721 100.327 760.468 100.21 760.127 100.21C759.794 100.21 759.543 100.327 759.373 100.56C759.205 100.793 759.121 101.08 759.121 101.42ZM770.904 102H769.847C769.784 101.696 769.675 101.429 769.519 101.199C769.365 100.969 769.178 100.776 768.956 100.619C768.738 100.46 768.495 100.341 768.228 100.261C767.961 100.182 767.682 100.142 767.392 100.142C766.864 100.142 766.385 100.276 765.956 100.543C765.53 100.81 765.191 101.203 764.938 101.723C764.688 102.243 764.563 102.881 764.563 103.636C764.563 104.392 764.688 105.03 764.938 105.55C765.191 106.07 765.53 106.463 765.956 106.73C766.385 106.997 766.864 107.131 767.392 107.131C767.682 107.131 767.961 107.091 768.228 107.011C768.495 106.932 768.738 106.814 768.956 106.658C769.178 106.499 769.365 106.304 769.519 106.074C769.675 105.841 769.784 105.574 769.847 105.273H770.904C770.824 105.719 770.679 106.118 770.469 106.47C770.259 106.822 769.998 107.122 769.685 107.369C769.373 107.614 769.022 107.8 768.632 107.928C768.246 108.055 767.833 108.119 767.392 108.119C766.648 108.119 765.986 107.938 765.407 107.574C764.827 107.21 764.371 106.693 764.039 106.023C763.706 105.352 763.54 104.557 763.54 103.636C763.54 102.716 763.706 101.92 764.039 101.25C764.371 100.58 764.827 100.062 765.407 99.6989C765.986 99.3352 766.648 99.1534 767.392 99.1534C767.833 99.1534 768.246 99.2173 768.632 99.3452C769.022 99.473 769.373 99.6605 769.685 99.9077C769.998 100.152 770.259 100.45 770.469 100.803C770.679 101.152 770.824 101.551 770.904 102Z" fill="white"/>
<rect width="84" height="33.3333" transform="translate(712 120)" fill="#FFFA27"/>
<path d="M739.784 139.466V133.841H740.738V139.466H739.784ZM737.449 137.131V136.176H743.074V137.131H737.449ZM744.71 141V140.233L747.591 137.08C747.929 136.71 748.207 136.389 748.426 136.116C748.645 135.841 748.807 135.582 748.912 135.341C749.02 135.097 749.074 134.841 749.074 134.574C749.074 134.267 749 134.001 748.852 133.777C748.707 133.553 748.508 133.379 748.256 133.257C748.003 133.135 747.719 133.074 747.403 133.074C747.068 133.074 746.775 133.143 746.525 133.283C746.278 133.419 746.086 133.611 745.95 133.858C745.817 134.105 745.75 134.395 745.75 134.727H744.744C744.744 134.216 744.862 133.767 745.098 133.381C745.334 132.994 745.655 132.693 746.061 132.477C746.47 132.261 746.929 132.153 747.437 132.153C747.949 132.153 748.402 132.261 748.797 132.477C749.192 132.693 749.501 132.984 749.726 133.351C749.95 133.717 750.062 134.125 750.062 134.574C750.062 134.895 750.004 135.209 749.888 135.516C749.774 135.82 749.575 136.159 749.291 136.534C749.01 136.906 748.619 137.361 748.119 137.898L746.159 139.994V140.062H750.216V141H744.71ZM754.822 141.119C754.18 141.119 753.633 140.945 753.182 140.595C752.73 140.243 752.385 139.733 752.146 139.065C751.907 138.395 751.788 137.585 751.788 136.636C751.788 135.693 751.907 134.888 752.146 134.22C752.388 133.55 752.734 133.038 753.186 132.686C753.64 132.331 754.186 132.153 754.822 132.153C755.459 132.153 756.003 132.331 756.454 132.686C756.909 133.038 757.256 133.55 757.494 134.22C757.736 134.888 757.856 135.693 757.856 136.636C757.856 137.585 757.737 138.395 757.498 139.065C757.26 139.733 756.915 140.243 756.463 140.595C756.011 140.945 755.464 141.119 754.822 141.119ZM754.822 140.182C755.459 140.182 755.953 139.875 756.305 139.261C756.657 138.648 756.834 137.773 756.834 136.636C756.834 135.881 756.753 135.237 756.591 134.706C756.432 134.175 756.202 133.77 755.9 133.491C755.602 133.213 755.243 133.074 754.822 133.074C754.192 133.074 753.699 133.385 753.344 134.007C752.988 134.626 752.811 135.503 752.811 136.636C752.811 137.392 752.89 138.034 753.05 138.562C753.209 139.091 753.437 139.493 753.736 139.768C754.037 140.044 754.399 140.182 754.822 140.182ZM759.237 134.881V134.42C759.237 134.017 759.319 133.659 759.484 133.347C759.649 133.034 759.883 132.788 760.187 132.609C760.491 132.43 760.851 132.341 761.265 132.341C761.896 132.341 762.392 132.537 762.753 132.929C763.113 133.318 763.294 133.815 763.294 134.42V134.881C763.294 135.284 763.213 135.641 763.051 135.95C762.889 136.26 762.657 136.503 762.356 136.679C762.055 136.855 761.697 136.943 761.282 136.943C760.652 136.943 760.153 136.751 759.787 136.368C759.42 135.982 759.237 135.486 759.237 134.881ZM760.26 134.42V134.881C760.26 135.23 760.345 135.52 760.515 135.75C760.686 135.977 760.942 136.091 761.282 136.091C761.615 136.091 761.862 135.977 762.024 135.75C762.189 135.52 762.271 135.23 762.271 134.881V134.42C762.271 134.08 762.189 133.793 762.024 133.56C761.859 133.327 761.606 133.21 761.265 133.21C760.933 133.21 760.682 133.327 760.511 133.56C760.344 133.793 760.26 134.08 760.26 134.42ZM772.042 135H770.986C770.923 134.696 770.814 134.429 770.657 134.199C770.504 133.969 770.317 133.776 770.095 133.619C769.876 133.46 769.633 133.341 769.366 133.261C769.099 133.182 768.821 133.142 768.531 133.142C768.003 133.142 767.524 133.276 767.095 133.543C766.669 133.81 766.329 134.203 766.077 134.723C765.827 135.243 765.702 135.881 765.702 136.636C765.702 137.392 765.827 138.03 766.077 138.55C766.329 139.07 766.669 139.463 767.095 139.73C767.524 139.997 768.003 140.131 768.531 140.131C768.821 140.131 769.099 140.091 769.366 140.011C769.633 139.932 769.876 139.814 770.095 139.658C770.317 139.499 770.504 139.304 770.657 139.074C770.814 138.841 770.923 138.574 770.986 138.273H772.042C771.963 138.719 771.818 139.118 771.608 139.47C771.398 139.822 771.136 140.122 770.824 140.369C770.511 140.614 770.16 140.8 769.771 140.928C769.385 141.055 768.971 141.119 768.531 141.119C767.787 141.119 767.125 140.938 766.545 140.574C765.966 140.21 765.51 139.693 765.177 139.023C764.845 138.352 764.679 137.557 764.679 136.636C764.679 135.716 764.845 134.92 765.177 134.25C765.51 133.58 765.966 133.062 766.545 132.699C767.125 132.335 767.787 132.153 768.531 132.153C768.971 132.153 769.385 132.217 769.771 132.345C770.16 132.473 770.511 132.661 770.824 132.908C771.136 133.152 771.398 133.45 771.608 133.803C771.818 134.152 771.963 134.551 772.042 135Z" fill="#545758"/>
<rect width="84" height="33.3333" transform="translate(712 153.333)" fill="#FF8738"/>
<path d="M738.962 172.466V166.841H739.916V172.466H738.962ZM736.626 170.131V169.176H742.251V170.131H736.626ZM747.106 174.119C746.544 174.119 746.042 174.023 745.602 173.83C745.164 173.636 744.816 173.368 744.558 173.024C744.302 172.678 744.163 172.276 744.14 171.818H745.214C745.237 172.099 745.333 172.342 745.504 172.547C745.674 172.749 745.897 172.905 746.173 173.016C746.449 173.126 746.754 173.182 747.089 173.182C747.464 173.182 747.797 173.116 748.086 172.986C748.376 172.855 748.603 172.673 748.768 172.44C748.933 172.207 749.015 171.938 749.015 171.631C749.015 171.31 748.936 171.027 748.777 170.783C748.618 170.536 748.385 170.342 748.078 170.203C747.771 170.064 747.396 169.994 746.953 169.994H746.254V169.057H746.953C747.299 169.057 747.603 168.994 747.865 168.869C748.129 168.744 748.335 168.568 748.483 168.341C748.633 168.114 748.708 167.847 748.708 167.54C748.708 167.244 748.643 166.987 748.512 166.768C748.382 166.55 748.197 166.379 747.958 166.257C747.723 166.135 747.444 166.074 747.123 166.074C746.822 166.074 746.538 166.129 746.271 166.24C746.007 166.348 745.791 166.506 745.623 166.713C745.456 166.918 745.365 167.165 745.35 167.455H744.328C744.345 166.997 744.483 166.597 744.741 166.253C745 165.906 745.338 165.636 745.755 165.443C746.176 165.25 746.637 165.153 747.14 165.153C747.68 165.153 748.143 165.263 748.529 165.482C748.916 165.697 749.213 165.983 749.42 166.338C749.627 166.693 749.731 167.077 749.731 167.489C749.731 167.98 749.602 168.399 749.343 168.746C749.088 169.092 748.74 169.332 748.299 169.466V169.534C748.85 169.625 749.281 169.859 749.591 170.237C749.9 170.612 750.055 171.077 750.055 171.631C750.055 172.105 749.926 172.531 749.667 172.909C749.412 173.284 749.062 173.58 748.619 173.795C748.176 174.011 747.672 174.119 747.106 174.119ZM754.645 174.119C754.002 174.119 753.456 173.945 753.004 173.595C752.552 173.243 752.207 172.733 751.968 172.065C751.73 171.395 751.61 170.585 751.61 169.636C751.61 168.693 751.73 167.888 751.968 167.22C752.21 166.55 752.556 166.038 753.008 165.686C753.463 165.331 754.008 165.153 754.645 165.153C755.281 165.153 755.825 165.331 756.277 165.686C756.731 166.038 757.078 166.55 757.316 167.22C757.558 167.888 757.679 168.693 757.679 169.636C757.679 170.585 757.559 171.395 757.321 172.065C757.082 172.733 756.737 173.243 756.285 173.595C755.833 173.945 755.287 174.119 754.645 174.119ZM754.645 173.182C755.281 173.182 755.775 172.875 756.127 172.261C756.48 171.648 756.656 170.773 756.656 169.636C756.656 168.881 756.575 168.237 756.413 167.706C756.254 167.175 756.024 166.77 755.723 166.491C755.424 166.213 755.065 166.074 754.645 166.074C754.014 166.074 753.521 166.385 753.166 167.007C752.811 167.626 752.633 168.503 752.633 169.636C752.633 170.392 752.713 171.034 752.872 171.562C753.031 172.091 753.26 172.493 753.558 172.768C753.859 173.044 754.221 173.182 754.645 173.182ZM759.059 167.881V167.42C759.059 167.017 759.142 166.659 759.306 166.347C759.471 166.034 759.706 165.788 760.01 165.609C760.314 165.43 760.673 165.341 761.088 165.341C761.718 165.341 762.214 165.537 762.575 165.929C762.936 166.318 763.116 166.815 763.116 167.42V167.881C763.116 168.284 763.035 168.641 762.873 168.95C762.711 169.26 762.48 169.503 762.179 169.679C761.877 169.855 761.52 169.943 761.105 169.943C760.474 169.943 759.975 169.751 759.609 169.368C759.243 168.982 759.059 168.486 759.059 167.881ZM760.082 167.42V167.881C760.082 168.23 760.167 168.52 760.338 168.75C760.508 168.977 760.764 169.091 761.105 169.091C761.437 169.091 761.684 168.977 761.846 168.75C762.011 168.52 762.093 168.23 762.093 167.881V167.42C762.093 167.08 762.011 166.793 761.846 166.56C761.681 166.327 761.429 166.21 761.088 166.21C760.755 166.21 760.504 166.327 760.333 166.56C760.166 166.793 760.082 167.08 760.082 167.42ZM771.865 168H770.808C770.745 167.696 770.636 167.429 770.48 167.199C770.326 166.969 770.139 166.776 769.917 166.619C769.699 166.46 769.456 166.341 769.189 166.261C768.922 166.182 768.643 166.142 768.353 166.142C767.825 166.142 767.346 166.276 766.917 166.543C766.491 166.81 766.152 167.203 765.899 167.723C765.649 168.243 765.524 168.881 765.524 169.636C765.524 170.392 765.649 171.03 765.899 171.55C766.152 172.07 766.491 172.463 766.917 172.73C767.346 172.997 767.825 173.131 768.353 173.131C768.643 173.131 768.922 173.091 769.189 173.011C769.456 172.932 769.699 172.814 769.917 172.658C770.139 172.499 770.326 172.304 770.48 172.074C770.636 171.841 770.745 171.574 770.808 171.273H771.865C771.785 171.719 771.64 172.118 771.43 172.47C771.22 172.822 770.958 173.122 770.646 173.369C770.333 173.614 769.983 173.8 769.593 173.928C769.207 174.055 768.794 174.119 768.353 174.119C767.609 174.119 766.947 173.938 766.368 173.574C765.788 173.21 765.332 172.693 765 172.023C764.667 171.352 764.501 170.557 764.501 169.636C764.501 168.716 764.667 167.92 765 167.25C765.332 166.58 765.788 166.062 766.368 165.699C766.947 165.335 767.609 165.153 768.353 165.153C768.794 165.153 769.207 165.217 769.593 165.345C769.983 165.473 770.333 165.661 770.646 165.908C770.958 166.152 771.22 166.45 771.43 166.803C771.64 167.152 771.785 167.551 771.865 168Z" fill="white"/>
<rect width="84" height="33.3333" transform="translate(712 186.667)" fill="#FF0000"/>
<path d="M738.862 206.466V200.841H739.817V206.466H738.862ZM736.527 204.131V203.176H742.152V204.131H736.527ZM743.994 206.21V205.341L747.829 199.273H748.46V200.619H748.034L745.136 205.205V205.273H750.301V206.21H743.994ZM748.102 208V205.946V205.541V199.273H749.107V208H748.102ZM754.744 208.119C754.102 208.119 753.555 207.945 753.104 207.595C752.652 207.243 752.307 206.733 752.068 206.065C751.829 205.395 751.71 204.585 751.71 203.636C751.71 202.693 751.829 201.888 752.068 201.22C752.309 200.55 752.656 200.038 753.108 199.686C753.562 199.331 754.108 199.153 754.744 199.153C755.381 199.153 755.925 199.331 756.376 199.686C756.831 200.038 757.177 200.55 757.416 201.22C757.657 201.888 757.778 202.693 757.778 203.636C757.778 204.585 757.659 205.395 757.42 206.065C757.182 206.733 756.836 207.243 756.385 207.595C755.933 207.945 755.386 208.119 754.744 208.119ZM754.744 207.182C755.381 207.182 755.875 206.875 756.227 206.261C756.579 205.648 756.756 204.773 756.756 203.636C756.756 202.881 756.675 202.237 756.513 201.706C756.354 201.175 756.123 200.77 755.822 200.491C755.524 200.213 755.165 200.074 754.744 200.074C754.113 200.074 753.621 200.385 753.265 201.007C752.91 201.626 752.733 202.503 752.733 203.636C752.733 204.392 752.812 205.034 752.971 205.562C753.131 206.091 753.359 206.493 753.657 206.768C753.959 207.044 754.321 207.182 754.744 207.182ZM759.159 201.881V201.42C759.159 201.017 759.241 200.659 759.406 200.347C759.571 200.034 759.805 199.788 760.109 199.609C760.413 199.43 760.773 199.341 761.187 199.341C761.818 199.341 762.314 199.537 762.675 199.929C763.035 200.318 763.216 200.815 763.216 201.42V201.881C763.216 202.284 763.135 202.641 762.973 202.95C762.811 203.26 762.579 203.503 762.278 203.679C761.977 203.855 761.619 203.943 761.204 203.943C760.574 203.943 760.075 203.751 759.709 203.368C759.342 202.982 759.159 202.486 759.159 201.881ZM760.182 201.42V201.881C760.182 202.23 760.267 202.52 760.437 202.75C760.608 202.977 760.863 203.091 761.204 203.091C761.537 203.091 761.784 202.977 761.946 202.75C762.111 202.52 762.193 202.23 762.193 201.881V201.42C762.193 201.08 762.111 200.793 761.946 200.56C761.781 200.327 761.528 200.21 761.187 200.21C760.855 200.21 760.604 200.327 760.433 200.56C760.265 200.793 760.182 201.08 760.182 201.42ZM771.964 202H770.907C770.845 201.696 770.736 201.429 770.579 201.199C770.426 200.969 770.238 200.776 770.017 200.619C769.798 200.46 769.555 200.341 769.288 200.261C769.021 200.182 768.743 200.142 768.453 200.142C767.925 200.142 767.446 200.276 767.017 200.543C766.591 200.81 766.251 201.203 765.998 201.723C765.748 202.243 765.623 202.881 765.623 203.636C765.623 204.392 765.748 205.03 765.998 205.55C766.251 206.07 766.591 206.463 767.017 206.73C767.446 206.997 767.925 207.131 768.453 207.131C768.743 207.131 769.021 207.091 769.288 207.011C769.555 206.932 769.798 206.814 770.017 206.658C770.238 206.499 770.426 206.304 770.579 206.074C770.736 205.841 770.845 205.574 770.907 205.273H771.964C771.885 205.719 771.74 206.118 771.53 206.47C771.319 206.822 771.058 207.122 770.746 207.369C770.433 207.614 770.082 207.8 769.693 207.928C769.307 208.055 768.893 208.119 768.453 208.119C767.709 208.119 767.047 207.938 766.467 207.574C765.888 207.21 765.432 206.693 765.099 206.023C764.767 205.352 764.601 204.557 764.601 203.636C764.601 202.716 764.767 201.92 765.099 201.25C765.432 200.58 765.888 200.062 766.467 199.699C767.047 199.335 767.709 199.153 768.453 199.153C768.893 199.153 769.307 199.217 769.693 199.345C770.082 199.473 770.433 199.661 770.746 199.908C771.058 200.152 771.319 200.45 771.53 200.803C771.74 201.152 771.885 201.551 771.964 202Z" fill="white"/>
</g>
<rect x="711" y="19" width="86" height="202" rx="5" stroke="#75797B" stroke-width="2"/>
</g>
<defs>
<filter id="filter0_d_103_11418" x="502.829" y="101.243" width="71.2432" height="37.0049" filterUnits="userSpaceOnUse" color-interpolation-filters="sRGB">
<feFlood flood-opacity="0" result="BackgroundImageFix"/>
<feColorMatrix in="SourceAlpha" type="matrix" values="0 0 0 0 0 0 0 0 0 0 0 0 0 0 0 0 0 0 127 0" result="hardAlpha"/>
<feOffset/>
<feGaussianBlur stdDeviation="4"/>
<feComposite in2="hardAlpha" operator="out"/>
<feColorMatrix type="matrix" values="0 0 0 0 0.827451 0 0 0 0 0.807843 0 0 0 0 0.0392157 0 0 0 1 0"/>
<feBlend mode="normal" in2="BackgroundImageFix" result="effect1_dropShadow_103_11418"/>
<feBlend mode="normal" in="SourceGraphic" in2="effect1_dropShadow_103_11418" result="shape"/>
</filter>
<linearGradient id="paint0_linear_103_11418" x1="442" y1="367" x2="556.5" y2="301.5" gradientUnits="userSpaceOnUse">
<stop stop-color="white"/>
<stop offset="1" stop-color="#E7D6BF" stop-opacity="0"/>
<stop offset="1" stop-color="white" stop-opacity="0"/>
</linearGradient>
<radialGradient id="paint1_radial_103_11418" cx="0" cy="0" r="1" gradientUnits="userSpaceOnUse" gradientTransform="translate(301 70.5) rotate(100.784) scale(21.3776 38.6296)">
<stop stop-color="#33A643"/>
<stop offset="1" stop-color="#00FF23" stop-opacity="0"/>
</radialGradient>
<radialGradient id="paint2_radial_103_11418" cx="0" cy="0" r="1" gradientUnits="userSpaceOnUse" gradientTransform="translate(301 70.5) rotate(100.784) scale(21.3776 38.6296)">
<stop stop-color="#33A643"/>
<stop offset="1" stop-color="#00FF23" stop-opacity="0"/>
</radialGradient>
<radialGradient id="paint3_radial_103_11418" cx="0" cy="0" r="1" gradientUnits="userSpaceOnUse" gradientTransform="translate(408.615 340.289) rotate(100.784) scale(21.3776 38.6296)">
<stop stop-color="#33A643"/>
<stop offset="1" stop-color="#00FF23" stop-opacity="0"/>
</radialGradient>
<radialGradient id="paint4_radial_103_11418" cx="0" cy="0" r="1" gradientUnits="userSpaceOnUse" gradientTransform="translate(408.615 340.289) rotate(100.784) scale(21.3776 38.6296)">
<stop stop-color="#33A643"/>
<stop offset="1" stop-color="#00FF23" stop-opacity="0"/>
</radialGradient>
<radialGradient id="paint5_radial_103_11418" cx="0" cy="0" r="1" gradientUnits="userSpaceOnUse" gradientTransform="translate(541.615 451.289) rotate(100.784) scale(21.3776 38.6296)">
<stop stop-color="#33A643"/>
<stop offset="1" stop-color="#00FF23" stop-opacity="0"/>
</radialGradient>
<radialGradient id="paint6_radial_103_11418" cx="0" cy="0" r="1" gradientUnits="userSpaceOnUse" gradientTransform="translate(541.615 451.289) rotate(100.784) scale(21.3776 38.6296)">
<stop stop-color="#33A643"/>
<stop offset="1" stop-color="#00FF23" stop-opacity="0"/>
</radialGradient>
<radialGradient id="paint7_radial_103_11418" cx="0" cy="0" r="1" gradientUnits="userSpaceOnUse" gradientTransform="translate(619.818 503.125) rotate(81.0472) scale(21.4781 45.1739)">
<stop stop-color="#33A643"/>
<stop offset="1" stop-color="#00FF23" stop-opacity="0"/>
</radialGradient>
<radialGradient id="paint8_radial_103_11418" cx="0" cy="0" r="1" gradientUnits="userSpaceOnUse" gradientTransform="translate(619.818 503.125) rotate(81.0472) scale(21.4781 45.1739)">
<stop stop-color="#33A643"/>
<stop offset="1" stop-color="#00FF23" stop-opacity="0"/>
</radialGradient>
<radialGradient id="paint9_radial_103_11418" cx="0" cy="0" r="1" gradientUnits="userSpaceOnUse" gradientTransform="translate(474.006 566.813) rotate(81.0472) scale(21.4781 45.1739)">
<stop stop-color="#33A643"/>
<stop offset="1" stop-color="#00FF23" stop-opacity="0"/>
</radialGradient>
<radialGradient id="paint10_radial_103_11418" cx="0" cy="0" r="1" gradientUnits="userSpaceOnUse" gradientTransform="translate(474.006 566.813) rotate(81.0472) scale(21.4781 45.1739)">
<stop stop-color="#33A643"/>
<stop offset="1" stop-color="#00FF23" stop-opacity="0"/>
</radialGradient>
<linearGradient id="paint11_linear_103_11418" x1="126.5" y1="271" x2="-25.2983" y2="273.342" gradientUnits="userSpaceOnUse">
<stop stop-color="white"/>
<stop offset="1" stop-color="#E7D6BF" stop-opacity="0"/>
<stop offset="1" stop-color="white" stop-opacity="0"/>
</linearGradient>
<linearGradient id="paint12_linear_103_11418" x1="729" y1="-72" x2="679" y2="488.5" gradientUnits="userSpaceOnUse">
<stop stop-color="#012F78"/>
<stop offset="1" stop-color="#012F78" stop-opacity="0"/>
</linearGradient>
<linearGradient id="paint13_linear_103_11418" x1="735.5" y1="434" x2="828.645" y2="457.911" gradientUnits="userSpaceOnUse">
<stop stop-color="#012F78"/>
<stop offset="1" stop-color="#023B95" stop-opacity="0"/>
</linearGradient>
<radialGradient id="paint14_radial_103_11418" cx="0" cy="0" r="1" gradientUnits="userSpaceOnUse" gradientTransform="translate(36.09 450.037) rotate(100.58) scale(21.4781 45.1739)">
<stop stop-color="#33A643"/>
<stop offset="1" stop-color="#00FF23" stop-opacity="0"/>
</radialGradient>
<radialGradient id="paint15_radial_103_11418" cx="0" cy="0" r="1" gradientUnits="userSpaceOnUse" gradientTransform="translate(36.09 450.037) rotate(100.58) scale(21.4781 45.1739)">
<stop stop-color="#33A643"/>
<stop offset="1" stop-color="#00FF23" stop-opacity="0"/>
</radialGradient>
<radialGradient id="paint16_radial_103_11418" cx="0" cy="0" r="1" gradientUnits="userSpaceOnUse" gradientTransform="translate(756.994 414.145) rotate(73.9316) scale(21.4781 45.1739)">
<stop stop-color="#33A643"/>
<stop offset="1" stop-color="#00FF23" stop-opacity="0"/>
</radialGradient>
<radialGradient id="paint17_radial_103_11418" cx="0" cy="0" r="1" gradientUnits="userSpaceOnUse" gradientTransform="translate(535.691 119.715) rotate(80.4477) scale(21.4781 45.1739)">
<stop stop-color="#33A643"/>
<stop offset="1" stop-color="#00FF23" stop-opacity="0"/>
</radialGradient>
<radialGradient id="paint18_radial_103_11418" cx="0" cy="0" r="1" gradientUnits="userSpaceOnUse" gradientTransform="translate(110.828 185.134) rotate(107.398) scale(21.4781 45.1739)">
<stop stop-color="#33A643"/>
<stop offset="1" stop-color="#00FF23" stop-opacity="0"/>
</radialGradient>
<radialGradient id="paint19_radial_103_11418" cx="0" cy="0" r="1" gradientUnits="userSpaceOnUse" gradientTransform="translate(110.828 185.134) rotate(107.398) scale(21.4781 45.1739)">
<stop stop-color="#33A643"/>
<stop offset="1" stop-color="#00FF23" stop-opacity="0"/>
</radialGradient>
<radialGradient id="paint20_radial_103_11418" cx="0" cy="0" r="1" gradientUnits="userSpaceOnUse" gradientTransform="translate(29.2141 452.999) rotate(-99.7792) scale(9.84554 19.4335)">
<stop stop-color="#FF0000"/>
<stop offset="1" stop-color="#FF0000" stop-opacity="0"/>
</radialGradient>
<radialGradient id="paint21_radial_103_11418" cx="0" cy="0" r="1" gradientUnits="userSpaceOnUse" gradientTransform="translate(209.963 419.175) rotate(131.134) scale(21.4781 45.1739)">
<stop stop-color="#33A643"/>
<stop offset="1" stop-color="#00FF23" stop-opacity="0"/>
</radialGradient>
<radialGradient id="paint22_radial_103_11418" cx="0" cy="0" r="1" gradientUnits="userSpaceOnUse" gradientTransform="translate(209.963 419.175) rotate(131.134) scale(21.4781 45.1739)">
<stop stop-color="#33A643"/>
<stop offset="1" stop-color="#00FF23" stop-opacity="0"/>
</radialGradient>
<radialGradient id="paint23_radial_103_11418" cx="0" cy="0" r="1" gradientUnits="userSpaceOnUse" gradientTransform="translate(111.158 185.903) rotate(105.652) scale(8.63134 17.0367)">
<stop stop-color="#FF0000"/>
<stop offset="1" stop-color="#FF0000" stop-opacity="0"/>
</radialGradient>
<radialGradient id="paint24_radial_103_11418" cx="0" cy="0" r="1" gradientUnits="userSpaceOnUse" gradientTransform="translate(208.151 417.906) rotate(-49.9624) scale(8.63134 17.0367)">
<stop stop-color="#FF0000"/>
<stop offset="1" stop-color="#FF0000" stop-opacity="0"/>
</radialGradient>
<radialGradient id="paint25_radial_103_11418" cx="0" cy="0" r="1" gradientUnits="userSpaceOnUse" gradientTransform="translate(412.68 341.082) rotate(105.652) scale(8.63134 17.0367)">
<stop stop-color="#FF0000"/>
<stop offset="1" stop-color="#FF0000" stop-opacity="0"/>
</radialGradient>
<radialGradient id="paint26_radial_103_11418" cx="0" cy="0" r="1" gradientUnits="userSpaceOnUse" gradientTransform="translate(302.23 67.0824) rotate(105.652) scale(8.63134 17.0367)">
<stop stop-color="#FF0000"/>
<stop offset="1" stop-color="#FF0000" stop-opacity="0"/>
</radialGradient>
<radialGradient id="paint27_radial_103_11418" cx="0" cy="0" r="1" gradientUnits="userSpaceOnUse" gradientTransform="translate(537.173 447.917) rotate(-75.8166) scale(8.63134 17.0367)">
<stop stop-color="#FF0000"/>
<stop offset="1" stop-color="#FF0000" stop-opacity="0"/>
</radialGradient>
<radialGradient id="paint28_radial_103_11418" cx="0" cy="0" r="1" gradientUnits="userSpaceOnUse" gradientTransform="translate(537.5 118.5) rotate(79.992) scale(8.63134 17.0367)">
<stop stop-color="#FF0000"/>
<stop offset="1" stop-color="#FF0000" stop-opacity="0"/>
</radialGradient>
<radialGradient id="paint29_radial_103_11418" cx="0" cy="0" r="1" gradientUnits="userSpaceOnUse" gradientTransform="translate(757.171 412.113) rotate(66.575) scale(8.63134 17.0367)">
<stop stop-color="#FF0000"/>
<stop offset="1" stop-color="#FF0000" stop-opacity="0"/>
</radialGradient>
<radialGradient id="paint30_radial_103_11418" cx="0" cy="0" r="1" gradientUnits="userSpaceOnUse" gradientTransform="translate(476.784 564.999) rotate(-99.7792) scale(9.84554 19.4335)">
<stop stop-color="#FF0000"/>
<stop offset="1" stop-color="#FF0000" stop-opacity="0"/>
</radialGradient>
<radialGradient id="paint31_radial_103_11418" cx="0" cy="0" r="1" gradientUnits="userSpaceOnUse" gradientTransform="translate(612.214 500.999) rotate(-99.7792) scale(9.84554 19.4335)">
<stop stop-color="#FF0000"/>
<stop offset="1" stop-color="#FF0000" stop-opacity="0"/>
</radialGradient>
<clipPath id="clip0_103_11418">
<rect width="816" height="626" fill="white"/>
</clipPath>
<clipPath id="clip1_103_11418">
<rect x="712" y="20" width="84" height="200" rx="4" fill="white"/>
</clipPath>
</defs>
</svg>
